<svg width="384" height="382" viewBox="0 0 384 382" fill="none" xmlns="http://www.w3.org/2000/svg">
<path d="M65.2122 240.264L107.17 202.112C124.295 184.965 140.993 184.965 159.403 184.965H262.584C277.997 184.965 287.417 196.539 287.417 205.97C287.417 215.401 281.765 232.805 262.584 232.119H200.504" stroke="#005F82" stroke-width="14" stroke-linecap="round" stroke-linejoin="round"/>
<path d="M64.207 242.099L140.695 318.689L166.334 293.017H238.977C270.862 292.392 305.637 294.728 325.293 265.205C344.949 235.681 368.879 195.033 368.879 195.033C368.879 195.033 388.535 168.504 366.315 154.812C353.923 147.176 342.385 151.389 332.985 159.091C328.284 162.942 288.544 203.59 288.544 203.59" stroke="#005F82" stroke-width="14" stroke-linecap="round" stroke-linejoin="round"/>
<rect x="49.8955" y="228.732" width="146.183" height="62.0848" rx="3" transform="rotate(45 49.8955 228.732)" stroke="#005F82" stroke-width="14" stroke-linejoin="round"/>
<path d="M144.964 25.9533C157.764 4.9923 191.902 -0.996733 213.237 20.3921C234.573 -0.996733 267.431 4.99233 280.231 25.9533C296.073 55.7663 265.296 87.5528 212.81 142.736C160.324 87.5528 125.816 61.3273 144.964 25.9533Z" stroke="#005F82" stroke-width="14" stroke-linecap="round" stroke-linejoin="round"/>
</svg>
