<svg xmlns="http://www.w3.org/2000/svg" viewBox="0 0 1591.45 255.11"><defs><style>.cls-1{fill:#005f82;}.cls-2,.cls-5{fill:#fde4df;}.cls-2,.cls-3,.cls-4,.cls-5{stroke:#3f3e3d;stroke-miterlimit:10;stroke-width:5px;}.cls-2,.cls-3,.cls-4{stroke-linecap:round;}.cls-3{fill:#fee4de;}.cls-4{fill:#dc021c;}</style></defs><g id="Layer_2" data-name="Layer 2"><g id="Layer_1-2" data-name="Layer 1"><path class="cls-1" d="M445.87,42.14a42.89,42.89,0,0,0-14.36-8.79,54.54,54.54,0,0,0-36.25,0,42.73,42.73,0,0,0-14.41,8.79,40.54,40.54,0,0,0-9.48,13.32A41.08,41.08,0,0,0,368,72.29a41.15,41.15,0,0,0,3.39,16.78,40.37,40.37,0,0,0,9.48,13.38,42.73,42.73,0,0,0,14.41,8.79,51.8,51.8,0,0,0,18.21,3.1,50.93,50.93,0,0,0,18-3.1,42.89,42.89,0,0,0,14.36-8.79,40.37,40.37,0,0,0,9.48-13.38,41.15,41.15,0,0,0,3.39-16.78,41.08,41.08,0,0,0-3.39-16.83A40.54,40.54,0,0,0,445.87,42.14ZM430,80.74a18.24,18.24,0,0,1-3.85,6.32,17,17,0,0,1-5.75,4,18.77,18.77,0,0,1-14.13,0,17.07,17.07,0,0,1-5.74-4,18.1,18.1,0,0,1-3.85-6.32,24.27,24.27,0,0,1-1.38-8.45,24.22,24.22,0,0,1,1.38-8.44,18.1,18.1,0,0,1,3.85-6.32,17.07,17.07,0,0,1,5.74-4,18.77,18.77,0,0,1,14.13,0,17,17,0,0,1,5.75,4A18.24,18.24,0,0,1,430,63.85a24.22,24.22,0,0,1,1.37,8.44A24.28,24.28,0,0,1,430,80.74Z"/><path class="cls-1" d="M500.67,92.28h7.38l13.64,20.22h28.95L533.76,87.77a27.76,27.76,0,0,0,10.68-9.33,28.27,28.27,0,0,0,4.48-16,27.73,27.73,0,0,0-17.18-26.65q-8.21-3.67-19.47-3.67H473.55V112.5h27.12Zm18.21-36.76a9,9,0,0,1,2.69,6.89,9,9,0,0,1-2.69,6.9c-1.81,1.68-4.58,2.52-8.33,2.52h-9.88V53h9.88C514.3,53,517.07,53.84,518.88,55.52Z"/><path class="cls-1" d="M593.49,57.59a16.44,16.44,0,0,1,6.15-4,22.55,22.55,0,0,1,8.09-1.38,21.5,21.5,0,0,1,9.83,2.24A27.38,27.38,0,0,1,625.77,61l17.35-15.28a39.86,39.86,0,0,0-15.45-11.49,53.59,53.59,0,0,0-21.31-4,53,53,0,0,0-18.33,3A42.23,42.23,0,0,0,573.62,42a39,39,0,0,0-9.43,13.32,42.37,42.37,0,0,0-3.33,17,42.39,42.39,0,0,0,3.33,17,39.57,39.57,0,0,0,9.37,13.32,42,42,0,0,0,14.24,8.68,51.6,51.6,0,0,0,18,3,67.58,67.58,0,0,0,18.27-2.64,57.86,57.86,0,0,0,16.77-7.58v-34H617.27V90.49l-.92.36a26.68,26.68,0,0,1-9,1.55A20.55,20.55,0,0,1,599.52,91a17,17,0,0,1-6-4.08,18.12,18.12,0,0,1-3.91-6.37,23.55,23.55,0,0,1-1.37-8.22,23.72,23.72,0,0,1,1.37-8.38A18.27,18.27,0,0,1,593.49,57.59Z"/><path class="cls-1" d="M681.59,98.49h30.58l5.39,14h28L710.44,32.09H683.79L648.63,112.5H676.2ZM689.1,79l7.78-20.26L704.67,79Z"/><polygon class="cls-1" points="781.32 75.93 811.88 112.5 834.16 112.5 834.16 32.09 807.74 32.09 807.74 68.65 777.18 32.09 754.9 32.09 754.9 112.5 781.32 112.5 781.32 75.93"/><path class="cls-1" d="M954.9,107.62a37.69,37.69,0,0,0,16-13.9q5.75-9,5.74-21.54t-5.74-21.37A37.83,37.83,0,0,0,954.9,37q-10.23-4.89-23.67-4.88H891.6V112.5h39.63Q944.67,112.5,954.9,107.62ZM918.71,91.36V53.22h11.38a21.91,21.91,0,0,1,10,2.19,15.78,15.78,0,0,1,6.72,6.43,20.62,20.62,0,0,1,2.41,10.34,21.21,21.21,0,0,1-2.41,10.51,15.69,15.69,0,0,1-6.72,6.49,21.91,21.91,0,0,1-10,2.18Z"/><path class="cls-1" d="M1066.1,42.14a42.8,42.8,0,0,0-14.36-8.79,54.51,54.51,0,0,0-36.24,0,42.67,42.67,0,0,0-14.42,8.79,40.54,40.54,0,0,0-9.48,13.32,41.08,41.08,0,0,0-3.39,16.83,41.15,41.15,0,0,0,3.39,16.78,40.37,40.37,0,0,0,9.48,13.38,42.67,42.67,0,0,0,14.42,8.79,51.72,51.72,0,0,0,18.21,3.1,50.87,50.87,0,0,0,18-3.1,42.8,42.8,0,0,0,14.36-8.79,40.37,40.37,0,0,0,9.48-13.38A41.15,41.15,0,0,0,1079,72.29a41.08,41.08,0,0,0-3.39-16.83A40.54,40.54,0,0,0,1066.1,42.14Zm-15.85,38.6a18.1,18.1,0,0,1-3.85,6.32,17.07,17.07,0,0,1-5.74,4,18.77,18.77,0,0,1-14.13,0,17,17,0,0,1-5.75-4,18.1,18.1,0,0,1-3.85-6.32,24.51,24.51,0,0,1-1.37-8.45,24.45,24.45,0,0,1,1.37-8.44,18.1,18.1,0,0,1,3.85-6.32,17,17,0,0,1,5.75-4,18.77,18.77,0,0,1,14.13,0,17.07,17.07,0,0,1,5.74,4,18.1,18.1,0,0,1,3.85,6.32,24.22,24.22,0,0,1,1.38,8.44A24.27,24.27,0,0,1,1050.25,80.74Z"/><polygon class="cls-1" points="1146.63 68.65 1116.08 32.09 1093.79 32.09 1093.79 112.5 1120.21 112.5 1120.21 75.94 1150.77 112.5 1173.06 112.5 1173.06 32.09 1146.63 32.09 1146.63 68.65"/><path class="cls-1" d="M1217.51,32.09l-35.15,80.41h27.57l5.39-14h30.58l5.39,14h28l-35.15-80.41ZM1222.82,79l7.79-20.26L1238.39,79Z"/><polygon class="cls-1" points="1278.52 53.11 1302.07 53.11 1302.07 112.5 1329.18 112.5 1329.18 53.11 1352.73 53.11 1352.73 32.09 1278.52 32.09 1278.52 53.11"/><rect class="cls-1" x="1364.67" y="32.09" width="27.11" height="80.42"/><path class="cls-1" d="M1484.49,42.14a42.8,42.8,0,0,0-14.36-8.79,54.51,54.51,0,0,0-36.24,0,42.77,42.77,0,0,0-14.42,8.79A40.54,40.54,0,0,0,1410,55.46a41.24,41.24,0,0,0-3.38,16.83A41.31,41.31,0,0,0,1410,89.07a40.37,40.37,0,0,0,9.48,13.38,42.77,42.77,0,0,0,14.42,8.79,51.72,51.72,0,0,0,18.21,3.1,50.87,50.87,0,0,0,18-3.1,42.8,42.8,0,0,0,14.36-8.79A40.37,40.37,0,0,0,1494,89.07a41.15,41.15,0,0,0,3.39-16.78A41.08,41.08,0,0,0,1494,55.46,40.54,40.54,0,0,0,1484.49,42.14Zm-15.85,38.6a18.1,18.1,0,0,1-3.85,6.32,17,17,0,0,1-5.74,4,18.77,18.77,0,0,1-14.13,0,17.11,17.11,0,0,1-5.75-4,18.08,18.08,0,0,1-3.84-6.32,24.27,24.27,0,0,1-1.38-8.45,24.22,24.22,0,0,1,1.38-8.44,18.08,18.08,0,0,1,3.84-6.32,17.11,17.11,0,0,1,5.75-4,18.77,18.77,0,0,1,14.13,0,17,17,0,0,1,5.74,4,18.1,18.1,0,0,1,3.85,6.32,24.22,24.22,0,0,1,1.38,8.44A24.27,24.27,0,0,1,1468.64,80.74Z"/><polygon class="cls-1" points="1565.03 32.09 1565.03 68.65 1534.47 32.09 1512.18 32.09 1512.18 112.5 1538.6 112.5 1538.6 75.94 1569.16 112.5 1591.45 112.5 1591.45 32.09 1565.03 32.09"/><path class="cls-1" d="M429.38,159.76q-8.2-3.67-19.47-3.67H371.2V236.5h27.11V216.74h11.6q11.26,0,19.47-3.73a29.31,29.31,0,0,0,12.7-10.51,31.22,31.22,0,0,0,0-32.23A28.84,28.84,0,0,0,429.38,159.76Zm-12.86,33.55q-2.7,2.52-8.33,2.52h-9.88V177h9.88c3.75,0,6.53.85,8.33,2.53a10.15,10.15,0,0,1,0,13.79Z"/><path class="cls-1" d="M531.23,202.44a28.27,28.27,0,0,0,4.48-16,27.73,27.73,0,0,0-17.18-26.65q-8.21-3.67-19.47-3.67H460.34V236.5h27.12V216.28h7.38l13.64,20.22h28.95l-16.88-24.73A27.76,27.76,0,0,0,531.23,202.44Zm-25.56-22.92a10.18,10.18,0,0,1,0,13.79c-1.81,1.68-4.58,2.52-8.33,2.52h-9.88V177h9.88C501.09,177,503.86,177.84,505.67,179.52Z"/><path class="cls-1" d="M625.54,166.14a42.8,42.8,0,0,0-14.36-8.79,54.51,54.51,0,0,0-36.24,0,42.67,42.67,0,0,0-14.42,8.79A40.54,40.54,0,0,0,551,179.46a43.35,43.35,0,0,0,0,33.61,40.37,40.37,0,0,0,9.48,13.38,42.67,42.67,0,0,0,14.42,8.79,51.72,51.72,0,0,0,18.21,3.1,50.91,50.91,0,0,0,18-3.1,42.8,42.8,0,0,0,14.36-8.79A40.37,40.37,0,0,0,635,213.07a43.35,43.35,0,0,0,0-33.61A40.54,40.54,0,0,0,625.54,166.14Zm-15.85,38.6a18.1,18.1,0,0,1-3.85,6.32,17.07,17.07,0,0,1-5.74,4A18.77,18.77,0,0,1,586,215a17,17,0,0,1-5.75-4,18.1,18.1,0,0,1-3.85-6.32,26.71,26.71,0,0,1,0-16.89,18.1,18.1,0,0,1,3.85-6.32,17,17,0,0,1,5.75-4,18.77,18.77,0,0,1,14.13,0,17.07,17.07,0,0,1,5.74,4,18.1,18.1,0,0,1,3.85,6.32,26.53,26.53,0,0,1,0,16.89Z"/><polygon class="cls-1" points="645.99 177.11 669.54 177.11 669.54 236.5 696.65 236.5 696.65 177.11 720.2 177.11 720.2 156.09 645.99 156.09 645.99 177.11"/><path class="cls-1" d="M805.67,166.14a42.8,42.8,0,0,0-14.36-8.79,54.51,54.51,0,0,0-36.24,0,42.77,42.77,0,0,0-14.42,8.79,40.54,40.54,0,0,0-9.48,13.32,43.47,43.47,0,0,0,0,33.61,40.37,40.37,0,0,0,9.48,13.38,42.77,42.77,0,0,0,14.42,8.79,51.72,51.72,0,0,0,18.21,3.1,50.87,50.87,0,0,0,18-3.1,42.8,42.8,0,0,0,14.36-8.79,40.37,40.37,0,0,0,9.48-13.38,43.35,43.35,0,0,0,0-33.61A40.54,40.54,0,0,0,805.67,166.14Zm-15.85,38.6a18.1,18.1,0,0,1-3.85,6.32,17.07,17.07,0,0,1-5.74,4,18.77,18.77,0,0,1-14.13,0,17.11,17.11,0,0,1-5.75-4,18.08,18.08,0,0,1-3.84-6.32,26.53,26.53,0,0,1,0-16.89,18.08,18.08,0,0,1,3.84-6.32,17.11,17.11,0,0,1,5.75-4,18.77,18.77,0,0,1,14.13,0,17.07,17.07,0,0,1,5.74,4,18.1,18.1,0,0,1,3.85,6.32,26.53,26.53,0,0,1,0,16.89Z"/><polygon class="cls-1" points="826.12 177.11 849.67 177.11 849.67 236.5 876.78 236.5 876.78 177.11 900.34 177.11 900.34 156.09 826.12 156.09 826.12 177.11"/><polygon class="cls-1" points="961.91 156.09 945.35 183.94 928.94 156.09 900.34 156.09 930.66 207.01 930.66 236.5 957.78 236.5 957.78 207.34 988.1 156.09 961.91 156.09"/><path class="cls-1" d="M1054.68,159.76q-8.22-3.67-19.48-3.67H996.49V236.5h27.11V216.74h11.6q11.27,0,19.48-3.73a29.34,29.34,0,0,0,12.69-10.51,31.22,31.22,0,0,0,0-32.23A28.87,28.87,0,0,0,1054.68,159.76Zm-12.87,33.55q-2.7,2.52-8.33,2.52h-9.88V177h9.88c3.75,0,6.53.85,8.33,2.53a10.15,10.15,0,0,1,0,13.79Z"/><polygon class="cls-1" points="1112.29 205.49 1146.29 205.49 1146.29 185.95 1112.29 185.95 1112.29 176.53 1151 176.53 1151 156.09 1085.64 156.09 1085.64 236.5 1152.5 236.5 1152.5 216.05 1112.29 216.05 1112.29 205.49"/><path class="cls-2" d="M267.15,62.36s-26.78,24.78,0,54.82l-22.21,22.21S220,160,237.64,182.92l2.41,2.41,70.47-70.46s16-13.87,18.69-30.67,7.56-42-18.48-65.11-58-15.33-58-15.33-17,4.2-29,15.54-54.61,54.4-54.61,54.4L76.85,166l76.42,77.33s13.37,15.61,28.08.91,122-122.45,122-122.45"/><line class="cls-2" x1="202.35" y1="77.27" x2="145.85" y2="133.77"/><line class="cls-2" x1="213.69" y1="102.05" x2="160.87" y2="154.88"/><line class="cls-2" x1="233.23" y1="119.28" x2="175.26" y2="177.24"/><path class="cls-3" d="M66.79,64.3s25.48,23.58,1.88,52.61a3.19,3.19,0,0,0,.2,4.28l20,20.05a.93.93,0,0,0,.18.16c1.62,1.4,24.09,21.27,7.35,43.27-.1.12-.2.24-.31.35h0a3.17,3.17,0,0,1-4.5,0L23.49,116.88l-.14-.14c-1.14-1-16-14.45-18.62-30.6C2,69.34-2.83,44.13,23.21,21s58-15.33,58-15.33,17,4.2,29,15.54,54.61,54.4,54.61,54.4l69.74,69.74a32.11,32.11,0,0,1,.13,45.27l-53.92,54.56-.11.13c-.91,1-13.85,15-28,.85-14.7-14.7-122-122.45-122-122.45"/><line class="cls-3" x1="131.59" y1="79.21" x2="191.35" y2="138.97"/><line class="cls-3" x1="120.25" y1="103.99" x2="173.07" y2="156.82"/><line class="cls-3" x1="100.71" y1="121.22" x2="158.68" y2="179.18"/><path class="cls-4" d="M235.07,145.7l-3.16-3.16a31.69,31.69,0,0,0-44.82,0l-16.57,16.84c-5.18,5.33-7.27,1.13-18-9.61l-5.5-5.5a33.94,33.94,0,0,0-48,0h0a33.93,33.93,0,0,0,0,48l55.55,55.54a16.43,16.43,0,0,0,23.26,0l22.85-22.85c.09-.09.17-.19.25-.28l34.14-34.13A31.7,31.7,0,0,0,235.07,145.7Z"/><path class="cls-5" d="M267.36,117,236,148.33c-11.08,11.08-10.9,29.22.4,40.52h0l51.43-51.44"/><path class="cls-5" d="M72,124.1l31.37,31.38c11.08,11.08,10.91,29.22-.39,40.52h0L51.52,144.56"/></g></g></svg>