<svg xmlns="http://www.w3.org/2000/svg" viewBox="0 0 948.59 255.11"><defs><style>.cls-1{font-size:70px;fill:#005f82;font-family:Montserrat-Bold, Montserrat;font-weight:700;}.cls-2{letter-spacing:-0.01em;}.cls-3{letter-spacing:-0.01em;}.cls-4{letter-spacing:-0.01em;}.cls-5{letter-spacing:-0.02em;}.cls-6{letter-spacing:0em;}.cls-7{letter-spacing:-0.01em;}.cls-11,.cls-8{fill:#fde4df;}.cls-10,.cls-11,.cls-8,.cls-9{stroke:#3f3e3d;stroke-miterlimit:10;stroke-width:5px;}.cls-10,.cls-8,.cls-9{stroke-linecap:round;}.cls-9{fill:#fee4de;}.cls-10{fill:#dc021c;}</style></defs><g id="Layer_2" data-name="Layer 2"><g id="Layer_1-2" data-name="Layer 1"><text class="cls-1" transform="translate(358.63 105.74)">O<tspan class="cls-2" x="59.08" y="0">r</tspan><tspan x="88.62" y="0">gan Donation</tspan><tspan class="cls-3" x="0" y="90">P</tspan><tspan class="cls-4" x="50.54" y="90">r</tspan><tspan x="80.08" y="90">o</tspan><tspan class="cls-5" x="125.93" y="90">t</tspan><tspan class="cls-6" x="155.19" y="90">o</tspan><tspan class="cls-7" x="201.04" y="90">t</tspan><tspan x="230.79" y="90">ype</tspan></text><path class="cls-8" d="M267.15,62.36s-26.78,24.78,0,54.82l-22.21,22.21S220,160,237.64,182.92l2.41,2.41,70.47-70.46s16-13.87,18.69-30.67,7.56-42-18.48-65.11-58-15.33-58-15.33-17,4.2-29,15.54-54.61,54.4-54.61,54.4L76.85,166l76.42,77.33s13.37,15.61,28.08.91,122-122.45,122-122.45"/><line class="cls-8" x1="202.35" y1="77.27" x2="145.85" y2="133.77"/><line class="cls-8" x1="213.69" y1="102.05" x2="160.87" y2="154.88"/><line class="cls-8" x1="233.23" y1="119.28" x2="175.26" y2="177.24"/><path class="cls-9" d="M66.79,64.3s25.48,23.58,1.88,52.61a3.19,3.19,0,0,0,.2,4.28l20,20.05a.93.93,0,0,0,.18.16c1.62,1.4,24.09,21.27,7.35,43.27-.1.12-.2.24-.31.35h0a3.17,3.17,0,0,1-4.5,0L23.49,116.88l-.14-.14c-1.14-1-16-14.45-18.62-30.6C2,69.34-2.83,44.13,23.21,21s58-15.33,58-15.33,17,4.2,29,15.54,54.61,54.4,54.61,54.4l69.74,69.74a32.11,32.11,0,0,1,.13,45.27l-53.92,54.56-.11.13c-.91,1-13.85,15-28,.85-14.7-14.7-122-122.45-122-122.45"/><line class="cls-9" x1="131.59" y1="79.21" x2="191.35" y2="138.97"/><line class="cls-9" x1="120.25" y1="103.99" x2="173.07" y2="156.82"/><line class="cls-9" x1="100.71" y1="121.22" x2="158.68" y2="179.18"/><path class="cls-10" d="M235.07,145.7l-3.16-3.16a31.69,31.69,0,0,0-44.82,0l-16.57,16.84c-5.18,5.33-7.27,1.13-18-9.61l-5.5-5.5a33.94,33.94,0,0,0-48,0h0a33.93,33.93,0,0,0,0,48l55.55,55.54a16.43,16.43,0,0,0,23.26,0l22.85-22.85c.09-.09.17-.19.25-.28l34.14-34.13A31.7,31.7,0,0,0,235.07,145.7Z"/><path class="cls-11" d="M267.36,117,236,148.33c-11.08,11.08-10.9,29.22.4,40.52h0l51.43-51.44"/><path class="cls-11" d="M72,124.1l31.37,31.38c11.08,11.08,10.91,29.22-.39,40.52h0L51.52,144.56"/></g></g></svg>