<svg width="18" height="12" viewBox="0 0 18 12" fill="none" xmlns="http://www.w3.org/2000/svg">
<path d="M15.75 12H2.25C1.65351 11.9992 1.08167 11.7619 0.659887 11.3401C0.238102 10.9183 0.000793961 10.3465 2.2244e-07 9.75V2.25C-0.000131204 1.95449 0.0579771 1.66185 0.171004 1.38881C0.28403 1.11577 0.449759 0.867675 0.658717 0.658717C0.867675 0.449759 1.11577 0.28403 1.38881 0.171004C1.66185 0.0579771 1.95449 -0.000131204 2.25 2.2244e-07H15.75C16.0455 -0.000131204 16.3382 0.0579771 16.6112 0.171004C16.8842 0.28403 17.1323 0.449759 17.3413 0.658717C17.5502 0.867675 17.716 1.11577 17.829 1.38881C17.942 1.66185 18.0001 1.95449 18 2.25V9.75C17.9992 10.3465 17.7619 10.9183 17.3401 11.3401C16.9183 11.7619 16.3465 11.9992 15.75 12V12ZM1.5 2.764V9.75C1.5 9.949 1.57899 10.1399 1.71961 10.2807C1.86023 10.4215 2.051 10.5007 2.25 10.501H15.75C15.949 10.5007 16.1398 10.4215 16.2804 10.2807C16.421 10.1399 16.5 9.949 16.5 9.75V2.764L10.078 6.264C9.74757 6.44457 9.37705 6.5392 9.0005 6.5392C8.62395 6.5392 8.25343 6.44457 7.923 6.264L1.5 2.764ZM2.316 1.5L8.641 4.95C8.75107 5.01022 8.87453 5.04178 9 5.04178C9.12547 5.04178 9.24893 5.01022 9.359 4.95L15.684 1.5H2.316Z" fill="#005F82"/>
</svg>
