<?xml version="1.0" encoding="utf-8"?>
<!-- Generator: Adobe Illustrator 25.2.0, SVG Export Plug-In . SVG Version: 6.00 Build 0)  -->
<svg version="1.1" id="Layer_1" xmlns="http://www.w3.org/2000/svg" xmlns:xlink="http://www.w3.org/1999/xlink" x="0px" y="0px"
	 viewBox="0 0 1920 1080" style="enable-background:new 0 0 1920 1080;" xml:space="preserve">
<style type="text/css">
	.st0{fill:#FFFFFF;stroke:#3F3E3D;stroke-width:6;stroke-miterlimit:10;}
	.st1{opacity:0.48;fill:#FFFFFF;stroke:#3F3E3D;stroke-width:6;stroke-miterlimit:10;}
	.st2{fill:#DC021C;stroke:#3F3E3D;stroke-width:6;stroke-miterlimit:10;}
	.st3{fill:#93D5E9;stroke:#005F82;stroke-width:10;stroke-miterlimit:10;}
	.st4{opacity:0.44;fill:#FFFFFF;stroke:#3F3E3D;stroke-width:6;stroke-miterlimit:10;}
	.st5{fill:#005F82;stroke:#005F82;stroke-width:10;stroke-miterlimit:10;}
	.st6{fill:#FDE4DF;stroke:#3F3E3D;stroke-width:5;stroke-linecap:round;stroke-miterlimit:10;}
	.st7{fill:#FEE4DE;stroke:#3F3E3D;stroke-width:5;stroke-linecap:round;stroke-miterlimit:10;}
	.st8{fill:#DC021C;stroke:#3F3E3D;stroke-width:5;stroke-linecap:round;stroke-miterlimit:10;}
	.st9{fill:#005F82;}
	.st10{fill:#FDE4DF;stroke:#3F3E3D;stroke-width:5;stroke-miterlimit:10;}
	.st11{fill:#35FFAC;}
	.st12{fill:#005F82;stroke:#005F82;stroke-miterlimit:10;}
</style>
<image style="overflow:visible;" width="1600" height="1689" xlink:href="hands-holding-heart-vector-illustration-valentines-day-organ-donation-concept-two-donor-february-conceptual-symbol-170909669.jpg"  transform="matrix(0.6301 0 0 0.6301 -6540.9561 7.9213)">
</image>
<g>
	<path class="st0" d="M-4345.1,633.1l-84.9-84.9c-7.4-7.4-7.4-19.5,0-27l165.7-165.7c30.9-30.9,81-30.9,111.9,0v0
		c30.9,30.9,30.9,81,0,111.9l-165.7,165.7C-4325.6,640.5-4337.6,640.5-4345.1,633.1z"/>
	<path class="st1" d="M-4233.2,548.1l-84.9,84.9c-7.4,7.4-19.5,7.4-27,0l-165.7-165.7c-30.9-30.9-30.9-81,0-111.9v0
		c30.9-30.9,81-30.9,111.9,0l165.7,165.7C-4225.8,528.6-4225.8,540.7-4233.2,548.1z"/>
	<path class="st2" d="M-4236.9,473.6l-3.5-3.5c-21.6-21.6-56.7-21.6-78.3,0l-13.3,13.3l-13.2-13.2c-21.6-21.6-56.7-21.6-78.3,0
		l-3.5,3.5c-21.6,21.6-21.6,56.7,0,78.3l95,95l81.8-81.8l0,0l13.3-13.3C-4215.3,530.3-4215.3,495.2-4236.9,473.6z"/>
</g>
<circle class="st3" cx="-3557.5" cy="403.5" r="244.3"/>
<g>
	<path class="st4" d="M-3987.4,984.3l-84.9-84.9c-7.4-7.4-7.4-19.5,0-27l165.7-165.7c30.9-30.9,81-30.9,111.9,0v0
		c30.9,30.9,30.9,81,0,111.9l-165.7,165.7C-3967.8,991.8-3979.9,991.8-3987.4,984.3z"/>
	<path class="st1" d="M-3875.5,899.4l-4.9,4.9l-80,80c-7.4,7.4-19.5,7.4-27,0l-165.7-165.7c-30.9-30.9-30.9-81,0-111.9v0
		c30.9-30.9,81-30.9,111.9,0l165.7,165.7C-3868,879.9-3868,892-3875.5,899.4z"/>
	<path class="st0" d="M-3771.5,836.7"/>
</g>
<g>
	<circle class="st5" cx="-4514.3" cy="1875" r="244.3"/>
	<g>
		<g>
			<path class="st6" d="M-4415.2,1832.2c0,0-26.6,24.7,0,54.5l-22.1,22.1c0,0-24.8,20.5-7.3,43.3l2.4,2.4l70.1-70.1
				c0,0,15.9-13.8,18.6-30.5c2.7-16.7,7.5-41.8-18.4-64.8s-57.7-15.3-57.7-15.3s-16.9,4.2-28.8,15.5c-11.9,11.3-54.3,54.1-54.3,54.1
				l-91.8,91.8l76,76.9c0,0,13.3,15.5,27.9,0.9s121.4-121.8,121.4-121.8"/>
			<g>
				<line class="st6" x1="-4479.6" y1="1847" x2="-4535.8" y2="1903.2"/>
				<line class="st6" x1="-4468.3" y1="1871.7" x2="-4520.9" y2="1924.2"/>
				<line class="st6" x1="-4448.9" y1="1888.8" x2="-4506.6" y2="1946.5"/>
			</g>
		</g>
		<path class="st0" d="M-4410.6,1888.8"/>
		<path class="st0" d="M-4431.3,1871.7"/>
		<path class="st7" d="M-4614.5,1834.1c0,0,25.3,23.5,1.9,52.3c-1,1.3-1,3.1,0.2,4.3l19.9,19.9c0.1,0.1,0.1,0.1,0.2,0.2
			c1.6,1.4,24,21.1,7.3,43c-0.1,0.1-0.2,0.2-0.3,0.4l0,0c-1.2,1.2-3.2,1.2-4.5,0l-67.8-67.8c0,0-0.1-0.1-0.1-0.1
			c-1.1-1-15.9-14.4-18.5-30.4c-2.7-16.7-7.5-41.8,18.4-64.8s57.7-15.3,57.7-15.3s16.9,4.2,28.8,15.5c11.9,11.3,54.3,54.1,54.3,54.1
			l69.4,69.4c12.4,12.4,12.5,32.5,0.1,45l-53.6,54.3c0,0-0.1,0.1-0.1,0.1c-0.9,1-13.8,15-27.9,0.8
			c-14.6-14.6-121.4-121.8-121.4-121.8"/>
		<line class="st7" x1="-4550" y1="1848.9" x2="-4490.6" y2="1908.4"/>
		<line class="st7" x1="-4561.3" y1="1873.6" x2="-4508.7" y2="1926.1"/>
		<line class="st7" x1="-4580.7" y1="1890.7" x2="-4523.1" y2="1948.4"/>
		<path class="st8" d="M-4447.1,1915.1l-3.1-3.1c-12.3-12.3-32.3-12.3-44.6,0l-16.5,16.8c-5.2,5.3-7.2,1.1-17.9-9.6l-5.5-5.5
			c-13.2-13.2-34.6-13.2-47.7,0l0,0c-13.2,13.2-13.2,34.6,0,47.7l55.2,55.2c6.4,6.4,16.7,6.4,23.1,0l22.7-22.7
			c0.1-0.1,0.2-0.2,0.2-0.3l34-34C-4434.8,1947.4-4434.8,1927.4-4447.1,1915.1z"/>
	</g>
</g>
<g>
	<path class="st9" d="M-1742.8,473.1c-4.1-3.8-8.8-6.7-14.4-8.8c-5.5-2.1-11.6-3.1-18.2-3.1c-6.5,0-12.5,1-18.1,3.1
		c-5.6,2.1-10.4,5-14.4,8.8c-4.1,3.8-7.2,8.2-9.5,13.3c-2.3,5.1-3.4,10.7-3.4,16.8c0,6.1,1.1,11.6,3.4,16.8
		c2.3,5.1,5.4,9.6,9.5,13.4c4.1,3.8,8.9,6.7,14.4,8.8c5.6,2.1,11.6,3.1,18.2,3.1c6.5,0,12.5-1,18-3.1s10.3-5,14.4-8.8
		c4.1-3.8,7.2-8.3,9.5-13.4c2.3-5.1,3.4-10.7,3.4-16.8c0-6.1-1.1-11.7-3.4-16.8C-1735.6,481.3-1738.7,476.9-1742.8,473.1z
		 M-1758.6,511.7c-0.9,2.5-2.2,4.6-3.8,6.3c-1.6,1.7-3.6,3-5.7,4s-4.5,1.4-7.1,1.4s-4.9-0.5-7.1-1.4c-2.2-0.9-4.1-2.2-5.7-4
		c-1.6-1.7-2.9-3.8-3.8-6.3c-0.9-2.5-1.4-5.3-1.4-8.4c0-3.1,0.5-6,1.4-8.4c0.9-2.5,2.2-4.6,3.8-6.3c1.6-1.7,3.6-3,5.7-4
		c2.2-0.9,4.5-1.4,7.1-1.4s4.9,0.5,7.1,1.4s4.1,2.2,5.7,4c1.6,1.7,2.9,3.8,3.8,6.3c0.9,2.5,1.4,5.3,1.4,8.4
		C-1757.3,506.4-1757.7,509.2-1758.6,511.7z"/>
	<path class="st9" d="M-1688,523.2h7.4l13.6,20.2h28.9l-16.9-24.7c4.5-2.3,8.1-5.4,10.7-9.3c3-4.5,4.5-9.8,4.5-16
		s-1.5-11.6-4.5-16.1c-3-4.6-7.2-8.1-12.7-10.5c-5.5-2.5-12-3.7-19.5-3.7h-38.7v80.4h27.1V523.2z M-1669.8,486.5
		c1.8,1.7,2.7,4,2.7,6.9c0,2.9-0.9,5.2-2.7,6.9c-1.8,1.7-4.6,2.5-8.3,2.5h-9.9v-18.8h9.9C-1674.4,483.9-1671.6,484.8-1669.8,486.5z"
		/>
	<path class="st9" d="M-1595.2,488.5c1.7-1.8,3.7-3.1,6.1-4c2.4-0.9,5.1-1.4,8.1-1.4c3.6,0,6.9,0.7,9.8,2.2c2.9,1.5,5.7,3.7,8.2,6.6
		l17.3-15.3c-4.1-5-9.2-8.8-15.5-11.5c-6.2-2.7-13.3-4-21.3-4c-6.7,0-12.8,1-18.3,3c-5.6,2-10.4,4.9-14.4,8.7
		c-4.1,3.8-7.2,8.2-9.4,13.3c-2.2,5.1-3.3,10.8-3.3,17c0,6.2,1.1,11.9,3.3,17c2.2,5.1,5.3,9.6,9.4,13.3c4,3.8,8.8,6.6,14.2,8.7
		c5.5,2,11.5,3,18,3c5.9,0,12-0.9,18.3-2.6c6.3-1.8,11.9-4.3,16.8-7.6v-34h-23.6v20.4c-0.3,0.1-0.6,0.2-0.9,0.4
		c-2.9,1-5.9,1.6-9,1.6c-2.9,0-5.5-0.5-7.9-1.4c-2.3-1-4.3-2.3-6-4.1c-1.7-1.8-3-3.9-3.9-6.4c-0.9-2.5-1.4-5.2-1.4-8.2
		c0-3.1,0.5-5.9,1.4-8.4C-1598.2,492.4-1596.9,490.3-1595.2,488.5z"/>
	<path class="st9" d="M-1507.1,529.4h30.6l5.4,14h28l-35.2-80.4h-26.7l-35.2,80.4h27.6L-1507.1,529.4z M-1499.6,509.9l7.8-20.3
		l7.8,20.3H-1499.6z"/>
	<polygon class="st9" points="-1407.3,506.9 -1376.8,543.4 -1354.5,543.4 -1354.5,463 -1380.9,463 -1380.9,499.6 -1411.5,463 
		-1433.8,463 -1433.8,543.4 -1407.3,543.4 	"/>
	<path class="st9" d="M-1233.8,538.6c6.8-3.3,12.1-7.9,16-13.9c3.8-6,5.7-13.2,5.7-21.5c0-8.3-1.9-15.4-5.7-21.4
		c-3.8-6-9.2-10.6-16-13.8c-6.8-3.3-14.7-4.9-23.7-4.9h-39.6v80.4h39.6C-1248.5,543.4-1240.6,541.8-1233.8,538.6z M-1269.9,522.3
		v-38.1h11.4c3.8,0,7.2,0.7,10.1,2.2c2.9,1.5,5.1,3.6,6.7,6.4c1.6,2.8,2.4,6.3,2.4,10.3c0,4.1-0.8,7.6-2.4,10.5
		c-1.6,2.9-3.8,5-6.7,6.5c-2.9,1.5-6.2,2.2-10.1,2.2H-1269.9z"/>
	<path class="st9" d="M-1122.6,473.1c-4.1-3.8-8.8-6.7-14.4-8.8c-5.5-2.1-11.6-3.1-18.2-3.1c-6.5,0-12.5,1-18.1,3.1
		c-5.6,2.1-10.4,5-14.4,8.8c-4.1,3.8-7.2,8.2-9.5,13.3c-2.3,5.1-3.4,10.7-3.4,16.8c0,6.1,1.1,11.6,3.4,16.8
		c2.3,5.1,5.4,9.6,9.5,13.4c4.1,3.8,8.9,6.7,14.4,8.8c5.6,2.1,11.6,3.1,18.2,3.1c6.5,0,12.5-1,18-3.1c5.5-2.1,10.3-5,14.4-8.8
		c4.1-3.8,7.2-8.3,9.5-13.4c2.3-5.1,3.4-10.7,3.4-16.8c0-6.1-1.1-11.7-3.4-16.8C-1115.3,481.3-1118.5,476.9-1122.6,473.1z
		 M-1138.4,511.7c-0.9,2.5-2.2,4.6-3.8,6.3c-1.6,1.7-3.6,3-5.7,4s-4.5,1.4-7.1,1.4s-4.9-0.5-7.1-1.4s-4.1-2.2-5.7-4
		c-1.6-1.7-2.9-3.8-3.8-6.3c-0.9-2.5-1.4-5.3-1.4-8.4c0-3.1,0.5-6,1.4-8.4c0.9-2.5,2.2-4.6,3.8-6.3c1.6-1.7,3.6-3,5.7-4
		s4.5-1.4,7.1-1.4s4.9,0.5,7.1,1.4s4.1,2.2,5.7,4c1.6,1.7,2.9,3.8,3.8,6.3c0.9,2.5,1.4,5.3,1.4,8.4
		C-1137,506.4-1137.5,509.2-1138.4,511.7z"/>
	<polygon class="st9" points="-1042,499.6 -1072.6,463 -1094.9,463 -1094.9,543.4 -1068.4,543.4 -1068.4,506.9 -1037.9,543.4 
		-1015.6,543.4 -1015.6,463 -1042,463 	"/>
	<path class="st9" d="M-971.1,463l-35.2,80.4h27.6l5.4-14h30.6l5.4,14h28l-35.2-80.4H-971.1z M-965.8,509.9l7.8-20.3l7.8,20.3
		H-965.8z"/>
	<polygon class="st9" points="-910.1,484 -886.6,484 -886.6,543.4 -859.5,543.4 -859.5,484 -835.9,484 -835.9,463 -910.1,463 	"/>
	<rect x="-824" y="463" class="st9" width="27.1" height="80.4"/>
	<path class="st9" d="M-704.2,473.1c-4.1-3.8-8.8-6.7-14.4-8.8c-5.5-2.1-11.6-3.1-18.2-3.1c-6.5,0-12.5,1-18.1,3.1
		c-5.6,2.1-10.4,5-14.4,8.8c-4.1,3.8-7.2,8.2-9.5,13.3c-2.3,5.1-3.4,10.7-3.4,16.8c0,6.1,1.1,11.6,3.4,16.8
		c2.3,5.1,5.4,9.6,9.5,13.4c4.1,3.8,8.9,6.7,14.4,8.8c5.6,2.1,11.6,3.1,18.2,3.1c6.5,0,12.5-1,18-3.1c5.5-2.1,10.3-5,14.4-8.8
		c4.1-3.8,7.2-8.3,9.5-13.4c2.3-5.1,3.4-10.7,3.4-16.8c0-6.1-1.1-11.7-3.4-16.8C-696.9,481.3-700.1,476.9-704.2,473.1z M-720,511.7
		c-0.9,2.5-2.2,4.6-3.8,6.3c-1.6,1.7-3.6,3-5.7,4s-4.5,1.4-7.1,1.4s-4.9-0.5-7.1-1.4s-4.1-2.2-5.7-4c-1.6-1.7-2.9-3.8-3.8-6.3
		c-0.9-2.5-1.4-5.3-1.4-8.4c0-3.1,0.5-6,1.4-8.4c0.9-2.5,2.2-4.6,3.8-6.3c1.6-1.7,3.6-3,5.7-4s4.5-1.4,7.1-1.4s4.9,0.5,7.1,1.4
		s4.1,2.2,5.7,4c1.6,1.7,2.9,3.8,3.8,6.3c0.9,2.5,1.4,5.3,1.4,8.4C-718.6,506.4-719.1,509.2-720,511.7z"/>
	<polygon class="st9" points="-623.6,463 -623.6,499.6 -654.2,463 -676.5,463 -676.5,543.4 -650.1,543.4 -650.1,506.9 -619.5,543.4 
		-597.2,543.4 -597.2,463 	"/>
	<path class="st9" d="M-1759.3,590.7c-5.5-2.5-12-3.7-19.5-3.7h-38.7v80.4h27.1v-19.8h11.6c7.5,0,14-1.2,19.5-3.7
		c5.5-2.5,9.7-6,12.7-10.5c3-4.5,4.5-9.9,4.5-16.1s-1.5-11.6-4.5-16.1C-1749.6,596.7-1753.8,593.1-1759.3,590.7z M-1772.1,624.2
		c-1.8,1.7-4.6,2.5-8.3,2.5h-9.9v-18.8h9.9c3.8,0,6.5,0.8,8.3,2.5c1.8,1.7,2.7,4,2.7,6.9C-1769.4,620.3-1770.3,622.6-1772.1,624.2z"
		/>
	<path class="st9" d="M-1657.4,633.4c3-4.5,4.5-9.8,4.5-16s-1.5-11.6-4.5-16.1c-3-4.6-7.2-8.1-12.7-10.5c-5.5-2.5-12-3.7-19.5-3.7
		h-38.7v80.4h27.1v-20.2h7.4l13.6,20.2h28.9l-16.9-24.7C-1663.6,640.4-1660,637.3-1657.4,633.4z M-1683,610.5c1.8,1.7,2.7,4,2.7,6.9
		c0,2.9-0.9,5.2-2.7,6.9c-1.8,1.7-4.6,2.5-8.3,2.5h-9.9v-18.8h9.9C-1687.6,607.9-1684.8,608.8-1683,610.5z"/>
	<path class="st9" d="M-1563.1,597.1c-4.1-3.8-8.8-6.7-14.4-8.8c-5.5-2.1-11.6-3.1-18.2-3.1c-6.5,0-12.5,1-18.1,3.1
		c-5.6,2.1-10.4,5-14.4,8.8c-4.1,3.8-7.2,8.2-9.5,13.3c-2.3,5.1-3.4,10.7-3.4,16.8c0,6.1,1.1,11.6,3.4,16.8
		c2.3,5.1,5.4,9.6,9.5,13.4c4.1,3.8,8.9,6.7,14.4,8.8c5.6,2.1,11.6,3.1,18.2,3.1c6.5,0,12.5-1,18-3.1s10.3-5,14.4-8.8
		c4.1-3.8,7.2-8.3,9.5-13.4c2.3-5.1,3.4-10.7,3.4-16.8c0-6.1-1.1-11.7-3.4-16.8C-1555.9,605.3-1559.1,600.9-1563.1,597.1z
		 M-1579,635.7c-0.9,2.5-2.2,4.6-3.8,6.3c-1.6,1.7-3.6,3-5.7,4s-4.5,1.4-7.1,1.4s-4.9-0.5-7.1-1.4c-2.2-0.9-4.1-2.2-5.7-4
		c-1.6-1.7-2.9-3.8-3.8-6.3c-0.9-2.5-1.4-5.3-1.4-8.4c0-3.1,0.5-6,1.4-8.4c0.9-2.5,2.2-4.6,3.8-6.3c1.6-1.7,3.6-3,5.7-4
		c2.2-0.9,4.5-1.4,7.1-1.4s4.9,0.5,7.1,1.4s4.1,2.2,5.7,4c1.6,1.7,2.9,3.8,3.8,6.3c0.9,2.5,1.4,5.3,1.4,8.4
		C-1577.6,630.4-1578.1,633.2-1579,635.7z"/>
	<polygon class="st9" points="-1542.7,608 -1519.1,608 -1519.1,667.4 -1492,667.4 -1492,608 -1468.5,608 -1468.5,587 -1542.7,587 	
		"/>
	<path class="st9" d="M-1383,597.1c-4.1-3.8-8.8-6.7-14.4-8.8c-5.5-2.1-11.6-3.1-18.2-3.1c-6.5,0-12.5,1-18.1,3.1
		c-5.6,2.1-10.4,5-14.4,8.8c-4.1,3.8-7.2,8.2-9.5,13.3c-2.3,5.1-3.4,10.7-3.4,16.8c0,6.1,1.1,11.6,3.4,16.8
		c2.3,5.1,5.4,9.6,9.5,13.4c4.1,3.8,8.9,6.7,14.4,8.8c5.6,2.1,11.6,3.1,18.2,3.1c6.5,0,12.5-1,18-3.1c5.5-2.1,10.3-5,14.4-8.8
		c4.1-3.8,7.2-8.3,9.5-13.4c2.3-5.1,3.4-10.7,3.4-16.8c0-6.1-1.1-11.7-3.4-16.8C-1375.8,605.3-1378.9,600.9-1383,597.1z
		 M-1398.8,635.7c-0.9,2.5-2.2,4.6-3.8,6.3c-1.6,1.7-3.6,3-5.7,4c-2.2,0.9-4.5,1.4-7.1,1.4s-4.9-0.5-7.1-1.4c-2.2-0.9-4.1-2.2-5.7-4
		c-1.6-1.7-2.9-3.8-3.8-6.3c-0.9-2.5-1.4-5.3-1.4-8.4c0-3.1,0.5-6,1.4-8.4c0.9-2.5,2.2-4.6,3.8-6.3c1.6-1.7,3.6-3,5.7-4
		c2.2-0.9,4.5-1.4,7.1-1.4s4.9,0.5,7.1,1.4c2.2,0.9,4.1,2.2,5.7,4c1.6,1.7,2.9,3.8,3.8,6.3c0.9,2.5,1.4,5.3,1.4,8.4
		C-1397.5,630.4-1397.9,633.2-1398.8,635.7z"/>
	<polygon class="st9" points="-1362.5,608 -1339,608 -1339,667.4 -1311.9,667.4 -1311.9,608 -1288.3,608 -1288.3,587 -1362.5,587 	
		"/>
	<polygon class="st9" points="-1226.7,587 -1243.3,614.9 -1259.7,587 -1288.3,587 -1258,637.9 -1258,667.4 -1230.9,667.4 
		-1230.9,638.3 -1200.6,587 	"/>
	<path class="st9" d="M-1134,590.7c-5.5-2.5-12-3.7-19.5-3.7h-38.7v80.4h27.1v-19.8h11.6c7.5,0,14-1.2,19.5-3.7
		c5.5-2.5,9.7-6,12.7-10.5c3-4.5,4.5-9.9,4.5-16.1s-1.5-11.6-4.5-16.1C-1124.3,596.7-1128.5,593.1-1134,590.7z M-1146.8,624.2
		c-1.8,1.7-4.6,2.5-8.3,2.5h-9.9v-18.8h9.9c3.8,0,6.5,0.8,8.3,2.5c1.8,1.7,2.7,4,2.7,6.9C-1144.1,620.3-1145.1,622.6-1146.8,624.2z"
		/>
	<polygon class="st9" points="-1076.4,636.4 -1042.4,636.4 -1042.4,616.9 -1076.4,616.9 -1076.4,607.5 -1037.7,607.5 -1037.7,587 
		-1103,587 -1103,667.4 -1036.2,667.4 -1036.2,647 -1076.4,647 	"/>
</g>
<g>
	<g>
		<g>
			<path class="st6" d="M-1921.5,493.3c0,0-26.8,24.8,0,54.8l-22.2,22.2c0,0-24.9,20.6-7.3,43.5l2.4,2.4l70.5-70.5
				c0,0,16-13.9,18.7-30.7c2.7-16.8,7.6-42-18.5-65.1c-26-23.1-58-15.3-58-15.3s-17,4.2-29,15.5c-12,11.3-54.6,54.4-54.6,54.4
				l-92.3,92.3l76.4,77.3c0,0,13.4,15.6,28.1,0.9c14.7-14.7,122-122.5,122-122.5"/>
			<g>
				<line class="st6" x1="-1986.3" y1="508.2" x2="-2042.8" y2="564.7"/>
				<line class="st6" x1="-1975" y1="533" x2="-2027.8" y2="585.8"/>
				<line class="st6" x1="-1955.4" y1="550.2" x2="-2013.4" y2="608.2"/>
			</g>
		</g>
		<path class="st0" d="M-1917,550.2"/>
		<path class="st0" d="M-1937.8,533"/>
		<path class="st7" d="M-2121.9,495.2c0,0,25.5,23.6,1.9,52.6c-1,1.3-1,3.1,0.2,4.3l20,20c0.1,0.1,0.1,0.1,0.2,0.2
			c1.6,1.4,24.1,21.3,7.4,43.3c-0.1,0.1-0.2,0.2-0.3,0.4l0,0c-1.2,1.2-3.3,1.2-4.5,0l-68.1-68.1c0,0-0.1-0.1-0.1-0.1
			c-1.1-1-16-14.4-18.6-30.6c-2.7-16.8-7.6-42,18.5-65.1s58-15.3,58-15.3s17,4.2,29,15.5c12,11.3,54.6,54.4,54.6,54.4l69.7,69.7
			c12.5,12.5,12.5,32.7,0.1,45.3l-53.9,54.6c0,0-0.1,0.1-0.1,0.1c-0.9,1-13.8,15-28,0.9c-14.7-14.7-122-122.5-122-122.5"/>
		<line class="st7" x1="-2057.1" y1="510.1" x2="-1997.3" y2="569.9"/>
		<line class="st7" x1="-2068.4" y1="534.9" x2="-2015.6" y2="587.8"/>
		<line class="st7" x1="-2087.9" y1="552.2" x2="-2030" y2="610.1"/>
		<path class="st8" d="M-1953.6,576.6l-3.2-3.2c-12.4-12.4-32.4-12.4-44.8,0l-16.6,16.8c-5.2,5.3-7.3,1.1-18-9.6l-5.5-5.5
			c-13.3-13.3-34.7-13.3-48,0v0c-13.3,13.3-13.3,34.7,0,48l55.5,55.5c6.4,6.4,16.8,6.4,23.3,0l22.9-22.9c0.1-0.1,0.2-0.2,0.2-0.3
			l34.1-34.1C-1941.2,609.1-1941.2,589-1953.6,576.6z"/>
	</g>
	<path class="st10" d="M-1921.3,547.9l-31.4,31.4c-11.1,11.1-10.9,29.2,0.4,40.5l0,0l51.4-51.4"/>
	<path class="st10" d="M-2116.7,555l31.4,31.4c11.1,11.1,10.9,29.2-0.4,40.5v0l-51.4-51.4"/>
</g>
<g>
	<g>
		<g>
			<path class="st6" d="M-1929.7,1806.9c0,0-26.8,24.8,0,54.8l-22.2,22.2c0,0-24.9,20.6-7.3,43.5l2.4,2.4l70.5-70.5
				c0,0,16-13.9,18.7-30.7c2.7-16.8,7.6-42-18.5-65.1c-26-23.1-58-15.3-58-15.3s-17,4.2-29,15.5c-12,11.3-54.6,54.4-54.6,54.4
				l-92.3,92.3l76.4,77.3c0,0,13.4,15.6,28.1,0.9c14.7-14.7,122-122.5,122-122.5"/>
			<g>
				<line class="st6" x1="-1994.5" y1="1821.8" x2="-2051" y2="1878.3"/>
				<line class="st6" x1="-1983.1" y1="1846.6" x2="-2036" y2="1899.5"/>
				<line class="st6" x1="-1963.6" y1="1863.9" x2="-2021.6" y2="1921.8"/>
			</g>
		</g>
		<path class="st0" d="M-1925.1,1863.9"/>
		<path class="st0" d="M-1945.9,1846.6"/>
		<path class="st7" d="M-2130,1808.9c0,0,25.5,23.6,1.9,52.6c-1,1.3-1,3.1,0.2,4.3l20,20c0.1,0.1,0.1,0.1,0.2,0.2
			c1.6,1.4,24.1,21.3,7.4,43.3c-0.1,0.1-0.2,0.2-0.3,0.4l0,0c-1.2,1.2-3.3,1.2-4.5,0l-68.1-68.1c0,0-0.1-0.1-0.1-0.1
			c-1.1-1-16-14.4-18.6-30.6c-2.7-16.8-7.6-42,18.5-65.1c26-23.1,58-15.3,58-15.3s17,4.2,29,15.5c12,11.3,54.6,54.4,54.6,54.4
			l69.7,69.7c12.5,12.5,12.5,32.7,0.1,45.3l-53.9,54.6c0,0-0.1,0.1-0.1,0.1c-0.9,1-13.8,15-28,0.9c-14.7-14.7-122-122.5-122-122.5"
			/>
		<line class="st7" x1="-2065.2" y1="1823.8" x2="-2005.5" y2="1883.5"/>
		<line class="st7" x1="-2076.6" y1="1848.6" x2="-2023.8" y2="1901.4"/>
		<line class="st7" x1="-2096.1" y1="1865.8" x2="-2038.1" y2="1923.8"/>
		<path class="st8" d="M-1961.8,1890.3l-3.2-3.2c-12.4-12.4-32.4-12.4-44.8,0l-16.6,16.8c-5.2,5.3-7.3,1.1-18-9.6l-5.5-5.5
			c-13.3-13.3-34.7-13.3-48,0l0,0c-13.3,13.3-13.3,34.7,0,48l55.5,55.5c6.4,6.4,16.8,6.4,23.3,0l22.9-22.9c0.1-0.1,0.2-0.2,0.2-0.3
			l34.1-34.1C-1949.4,1922.7-1949.4,1902.7-1961.8,1890.3z"/>
	</g>
	<path class="st10" d="M-1929.5,1861.5l-31.4,31.4c-11.1,11.1-10.9,29.2,0.4,40.5l0,0l51.4-51.4"/>
	<path class="st10" d="M-2124.8,1868.7l31.4,31.4c11.1,11.1,10.9,29.2-0.4,40.5l0,0l-51.4-51.4"/>
</g>
<g>
	
		<text transform="matrix(1.0061 0 0 1 -1821.2646 1841.8496)" class="st9" style="font-family:'Montserrat-Black'; font-size:110.2722px; letter-spacing:5;">ORGAN DONATION</text>
	
		<text transform="matrix(1.0061 0 0 1 -1821.2646 1967.5859)" class="st9" style="font-family:'Montserrat-Black'; font-size:110.2722px; letter-spacing:5;">PLATFORM</text>
</g>
<g>
	<g>
		<g>
			<path class="st6" d="M-1925.3,3107.8c0,0-26.8,24.8,0,54.8l-22.2,22.2c0,0-24.9,20.6-7.3,43.5l2.4,2.4l70.5-70.5
				c0,0,16-13.9,18.7-30.7s7.6-42-18.5-65.1c-26-23.1-58-15.3-58-15.3s-17,4.2-29,15.5c-12,11.3-54.6,54.4-54.6,54.4l-92.3,92.3
				l76.4,77.3c0,0,13.4,15.6,28.1,0.9s122-122.5,122-122.5"/>
			<g>
				<line class="st6" x1="-1990.1" y1="3122.7" x2="-2046.6" y2="3179.2"/>
				<line class="st6" x1="-1978.8" y1="3147.5" x2="-2031.6" y2="3200.3"/>
				<line class="st6" x1="-1959.2" y1="3164.7" x2="-2017.2" y2="3222.7"/>
			</g>
		</g>
		<path class="st0" d="M-1920.8,3164.7"/>
		<path class="st0" d="M-1941.6,3147.5"/>
		<path class="st7" d="M-2125.7,3109.7c0,0,25.5,23.6,1.9,52.6c-1,1.3-1,3.1,0.2,4.3l20,20c0.1,0.1,0.1,0.1,0.2,0.2
			c1.6,1.4,24.1,21.3,7.4,43.3c-0.1,0.1-0.2,0.2-0.3,0.4l0,0c-1.2,1.2-3.3,1.2-4.5,0l-68.1-68.1c0,0-0.1-0.1-0.1-0.1
			c-1.1-1-16-14.4-18.6-30.6c-2.7-16.8-7.6-42,18.5-65.1c26-23.1,58-15.3,58-15.3s17,4.2,29,15.5s54.6,54.4,54.6,54.4l69.7,69.7
			c12.5,12.5,12.5,32.7,0.1,45.3l-53.9,54.6c0,0-0.1,0.1-0.1,0.1c-0.9,1-13.8,15-28,0.9c-14.7-14.7-122-122.5-122-122.5"/>
		<line class="st7" x1="-2060.9" y1="3124.7" x2="-2001.1" y2="3184.4"/>
		<line class="st7" x1="-2072.2" y1="3149.4" x2="-2019.4" y2="3202.3"/>
		<line class="st7" x1="-2091.7" y1="3166.7" x2="-2033.8" y2="3224.6"/>
		<path class="st8" d="M-1957.4,3191.1l-3.2-3.2c-12.4-12.4-32.4-12.4-44.8,0l-16.6,16.8c-5.2,5.3-7.3,1.1-18-9.6l-5.5-5.5
			c-13.3-13.3-34.7-13.3-48,0l0,0c-13.3,13.3-13.3,34.7,0,48l55.5,55.5c6.4,6.4,16.8,6.4,23.3,0l22.9-22.9c0.1-0.1,0.2-0.2,0.2-0.3
			l34.1-34.1C-1945,3223.6-1945,3203.5-1957.4,3191.1z"/>
	</g>
	<path class="st10" d="M-1925.1,3162.4l-31.4,31.4c-11.1,11.1-10.9,29.2,0.4,40.5l0,0l51.4-51.4"/>
	<path class="st10" d="M-2120.5,3169.5l31.4,31.4c11.1,11.1,10.9,29.2-0.4,40.5l0,0l-51.4-51.4"/>
</g>
<g>
	<g>
		<path class="st6" d="M-3576.9,1845.8c0,0-26.6,24.7,0,54.5l-22.1,22.1c0,0-24.8,20.5-7.3,43.3l2.4,2.4l70.1-70.1
			c0,0,15.9-13.8,18.6-30.5c2.7-16.7,7.5-41.8-18.4-64.8s-57.7-15.3-57.7-15.3s-16.9,4.2-28.8,15.5c-11.9,11.3-54.3,54.1-54.3,54.1
			l-91.8,91.8l76,76.9c0,0,13.3,15.5,27.9,0.9c14.6-14.6,121.4-121.8,121.4-121.8"/>
		<g>
			<line class="st6" x1="-3641.4" y1="1860.7" x2="-3697.6" y2="1916.9"/>
			<line class="st6" x1="-3630.1" y1="1885.3" x2="-3682.6" y2="1937.9"/>
			<line class="st6" x1="-3610.7" y1="1902.5" x2="-3668.3" y2="1960.1"/>
		</g>
	</g>
	<path class="st0" d="M-3572.4,1902.5"/>
	<path class="st0" d="M-3593.1,1885.3"/>
	<path class="st7" d="M-3776.2,1847.8c0,0,25.3,23.5,1.9,52.3c-1,1.3-1,3.1,0.2,4.3l19.9,19.9c0.1,0.1,0.1,0.1,0.2,0.2
		c1.6,1.4,24,21.1,7.3,43c-0.1,0.1-0.2,0.2-0.3,0.4l0,0c-1.2,1.2-3.2,1.2-4.5,0l-67.8-67.8c0,0-0.1-0.1-0.1-0.1
		c-1.1-1-15.9-14.4-18.5-30.4c-2.7-16.7-7.5-41.8,18.4-64.8s57.7-15.3,57.7-15.3s16.9,4.2,28.8,15.5c11.9,11.3,54.3,54.1,54.3,54.1
		l69.4,69.4c12.4,12.4,12.5,32.5,0.1,45l-53.6,54.3c0,0-0.1,0.1-0.1,0.1c-0.9,1-13.8,15-27.9,0.8
		c-14.6-14.6-121.4-121.8-121.4-121.8"/>
	<line class="st7" x1="-3711.8" y1="1862.6" x2="-3652.3" y2="1922"/>
	<line class="st7" x1="-3723" y1="1887.3" x2="-3670.5" y2="1939.8"/>
	<line class="st7" x1="-3742.5" y1="1904.4" x2="-3684.8" y2="1962"/>
	<path class="st8" d="M-3608.8,1928.7l-3.1-3.1c-12.3-12.3-32.3-12.3-44.6,0l-16.5,16.8c-5.2,5.3-7.2,1.1-17.9-9.6l-5.5-5.5
		c-13.2-13.2-34.6-13.2-47.7,0l0,0c-13.2,13.2-13.2,34.6,0,47.7l55.2,55.2c6.4,6.4,16.7,6.4,23.1,0l22.7-22.7
		c0.1-0.1,0.2-0.2,0.2-0.3l34-34C-3596.5,1961-3596.5,1941.1-3608.8,1928.7z"/>
</g>
<g>
	<path class="st11" d="M-4618.3,4809.3c-4.1-3.8-8.8-6.7-14.4-8.8c-5.5-2.1-11.6-3.1-18.2-3.1c-6.5,0-12.5,1-18.1,3.1
		c-5.6,2.1-10.4,5-14.4,8.8c-4.1,3.8-7.2,8.2-9.5,13.3c-2.3,5.1-3.4,10.7-3.4,16.8c0,6.1,1.1,11.6,3.4,16.8
		c2.3,5.1,5.4,9.6,9.5,13.4c4.1,3.8,8.9,6.7,14.4,8.8c5.6,2.1,11.6,3.1,18.2,3.1c6.5,0,12.5-1,18-3.1s10.3-5,14.4-8.8
		c4.1-3.8,7.2-8.3,9.5-13.4c2.3-5.1,3.4-10.7,3.4-16.8c0-6.1-1.1-11.7-3.4-16.8C-4611.1,4817.5-4614.2,4813.1-4618.3,4809.3z
		 M-4634.1,4847.9c-0.9,2.5-2.2,4.6-3.8,6.3c-1.6,1.7-3.6,3-5.7,4s-4.5,1.4-7.1,1.4s-4.9-0.5-7.1-1.4c-2.2-0.9-4.1-2.2-5.7-4
		c-1.6-1.7-2.9-3.8-3.8-6.3c-0.9-2.5-1.4-5.3-1.4-8.4c0-3.1,0.5-6,1.4-8.4c0.9-2.5,2.2-4.6,3.8-6.3c1.6-1.7,3.6-3,5.7-4
		c2.2-0.9,4.5-1.4,7.1-1.4s4.9,0.5,7.1,1.4s4.1,2.2,5.7,4c1.6,1.7,2.9,3.8,3.8,6.3c0.9,2.5,1.4,5.3,1.4,8.4
		C-4632.7,4842.6-4633.2,4845.4-4634.1,4847.9z"/>
	<path class="st11" d="M-4563.5,4859.4h7.4l13.6,20.2h28.9l-16.9-24.7c4.5-2.3,8.1-5.4,10.7-9.3c3-4.5,4.5-9.8,4.5-16
		s-1.5-11.6-4.5-16.1c-3-4.6-7.2-8.1-12.7-10.5c-5.5-2.5-12-3.7-19.5-3.7h-38.7v80.4h27.1V4859.4z M-4545.3,4822.7
		c1.8,1.7,2.7,4,2.7,6.9c0,2.9-0.9,5.2-2.7,6.9c-1.8,1.7-4.6,2.5-8.3,2.5h-9.9v-18.8h9.9C-4549.8,4820.2-4547.1,4821-4545.3,4822.7z
		"/>
	<path class="st11" d="M-4470.6,4824.8c1.7-1.8,3.7-3.1,6.1-4c2.4-0.9,5.1-1.4,8.1-1.4c3.6,0,6.9,0.7,9.8,2.2
		c2.9,1.5,5.7,3.7,8.2,6.6l17.3-15.3c-4.1-5-9.2-8.8-15.5-11.5c-6.2-2.7-13.3-4-21.3-4c-6.7,0-12.8,1-18.3,3
		c-5.6,2-10.4,4.9-14.4,8.7c-4.1,3.8-7.2,8.2-9.4,13.3c-2.2,5.1-3.3,10.8-3.3,17c0,6.2,1.1,11.9,3.3,17c2.2,5.1,5.3,9.6,9.4,13.3
		c4,3.8,8.8,6.6,14.2,8.7c5.5,2,11.5,3,18,3c5.9,0,12-0.9,18.3-2.6c6.3-1.8,11.9-4.3,16.8-7.6v-34h-23.6v20.4
		c-0.3,0.1-0.6,0.2-0.9,0.4c-2.9,1-5.9,1.6-9,1.6c-2.9,0-5.5-0.5-7.9-1.4c-2.3-1-4.3-2.3-6-4.1c-1.7-1.8-3-3.9-3.9-6.4
		c-0.9-2.5-1.4-5.2-1.4-8.2c0-3.1,0.5-5.9,1.4-8.4C-4473.6,4828.6-4472.3,4826.5-4470.6,4824.8z"/>
	<path class="st11" d="M-4382.5,4865.7h30.6l5.4,14h28l-35.2-80.4h-26.7l-35.2,80.4h27.6L-4382.5,4865.7z M-4375,4846.1l7.8-20.3
		l7.8,20.3H-4375z"/>
	<polygon class="st11" points="-4282.8,4843.1 -4252.3,4879.7 -4230,4879.7 -4230,4799.3 -4256.4,4799.3 -4256.4,4835.8 
		-4287,4799.3 -4309.2,4799.3 -4309.2,4879.7 -4282.8,4879.7 	"/>
	<path class="st11" d="M-4109.2,4874.8c6.8-3.3,12.1-7.9,16-13.9c3.8-6,5.7-13.2,5.7-21.5c0-8.3-1.9-15.4-5.7-21.4
		c-3.8-6-9.2-10.6-16-13.8c-6.8-3.3-14.7-4.9-23.7-4.9h-39.6v80.4h39.6C-4123.9,4879.7-4116.1,4878-4109.2,4874.8z M-4145.4,4858.5
		v-38.1h11.4c3.8,0,7.2,0.7,10.1,2.2c2.9,1.5,5.1,3.6,6.7,6.4c1.6,2.8,2.4,6.3,2.4,10.3c0,4.1-0.8,7.6-2.4,10.5s-3.8,5-6.7,6.5
		c-2.9,1.5-6.2,2.2-10.1,2.2H-4145.4z"/>
	<path class="st11" d="M-3998,4809.3c-4.1-3.8-8.8-6.7-14.4-8.8c-5.5-2.1-11.6-3.1-18.2-3.1c-6.5,0-12.5,1-18.1,3.1
		c-5.6,2.1-10.4,5-14.4,8.8c-4.1,3.8-7.2,8.2-9.5,13.3c-2.3,5.1-3.4,10.7-3.4,16.8c0,6.1,1.1,11.6,3.4,16.8
		c2.3,5.1,5.4,9.6,9.5,13.4c4.1,3.8,8.9,6.7,14.4,8.8c5.6,2.1,11.6,3.1,18.2,3.1c6.5,0,12.5-1,18-3.1c5.5-2.1,10.3-5,14.4-8.8
		c4.1-3.8,7.2-8.3,9.5-13.4c2.3-5.1,3.4-10.7,3.4-16.8c0-6.1-1.1-11.7-3.4-16.8C-3990.8,4817.5-3994,4813.1-3998,4809.3z
		 M-4013.9,4847.9c-0.9,2.5-2.2,4.6-3.8,6.3c-1.6,1.7-3.6,3-5.7,4s-4.5,1.4-7.1,1.4s-4.9-0.5-7.1-1.4s-4.1-2.2-5.7-4
		c-1.6-1.7-2.9-3.8-3.8-6.3c-0.9-2.5-1.4-5.3-1.4-8.4c0-3.1,0.5-6,1.4-8.4c0.9-2.5,2.2-4.6,3.8-6.3c1.6-1.7,3.6-3,5.7-4
		s4.5-1.4,7.1-1.4s4.9,0.5,7.1,1.4s4.1,2.2,5.7,4c1.6,1.7,2.9,3.8,3.8,6.3c0.9,2.5,1.4,5.3,1.4,8.4
		C-4012.5,4842.6-4013,4845.4-4013.9,4847.9z"/>
	<polygon class="st11" points="-3917.5,4835.8 -3948.1,4799.3 -3970.4,4799.3 -3970.4,4879.7 -3943.9,4879.7 -3943.9,4843.1 
		-3913.4,4879.7 -3891.1,4879.7 -3891.1,4799.3 -3917.5,4799.3 	"/>
	<path class="st11" d="M-3846.6,4799.3l-35.2,80.4h27.6l5.4-14h30.6l5.4,14h28l-35.2-80.4H-3846.6z M-3841.3,4846.1l7.8-20.3
		l7.8,20.3H-3841.3z"/>
	<polygon class="st11" points="-3785.6,4820.3 -3762.1,4820.3 -3762.1,4879.7 -3735,4879.7 -3735,4820.3 -3711.4,4820.3 
		-3711.4,4799.3 -3785.6,4799.3 	"/>
	<rect x="-3699.5" y="4799.3" class="st11" width="27.1" height="80.4"/>
	<path class="st11" d="M-3579.6,4809.3c-4.1-3.8-8.8-6.7-14.4-8.8c-5.5-2.1-11.6-3.1-18.2-3.1c-6.5,0-12.5,1-18.1,3.1
		c-5.6,2.1-10.4,5-14.4,8.8c-4.1,3.8-7.2,8.2-9.5,13.3c-2.3,5.1-3.4,10.7-3.4,16.8c0,6.1,1.1,11.6,3.4,16.8
		c2.3,5.1,5.4,9.6,9.5,13.4c4.1,3.8,8.9,6.7,14.4,8.8c5.6,2.1,11.6,3.1,18.2,3.1c6.5,0,12.5-1,18-3.1c5.5-2.1,10.3-5,14.4-8.8
		c4.1-3.8,7.2-8.3,9.5-13.4c2.3-5.1,3.4-10.7,3.4-16.8c0-6.1-1.1-11.7-3.4-16.8C-3572.4,4817.5-3575.6,4813.1-3579.6,4809.3z
		 M-3595.5,4847.9c-0.9,2.5-2.2,4.6-3.8,6.3c-1.6,1.7-3.6,3-5.7,4s-4.5,1.4-7.1,1.4s-4.9-0.5-7.1-1.4s-4.1-2.2-5.7-4
		c-1.6-1.7-2.9-3.8-3.8-6.3c-0.9-2.5-1.4-5.3-1.4-8.4c0-3.1,0.5-6,1.4-8.4c0.9-2.5,2.2-4.6,3.8-6.3c1.6-1.7,3.6-3,5.7-4
		s4.5-1.4,7.1-1.4s4.9,0.5,7.1,1.4s4.1,2.2,5.7,4c1.6,1.7,2.9,3.8,3.8,6.3c0.9,2.5,1.4,5.3,1.4,8.4
		C-3594.1,4842.6-3594.6,4845.4-3595.5,4847.9z"/>
	<polygon class="st11" points="-3499.1,4799.3 -3499.1,4835.8 -3529.7,4799.3 -3552,4799.3 -3552,4879.7 -3525.5,4879.7 
		-3525.5,4843.1 -3495,4879.7 -3472.7,4879.7 -3472.7,4799.3 	"/>
	<path class="st11" d="M-4634.8,4926.9c-5.5-2.5-12-3.7-19.5-3.7h-38.7v80.4h27.1v-19.8h11.6c7.5,0,14-1.2,19.5-3.7
		c5.5-2.5,9.7-6,12.7-10.5c3-4.5,4.5-9.9,4.5-16.1s-1.5-11.6-4.5-16.1C-4625,4932.9-4629.3,4929.4-4634.8,4926.9z M-4647.6,4960.5
		c-1.8,1.7-4.6,2.5-8.3,2.5h-9.9v-18.8h9.9c3.8,0,6.5,0.8,8.3,2.5c1.8,1.7,2.7,4,2.7,6.9
		C-4644.9,4956.5-4645.8,4958.8-4647.6,4960.5z"/>
	<path class="st11" d="M-4532.9,4969.6c3-4.5,4.5-9.8,4.5-16s-1.5-11.6-4.5-16.1c-3-4.6-7.2-8.1-12.7-10.5c-5.5-2.5-12-3.7-19.5-3.7
		h-38.7v80.4h27.1v-20.2h7.4l13.6,20.2h28.9l-16.9-24.7C-4539.1,4976.6-4535.5,4973.5-4532.9,4969.6z M-4558.5,4946.7
		c1.8,1.7,2.7,4,2.7,6.9c0,2.9-0.9,5.2-2.7,6.9c-1.8,1.7-4.6,2.5-8.3,2.5h-9.9v-18.8h9.9C-4563.1,4944.2-4560.3,4945-4558.5,4946.7z
		"/>
	<path class="st11" d="M-4438.6,4933.3c-4.1-3.8-8.8-6.7-14.4-8.8c-5.5-2.1-11.6-3.1-18.2-3.1c-6.5,0-12.5,1-18.1,3.1
		c-5.6,2.1-10.4,5-14.4,8.8c-4.1,3.8-7.2,8.2-9.5,13.3c-2.3,5.1-3.4,10.7-3.4,16.8c0,6.1,1.1,11.6,3.4,16.8
		c2.3,5.1,5.4,9.6,9.5,13.4c4.1,3.8,8.9,6.7,14.4,8.8c5.6,2.1,11.6,3.1,18.2,3.1c6.5,0,12.5-1,18-3.1s10.3-5,14.4-8.8
		c4.1-3.8,7.2-8.3,9.5-13.4c2.3-5.1,3.4-10.7,3.4-16.8c0-6.1-1.1-11.7-3.4-16.8C-4431.4,4941.5-4434.5,4937.1-4438.6,4933.3z
		 M-4454.5,4971.9c-0.9,2.5-2.2,4.6-3.8,6.3c-1.6,1.7-3.6,3-5.7,4s-4.5,1.4-7.1,1.4s-4.9-0.5-7.1-1.4c-2.2-0.9-4.1-2.2-5.7-4
		c-1.6-1.7-2.9-3.8-3.8-6.3c-0.9-2.5-1.4-5.3-1.4-8.4c0-3.1,0.5-6,1.4-8.4c0.9-2.5,2.2-4.6,3.8-6.3c1.6-1.7,3.6-3,5.7-4
		c2.2-0.9,4.5-1.4,7.1-1.4s4.9,0.5,7.1,1.4s4.1,2.2,5.7,4c1.6,1.7,2.9,3.8,3.8,6.3c0.9,2.5,1.4,5.3,1.4,8.4
		C-4453.1,4966.6-4453.5,4969.4-4454.5,4971.9z"/>
	<polygon class="st11" points="-4418.1,4944.3 -4394.6,4944.3 -4394.6,5003.7 -4367.5,5003.7 -4367.5,4944.3 -4343.9,4944.3 
		-4343.9,4923.3 -4418.1,4923.3 	"/>
	<path class="st11" d="M-4258.5,4933.3c-4.1-3.8-8.8-6.7-14.4-8.8c-5.5-2.1-11.6-3.1-18.2-3.1c-6.5,0-12.5,1-18.1,3.1
		c-5.6,2.1-10.4,5-14.4,8.8c-4.1,3.8-7.2,8.2-9.5,13.3c-2.3,5.1-3.4,10.7-3.4,16.8c0,6.1,1.1,11.6,3.4,16.8
		c2.3,5.1,5.4,9.6,9.5,13.4c4.1,3.8,8.9,6.7,14.4,8.8c5.6,2.1,11.6,3.1,18.2,3.1c6.5,0,12.5-1,18-3.1c5.5-2.1,10.3-5,14.4-8.8
		c4.1-3.8,7.2-8.3,9.5-13.4c2.3-5.1,3.4-10.7,3.4-16.8c0-6.1-1.1-11.7-3.4-16.8C-4251.2,4941.5-4254.4,4937.1-4258.5,4933.3z
		 M-4274.3,4971.9c-0.9,2.5-2.2,4.6-3.8,6.3c-1.6,1.7-3.6,3-5.7,4c-2.2,0.9-4.5,1.4-7.1,1.4s-4.9-0.5-7.1-1.4
		c-2.2-0.9-4.1-2.2-5.7-4c-1.6-1.7-2.9-3.8-3.8-6.3c-0.9-2.5-1.4-5.3-1.4-8.4c0-3.1,0.5-6,1.4-8.4c0.9-2.5,2.2-4.6,3.8-6.3
		c1.6-1.7,3.6-3,5.7-4c2.2-0.9,4.5-1.4,7.1-1.4s4.9,0.5,7.1,1.4c2.2,0.9,4.1,2.2,5.7,4c1.6,1.7,2.9,3.8,3.8,6.3
		c0.9,2.5,1.4,5.3,1.4,8.4C-4272.9,4966.6-4273.4,4969.4-4274.3,4971.9z"/>
	<polygon class="st11" points="-4238,4944.3 -4214.5,4944.3 -4214.5,5003.7 -4187.4,5003.7 -4187.4,4944.3 -4163.8,4944.3 
		-4163.8,4923.3 -4238,4923.3 	"/>
	<polygon class="st11" points="-4102.2,4923.3 -4118.8,4951.1 -4135.2,4923.3 -4163.8,4923.3 -4133.5,4974.2 -4133.5,5003.7 
		-4106.4,5003.7 -4106.4,4974.5 -4076,4923.3 	"/>
	<path class="st11" d="M-4009.5,4926.9c-5.5-2.5-12-3.7-19.5-3.7h-38.7v80.4h27.1v-19.8h11.6c7.5,0,14-1.2,19.5-3.7
		c5.5-2.5,9.7-6,12.7-10.5c3-4.5,4.5-9.9,4.5-16.1s-1.5-11.6-4.5-16.1C-3999.8,4932.9-4004,4929.4-4009.5,4926.9z M-4022.3,4960.5
		c-1.8,1.7-4.6,2.5-8.3,2.5h-9.9v-18.8h9.9c3.8,0,6.5,0.8,8.3,2.5c1.8,1.7,2.7,4,2.7,6.9
		C-4019.6,4956.5-4020.5,4958.8-4022.3,4960.5z"/>
	<polygon class="st11" points="-3951.9,4972.6 -3917.8,4972.6 -3917.8,4953.1 -3951.9,4953.1 -3951.9,4943.7 -3913.1,4943.7 
		-3913.1,4923.3 -3978.5,4923.3 -3978.5,5003.7 -3911.6,5003.7 -3911.6,4983.2 -3951.9,4983.2 	"/>
</g>
<g>
	<path class="st12" d="M-1743.6,3085.3c-3.9-3.7-8.6-6.6-14-8.6c-5.4-2-11.2-3-17.6-3c-6.3,0-12.2,1-17.6,3c-5.4,2-10.1,4.9-14,8.6
		c-3.9,3.7-7,8.1-9.2,13.1c-2.2,5-3.3,10.5-3.3,16.5c0,5.9,1.1,11.4,3.3,16.5c2.2,5,5.3,9.4,9.2,13.1c3.9,3.7,8.6,6.6,14,8.6
		c5.4,2,11.3,3,17.7,3c6.3,0,12.2-1,17.5-3c5.4-2,10-4.9,14-8.6c3.9-3.7,7-8.1,9.2-13.1c2.2-5,3.3-10.5,3.3-16.5
		c0-6-1.1-11.5-3.3-16.5C-1736.6,3093.4-1739.7,3089-1743.6,3085.3z M-1759,3123.2c-0.9,2.4-2.1,4.5-3.7,6.2c-1.6,1.7-3.5,3-5.6,3.9
		c-2.1,0.9-4.4,1.4-6.9,1.4c-2.5,0-4.7-0.5-6.9-1.4c-2.1-0.9-4-2.2-5.6-3.9c-1.6-1.7-2.8-3.8-3.7-6.2c-0.9-2.4-1.3-5.2-1.3-8.3
		c0-3.1,0.4-5.8,1.3-8.3c0.9-2.4,2.1-4.5,3.7-6.2c1.6-1.7,3.5-3,5.6-3.9c2.1-0.9,4.4-1.4,6.9-1.4c2.5,0,4.7,0.5,6.9,1.4
		c2.1,0.9,4,2.2,5.6,3.9c1.6,1.7,2.8,3.8,3.7,6.2c0.9,2.4,1.3,5.2,1.3,8.3C-1757.7,3118-1758.1,3120.7-1759,3123.2z"/>
	<path class="st12" d="M-1687.9,3134.5h7.2l13.3,19.8h28.2l-16.4-24.3c4.4-2.3,7.8-5.3,10.4-9.2c2.9-4.4,4.4-9.6,4.4-15.7
		s-1.5-11.4-4.4-15.8c-2.9-4.5-7-7.9-12.3-10.3c-5.3-2.4-11.6-3.6-18.9-3.6h-37.6v78.9h26.4V3134.5z M-1670.2,3098.4
		c1.7,1.7,2.6,3.9,2.6,6.8c0,2.9-0.9,5.1-2.6,6.8c-1.8,1.7-4.5,2.5-8.1,2.5h-9.6v-18.5h9.6
		C-1674.6,3095.9-1671.9,3096.8-1670.2,3098.4z"/>
	<path class="st12" d="M-1614.5,3144.6c3.9,3.7,8.5,6.5,13.9,8.5c5.3,2,11.2,3,17.5,3c5.7,0,11.7-0.9,17.8-2.6
		c6.1-1.7,11.5-4.2,16.3-7.4v-33.4h-22.9v20c-0.3,0.1-0.6,0.2-0.9,0.3c-2.8,1-5.7,1.5-8.7,1.5c-2.8,0-5.4-0.5-7.7-1.4
		c-2.3-0.9-4.2-2.3-5.9-4c-1.6-1.7-2.9-3.8-3.8-6.3c-0.9-2.4-1.3-5.1-1.3-8.1c0-3.1,0.4-5.8,1.3-8.2c0.9-2.4,2.2-4.5,3.8-6.2
		c1.6-1.7,3.6-3,6-3.9c2.3-0.9,5-1.4,7.9-1.4c3.5,0,6.7,0.7,9.6,2.2c2.9,1.5,5.5,3.6,8,6.5l16.9-15c-3.9-4.9-9-8.6-15-11.3
		c-6.1-2.6-13-3.9-20.7-3.9c-6.5,0-12.4,1-17.8,3c-5.4,2-10.1,4.8-14,8.5c-3.9,3.7-7,8-9.2,13.1c-2.2,5-3.2,10.6-3.2,16.7
		c0,6.1,1.1,11.6,3.2,16.7C-1621.5,3136.6-1618.4,3141-1614.5,3144.6z"/>
	<path class="st12" d="M-1444.8,3154.3l-34.2-78.9h-25.9l-34.2,78.9h26.8l5.2-13.8h29.7l5.2,13.8H-1444.8z M-1499.7,3121.4l7.6-19.9
		l7.6,19.9H-1499.7z"/>
	<polygon class="st12" points="-1407.6,3118.5 -1377.9,3154.3 -1356.2,3154.3 -1356.2,3075.4 -1381.9,3075.4 -1381.9,3111.3 
		-1411.6,3075.4 -1433.3,3075.4 -1433.3,3154.3 -1407.6,3154.3 	"/>
	<path class="st12" d="M-1233.9,3149.5c6.6-3.2,11.8-7.7,15.5-13.6c3.7-5.9,5.6-12.9,5.6-21.1c0-8.1-1.9-15.1-5.6-21
		c-3.7-5.9-8.9-10.4-15.5-13.6c-6.6-3.2-14.3-4.8-23-4.8h-38.5v78.9h38.5C-1248.2,3154.3-1240.5,3152.7-1233.9,3149.5z
		 M-1269.1,3133.6v-37.4h11.1c3.7,0,7,0.7,9.8,2.1c2.8,1.4,5,3.5,6.5,6.3c1.6,2.8,2.3,6.2,2.3,10.1c0,4.1-0.8,7.5-2.3,10.3
		c-1.6,2.8-3.7,4.9-6.5,6.4c-2.8,1.4-6.1,2.1-9.8,2.1H-1269.1z"/>
	<path class="st12" d="M-1186.5,3144.5c3.9,3.7,8.6,6.6,14,8.6c5.4,2,11.3,3,17.7,3c6.3,0,12.2-1,17.5-3c5.4-2,10-4.9,14-8.6
		c3.9-3.7,7-8.1,9.2-13.1c2.2-5,3.3-10.5,3.3-16.5c0-6-1.1-11.5-3.3-16.5c-2.2-5-5.3-9.4-9.2-13.1c-3.9-3.7-8.6-6.6-14-8.6
		c-5.4-2-11.2-3-17.6-3c-6.3,0-12.2,1-17.6,3c-5.4,2-10.1,4.9-14,8.6c-3.9,3.7-7,8.1-9.2,13.1c-2.2,5-3.3,10.5-3.3,16.5
		c0,5.9,1.1,11.4,3.3,16.5C-1193.6,3136.4-1190.5,3140.7-1186.5,3144.5z M-1171.1,3106.6c0.9-2.4,2.1-4.5,3.7-6.2
		c1.6-1.7,3.5-3,5.6-3.9c2.1-0.9,4.4-1.4,6.9-1.4c2.5,0,4.7,0.5,6.9,1.4c2.1,0.9,4,2.2,5.6,3.9c1.6,1.7,2.8,3.8,3.7,6.2
		c0.9,2.4,1.3,5.2,1.3,8.3c0,3.1-0.4,5.8-1.3,8.3c-0.9,2.4-2.1,4.5-3.7,6.2c-1.6,1.7-3.5,3-5.6,3.9c-2.1,0.9-4.4,1.4-6.9,1.4
		c-2.5,0-4.7-0.5-6.9-1.4c-2.1-0.9-4-2.2-5.6-3.9c-1.6-1.7-2.8-3.8-3.7-6.2c-0.9-2.4-1.3-5.2-1.3-8.3
		C-1172.5,3111.8-1172,3109-1171.1,3106.6z"/>
	<polygon class="st12" points="-1042.5,3111.3 -1072.3,3075.4 -1093.9,3075.4 -1093.9,3154.3 -1068.2,3154.3 -1068.2,3118.5 
		-1038.5,3154.3 -1016.9,3154.3 -1016.9,3075.4 -1042.5,3075.4 	"/>
	<path class="st12" d="M-971.2,3075.4l-34.2,78.9h26.8l5.2-13.8h29.7l5.2,13.8h27.3l-34.2-78.9H-971.2z M-966,3121.4l7.6-19.9
		l7.6,19.9H-966z"/>
	<polygon class="st12" points="-909.4,3096.1 -886.5,3096.1 -886.5,3154.3 -860.1,3154.3 -860.1,3096.1 -837.2,3096.1 
		-837.2,3075.4 -909.4,3075.4 	"/>
	<rect x="-823.2" y="3075.4" class="st12" width="26.4" height="78.9"/>
	<path class="st12" d="M-704.2,3085.3c-3.9-3.7-8.6-6.6-14-8.6c-5.4-2-11.2-3-17.6-3c-6.3,0-12.2,1-17.6,3c-5.4,2-10.1,4.9-14,8.6
		c-3.9,3.7-7,8.1-9.2,13.1c-2.2,5-3.3,10.5-3.3,16.5c0,5.9,1.1,11.4,3.3,16.5c2.2,5,5.3,9.4,9.2,13.1c3.9,3.7,8.6,6.6,14,8.6
		c5.4,2,11.3,3,17.7,3c6.3,0,12.2-1,17.5-3c5.4-2,10-4.9,14-8.6c3.9-3.7,7-8.1,9.2-13.1c2.2-5,3.3-10.5,3.3-16.5
		c0-6-1.1-11.5-3.3-16.5C-697.2,3093.4-700.2,3089-704.2,3085.3z M-719.6,3123.2c-0.9,2.4-2.1,4.5-3.7,6.2c-1.6,1.7-3.5,3-5.6,3.9
		c-2.1,0.9-4.4,1.4-6.9,1.4c-2.5,0-4.7-0.5-6.9-1.4c-2.1-0.9-4-2.2-5.6-3.9c-1.6-1.7-2.8-3.8-3.7-6.2c-0.9-2.4-1.3-5.2-1.3-8.3
		c0-3.1,0.4-5.8,1.3-8.3c0.9-2.4,2.1-4.5,3.7-6.2c1.6-1.7,3.5-3,5.6-3.9c2.1-0.9,4.4-1.4,6.9-1.4c2.5,0,4.7,0.5,6.9,1.4
		c2.1,0.9,4,2.2,5.6,3.9c1.6,1.7,2.8,3.8,3.7,6.2c0.9,2.4,1.3,5.2,1.3,8.3C-718.3,3118-718.7,3120.7-719.6,3123.2z"/>
	<polygon class="st12" points="-623.4,3075.4 -623.4,3111.3 -653.1,3075.4 -674.8,3075.4 -674.8,3154.3 -649.1,3154.3 
		-649.1,3118.5 -619.4,3154.3 -597.7,3154.3 -597.7,3075.4 	"/>
	<path class="st12" d="M-1758.8,3203c-5.4-2.4-11.8-3.7-19.2-3.7h-38.1v79.9h26.7v-19.6h11.4c7.4,0,13.8-1.2,19.2-3.7
		c5.4-2.5,9.6-6,12.5-10.4c2.9-4.5,4.4-9.8,4.4-16s-1.5-11.5-4.4-16C-1749.2,3208.9-1753.4,3205.4-1758.8,3203z M-1771.5,3236.3
		c-1.8,1.7-4.5,2.5-8.2,2.5h-9.7v-18.7h9.7c3.7,0,6.4,0.8,8.2,2.5c1.8,1.7,2.7,4,2.7,6.9
		C-1768.8,3232.4-1769.7,3234.6-1771.5,3236.3z"/>
	<polygon class="st12" points="-1699.1,3199.3 -1725.8,3199.3 -1725.8,3279.2 -1663.4,3279.2 -1663.4,3258.4 -1699.1,3258.4 	"/>
	<path class="st12" d="M-1621.5,3199.3l-34.6,79.9h27.2l5.3-13.9h30.1l5.3,13.9h27.6l-34.6-79.9H-1621.5z M-1616.3,3245.9l7.7-20.1
		l7.7,20.1H-1616.3z"/>
	<polygon class="st12" points="-1558.9,3220.2 -1535.7,3220.2 -1535.7,3279.2 -1509,3279.2 -1509,3220.2 -1485.8,3220.2 
		-1485.8,3199.3 -1558.9,3199.3 	"/>
	<polygon class="st12" points="-1471.5,3279.2 -1444.8,3279.2 -1444.8,3253.7 -1411.8,3253.7 -1411.8,3233.3 -1444.8,3233.3 
		-1444.8,3219.6 -1407.1,3219.6 -1407.1,3199.3 -1471.5,3199.3 	"/>
	<path class="st12" d="M-1318.3,3209.3c-4-3.8-8.7-6.7-14.1-8.7c-5.4-2.1-11.4-3.1-17.9-3.1c-6.4,0-12.4,1-17.8,3.1
		c-5.5,2.1-10.2,5-14.2,8.7c-4,3.8-7.1,8.2-9.3,13.2c-2.2,5.1-3.3,10.6-3.3,16.7c0,6,1.1,11.6,3.3,16.7c2.2,5.1,5.3,9.5,9.3,13.3
		c4,3.8,8.7,6.7,14.2,8.7c5.5,2.1,11.4,3.1,17.9,3.1c6.4,0,12.3-1,17.8-3.1c5.4-2.1,10.1-5,14.1-8.7c4-3.8,7.1-8.2,9.3-13.3
		c2.2-5.1,3.3-10.7,3.3-16.7c0-6.1-1.1-11.7-3.3-16.7C-1311.2,3217.5-1314.3,3213.1-1318.3,3209.3z M-1333.9,3247.7
		c-0.9,2.5-2.2,4.6-3.8,6.3c-1.6,1.7-3.5,3-5.7,3.9c-2.2,0.9-4.5,1.4-7,1.4s-4.8-0.5-7-1.4c-2.1-0.9-4-2.2-5.7-3.9
		c-1.6-1.7-2.9-3.8-3.8-6.3c-0.9-2.5-1.4-5.3-1.4-8.4c0-3.1,0.5-5.9,1.4-8.4c0.9-2.5,2.2-4.6,3.8-6.3c1.6-1.7,3.5-3,5.7-3.9
		c2.2-0.9,4.5-1.4,7-1.4s4.8,0.5,7,1.4c2.2,0.9,4,2.2,5.7,3.9c1.6,1.7,2.9,3.8,3.8,6.3c0.9,2.5,1.4,5.3,1.4,8.4
		C-1332.6,3242.4-1333,3245.2-1333.9,3247.7z"/>
	<path class="st12" d="M-1218.7,3245.4c2.9-4.5,4.4-9.8,4.4-15.9s-1.5-11.5-4.4-16c-2.9-4.5-7.1-8-12.5-10.4
		c-5.4-2.4-11.8-3.7-19.2-3.7h-38.1v79.9h26.7v-20.1h7.3l13.4,20.1h28.5l-16.6-24.6C-1224.8,3252.4-1221.3,3249.3-1218.7,3245.4z
		 M-1243.9,3222.6c1.8,1.7,2.7,4,2.7,6.9c0,2.9-0.9,5.2-2.7,6.9c-1.8,1.7-4.5,2.5-8.2,2.5h-9.7v-18.7h9.7
		C-1248.4,3220.1-1245.7,3220.9-1243.9,3222.6z"/>
	<polygon class="st12" points="-1124,3199.3 -1149.1,3241.9 -1174.9,3199.3 -1196.9,3199.3 -1196.9,3279.2 -1172.6,3279.2 
		-1172.6,3244.1 -1155.4,3272.1 -1143.6,3272.1 -1126.4,3242.8 -1126.2,3279.2 -1101.8,3279.2 -1102.1,3199.3 	"/>
</g>
<g>
	<g>
		<g>
			<path class="st6" d="M497.4,467.8c0,0-26.8,24.8,0,54.8l-22.2,22.2c0,0-24.9,20.6-7.3,43.5l2.4,2.4l70.5-70.5
				c0,0,16-13.9,18.7-30.7c2.7-16.8,7.6-42-18.5-65.1c-26-23.1-58-15.3-58-15.3s-17,4.2-29,15.5c-12,11.3-54.6,54.4-54.6,54.4
				l-92.3,92.3l76.4,77.3c0,0,13.4,15.6,28.1,0.9c14.7-14.7,122-122.5,122-122.5"/>
			<g>
				<line class="st6" x1="432.6" y1="482.7" x2="376.1" y2="539.2"/>
				<line class="st6" x1="443.9" y1="507.5" x2="391.1" y2="560.3"/>
				<line class="st6" x1="463.5" y1="524.7" x2="405.5" y2="582.7"/>
			</g>
		</g>
		<path class="st0" d="M502,524.7"/>
		<path class="st0" d="M481.2,507.5"/>
		<path class="st7" d="M297,469.7c0,0,25.5,23.6,1.9,52.6c-1,1.3-1,3.1,0.2,4.3l20,20c0.1,0.1,0.1,0.1,0.2,0.2
			c1.6,1.4,24.1,21.3,7.4,43.3c-0.1,0.1-0.2,0.2-0.3,0.4l0,0c-1.2,1.2-3.3,1.2-4.5,0l-68.1-68.1c0,0-0.1-0.1-0.1-0.1
			c-1.1-1-16-14.4-18.6-30.6c-2.7-16.8-7.6-42,18.5-65.1c26-23.1,58-15.3,58-15.3s17,4.2,29,15.5c12,11.3,54.6,54.4,54.6,54.4
			l69.7,69.7c12.5,12.5,12.5,32.7,0.1,45.3L411,650.6c0,0-0.1,0.1-0.1,0.1c-0.9,1-13.8,15-28,0.9c-14.7-14.7-122-122.5-122-122.5"/>
		<line class="st7" x1="361.8" y1="484.6" x2="421.6" y2="544.4"/>
		<line class="st7" x1="350.5" y1="509.4" x2="403.3" y2="562.3"/>
		<line class="st7" x1="331" y1="526.6" x2="388.9" y2="584.6"/>
		<path class="st8" d="M465.3,551.1l-3.2-3.2c-12.4-12.4-32.4-12.4-44.8,0l-16.6,16.8c-5.2,5.3-7.3,1.1-18-9.6l-5.5-5.5
			c-13.3-13.3-34.7-13.3-48,0h0c-13.3,13.3-13.3,34.7,0,48l55.5,55.5c6.4,6.4,16.8,6.4,23.3,0l22.9-22.9c0.1-0.1,0.2-0.2,0.2-0.3
			l34.1-34.1C477.7,583.6,477.7,563.5,465.3,551.1z"/>
	</g>
	<path class="st10" d="M497.6,522.4l-31.4,31.4c-11.1,11.1-10.9,29.2,0.4,40.5l0,0l51.4-51.4"/>
	<path class="st10" d="M302.2,529.5l31.4,31.4c11.1,11.1,10.9,29.2-0.4,40.5h0L281.8,550"/>
</g>
<g>
	<path class="st12" d="M679.1,445.3c-3.9-3.7-8.6-6.6-14-8.6c-5.4-2-11.2-3-17.6-3c-6.3,0-12.2,1-17.6,3c-5.4,2-10.1,4.9-14,8.6
		c-3.9,3.7-7,8.1-9.2,13.1c-2.2,5-3.3,10.5-3.3,16.5c0,5.9,1.1,11.4,3.3,16.5c2.2,5,5.3,9.4,9.2,13.1c3.9,3.7,8.6,6.6,14,8.6
		c5.4,2,11.3,3,17.7,3c6.3,0,12.2-1,17.5-3c5.4-2,10-4.9,14-8.6c3.9-3.7,7-8.1,9.2-13.1c2.2-5,3.3-10.5,3.3-16.5
		c0-6-1.1-11.5-3.3-16.5C686.1,453.4,683.1,449,679.1,445.3z M663.7,483.2c-0.9,2.4-2.1,4.5-3.7,6.2c-1.6,1.7-3.5,3-5.6,3.9
		c-2.1,0.9-4.4,1.4-6.9,1.4c-2.5,0-4.7-0.5-6.9-1.4c-2.1-0.9-4-2.2-5.6-3.9c-1.6-1.7-2.8-3.8-3.7-6.2c-0.9-2.4-1.3-5.2-1.3-8.3
		c0-3.1,0.4-5.8,1.3-8.3c0.9-2.4,2.1-4.5,3.7-6.2c1.6-1.7,3.5-3,5.6-3.9c2.1-0.9,4.4-1.4,6.9-1.4c2.5,0,4.7,0.5,6.9,1.4
		c2.1,0.9,4,2.2,5.6,3.9c1.6,1.7,2.8,3.8,3.7,6.2c0.9,2.4,1.3,5.2,1.3,8.3C665,478,664.6,480.7,663.7,483.2z"/>
	<path class="st12" d="M734.8,494.5h7.2l13.3,19.8h28.2L767,490.1c4.4-2.3,7.8-5.3,10.4-9.2c2.9-4.4,4.4-9.6,4.4-15.7
		s-1.5-11.4-4.4-15.8c-2.9-4.5-7-7.9-12.3-10.3c-5.3-2.4-11.6-3.6-18.9-3.6h-37.6v78.9h26.4V494.5z M752.6,458.4
		c1.7,1.7,2.6,3.9,2.6,6.8c0,2.9-0.9,5.1-2.6,6.8c-1.8,1.7-4.5,2.5-8.1,2.5h-9.6v-18.5h9.6C748.1,455.9,750.8,456.8,752.6,458.4z"/>
	<path class="st12" d="M808.2,504.6c3.9,3.7,8.5,6.5,13.9,8.5c5.3,2,11.2,3,17.5,3c5.7,0,11.7-0.9,17.8-2.6
		c6.1-1.7,11.5-4.2,16.3-7.4v-33.4h-22.9v20c-0.3,0.1-0.6,0.2-0.9,0.3c-2.8,1-5.7,1.5-8.7,1.5c-2.8,0-5.4-0.5-7.7-1.4
		c-2.3-0.9-4.2-2.3-5.9-4c-1.6-1.7-2.9-3.8-3.8-6.3c-0.9-2.4-1.3-5.1-1.3-8.1c0-3.1,0.4-5.8,1.3-8.2c0.9-2.4,2.2-4.5,3.8-6.2
		c1.6-1.7,3.6-3,6-3.9c2.3-0.9,5-1.4,7.9-1.4c3.5,0,6.7,0.7,9.6,2.2c2.9,1.5,5.5,3.6,8,6.5l16.9-15c-3.9-4.9-9-8.6-15-11.3
		c-6.1-2.6-13-3.9-20.7-3.9c-6.5,0-12.4,1-17.8,3c-5.4,2-10.1,4.8-14,8.5c-3.9,3.7-7,8-9.2,13.1c-2.2,5-3.2,10.6-3.2,16.7
		c0,6.1,1.1,11.6,3.2,16.7C801.2,496.6,804.3,500.9,808.2,504.6z"/>
	<path class="st12" d="M977.9,514.3l-34.2-78.9h-25.9l-34.2,78.9h26.8l5.2-13.8h29.7l5.2,13.8H977.9z M923,481.4l7.6-19.9l7.6,19.9
		H923z"/>
	<polygon class="st12" points="1015.1,478.4 1044.8,514.3 1066.5,514.3 1066.5,435.4 1040.8,435.4 1040.8,471.3 1011.1,435.4 
		989.4,435.4 989.4,514.3 1015.1,514.3 	"/>
	<path class="st12" d="M1188.8,509.5c6.6-3.2,11.8-7.7,15.5-13.6c3.7-5.9,5.6-12.9,5.6-21.1c0-8.1-1.9-15.1-5.6-21
		c-3.7-5.9-8.9-10.4-15.5-13.6c-6.6-3.2-14.3-4.8-23-4.8h-38.5v78.9h38.5C1174.5,514.3,1182.2,512.7,1188.8,509.5z M1153.6,493.6
		v-37.4h11.1c3.7,0,7,0.7,9.8,2.1c2.8,1.4,5,3.5,6.5,6.3c1.6,2.8,2.3,6.2,2.3,10.1c0,4.1-0.8,7.5-2.3,10.3c-1.6,2.8-3.7,4.9-6.5,6.4
		c-2.8,1.4-6.1,2.1-9.8,2.1H1153.6z"/>
	<path class="st12" d="M1236.2,504.5c3.9,3.7,8.6,6.6,14,8.6c5.4,2,11.3,3,17.7,3c6.3,0,12.2-1,17.5-3c5.4-2,10-4.9,14-8.6
		c3.9-3.7,7-8.1,9.2-13.1c2.2-5,3.3-10.5,3.3-16.5c0-6-1.1-11.5-3.3-16.5c-2.2-5-5.3-9.4-9.2-13.1c-3.9-3.7-8.6-6.6-14-8.6
		c-5.4-2-11.2-3-17.6-3c-6.3,0-12.2,1-17.6,3c-5.4,2-10.1,4.9-14,8.6c-3.9,3.7-7,8.1-9.2,13.1c-2.2,5-3.3,10.5-3.3,16.5
		c0,5.9,1.1,11.4,3.3,16.5C1229.2,496.4,1232.2,500.7,1236.2,504.5z M1251.6,466.6c0.9-2.4,2.1-4.5,3.7-6.2c1.6-1.7,3.5-3,5.6-3.9
		c2.1-0.9,4.4-1.4,6.9-1.4c2.5,0,4.7,0.5,6.9,1.4c2.1,0.9,4,2.2,5.6,3.9c1.6,1.7,2.8,3.8,3.7,6.2c0.9,2.4,1.3,5.2,1.3,8.3
		c0,3.1-0.4,5.8-1.3,8.3c-0.9,2.4-2.1,4.5-3.7,6.2c-1.6,1.7-3.5,3-5.6,3.9c-2.1,0.9-4.4,1.4-6.9,1.4c-2.5,0-4.7-0.5-6.9-1.4
		c-2.1-0.9-4-2.2-5.6-3.9c-1.6-1.7-2.8-3.8-3.7-6.2c-0.9-2.4-1.3-5.2-1.3-8.3C1250.3,471.8,1250.7,469,1251.6,466.6z"/>
	<polygon class="st12" points="1380.2,471.3 1350.5,435.4 1328.8,435.4 1328.8,514.3 1354.5,514.3 1354.5,478.4 1384.2,514.3 
		1405.9,514.3 1405.9,435.4 1380.2,435.4 	"/>
	<path class="st12" d="M1451.5,435.4l-34.2,78.9h26.8l5.2-13.8h29.7l5.2,13.8h27.3l-34.2-78.9H1451.5z M1456.7,481.4l7.6-19.9
		l7.6,19.9H1456.7z"/>
	<polygon class="st12" points="1513.3,456 1536.2,456 1536.2,514.3 1562.6,514.3 1562.6,456 1585.5,456 1585.5,435.4 1513.3,435.4 	
		"/>
	<rect x="1599.6" y="435.4" class="st12" width="26.4" height="78.9"/>
	<path class="st12" d="M1718.5,445.3c-3.9-3.7-8.6-6.6-14-8.6c-5.4-2-11.2-3-17.6-3c-6.3,0-12.2,1-17.6,3c-5.4,2-10.1,4.9-14,8.6
		c-3.9,3.7-7,8.1-9.2,13.1c-2.2,5-3.3,10.5-3.3,16.5c0,5.9,1.1,11.4,3.3,16.5c2.2,5,5.3,9.4,9.2,13.1c3.9,3.7,8.6,6.6,14,8.6
		c5.4,2,11.3,3,17.7,3c6.3,0,12.2-1,17.5-3c5.4-2,10-4.9,14-8.6c3.9-3.7,7-8.1,9.2-13.1c2.2-5,3.3-10.5,3.3-16.5
		c0-6-1.1-11.5-3.3-16.5C1725.5,453.4,1722.5,449,1718.5,445.3z M1703.1,483.2c-0.9,2.4-2.1,4.5-3.7,6.2c-1.6,1.7-3.5,3-5.6,3.9
		c-2.1,0.9-4.4,1.4-6.9,1.4c-2.5,0-4.7-0.5-6.9-1.4c-2.1-0.9-4-2.2-5.6-3.9c-1.6-1.7-2.8-3.8-3.7-6.2c-0.9-2.4-1.3-5.2-1.3-8.3
		c0-3.1,0.4-5.8,1.3-8.3c0.9-2.4,2.1-4.5,3.7-6.2c1.6-1.7,3.5-3,5.6-3.9c2.1-0.9,4.4-1.4,6.9-1.4c2.5,0,4.7,0.5,6.9,1.4
		c2.1,0.9,4,2.2,5.6,3.9c1.6,1.7,2.8,3.8,3.7,6.2c0.9,2.4,1.3,5.2,1.3,8.3C1704.4,478,1704,480.7,1703.1,483.2z"/>
	<polygon class="st12" points="1799.3,435.4 1799.3,471.3 1769.6,435.4 1747.9,435.4 1747.9,514.3 1773.6,514.3 1773.6,478.4 
		1803.3,514.3 1825,514.3 1825,435.4 	"/>
	<path class="st12" d="M663.9,563c-5.4-2.4-11.8-3.7-19.2-3.7h-38.1v79.9h26.7v-19.6h11.4c7.4,0,13.8-1.2,19.2-3.7
		c5.4-2.5,9.6-6,12.5-10.4c2.9-4.5,4.4-9.8,4.4-16s-1.5-11.5-4.4-16C673.5,568.9,669.3,565.4,663.9,563z M651.2,596.3
		c-1.8,1.7-4.5,2.5-8.2,2.5h-9.7v-18.7h9.7c3.7,0,6.4,0.8,8.2,2.5c1.8,1.7,2.7,4,2.7,6.9C653.9,592.3,653,594.6,651.2,596.3z"/>
	<polygon class="st12" points="723.6,559.3 696.9,559.3 696.9,639.2 759.4,639.2 759.4,618.3 723.6,618.3 	"/>
	<path class="st12" d="M801.2,559.3l-34.6,79.9h27.2l5.3-13.9h30.1l5.3,13.9h27.6l-34.6-79.9H801.2z M806.5,605.9l7.7-20.1l7.7,20.1
		H806.5z"/>
	<polygon class="st12" points="863.8,580.2 887,580.2 887,639.2 913.7,639.2 913.7,580.2 936.9,580.2 936.9,559.3 863.8,559.3 	"/>
	<polygon class="st12" points="951.2,639.2 977.9,639.2 977.9,613.7 1010.9,613.7 1010.9,593.3 977.9,593.3 977.9,579.6 
		1015.6,579.6 1015.6,559.3 951.2,559.3 	"/>
	<path class="st12" d="M1104.4,569.3c-4-3.8-8.7-6.7-14.1-8.7c-5.4-2.1-11.4-3.1-17.9-3.1c-6.4,0-12.4,1-17.8,3.1
		c-5.5,2.1-10.2,5-14.2,8.7c-4,3.8-7.1,8.2-9.3,13.2c-2.2,5.1-3.3,10.6-3.3,16.7c0,6,1.1,11.6,3.3,16.7c2.2,5.1,5.3,9.5,9.3,13.3
		c4,3.8,8.7,6.7,14.2,8.7c5.5,2.1,11.4,3.1,17.9,3.1c6.4,0,12.3-1,17.8-3.1c5.4-2.1,10.1-5,14.1-8.7c4-3.8,7.1-8.2,9.3-13.3
		c2.2-5.1,3.3-10.7,3.3-16.7c0-6.1-1.1-11.7-3.3-16.7C1111.5,577.5,1108.4,573.1,1104.4,569.3z M1088.8,607.7
		c-0.9,2.5-2.2,4.6-3.8,6.3c-1.6,1.7-3.5,3-5.7,3.9c-2.2,0.9-4.5,1.4-7,1.4s-4.8-0.5-7-1.4c-2.1-0.9-4-2.2-5.7-3.9
		c-1.6-1.7-2.9-3.8-3.8-6.3c-0.9-2.5-1.4-5.3-1.4-8.4c0-3.1,0.5-5.9,1.4-8.4c0.9-2.5,2.2-4.6,3.8-6.3c1.6-1.7,3.5-3,5.7-3.9
		c2.2-0.9,4.5-1.4,7-1.4s4.8,0.5,7,1.4c2.2,0.9,4,2.2,5.7,3.9c1.6,1.7,2.9,3.8,3.8,6.3c0.9,2.5,1.4,5.3,1.4,8.4
		C1090.1,602.4,1089.7,605.2,1088.8,607.7z"/>
	<path class="st12" d="M1204,605.4c2.9-4.5,4.4-9.8,4.4-15.9s-1.5-11.5-4.4-16c-2.9-4.5-7.1-8-12.5-10.4c-5.4-2.4-11.8-3.7-19.2-3.7
		h-38.1v79.9h26.7v-20.1h7.3l13.4,20.1h28.5l-16.6-24.6C1197.9,612.4,1201.4,609.3,1204,605.4z M1178.8,582.6c1.8,1.7,2.7,4,2.7,6.9
		c0,2.9-0.9,5.2-2.7,6.9c-1.8,1.7-4.5,2.5-8.2,2.5h-9.7v-18.7h9.7C1174.3,580.1,1177,580.9,1178.8,582.6z"/>
	<polygon class="st12" points="1298.7,559.3 1273.6,601.8 1247.8,559.3 1225.8,559.3 1225.8,639.2 1250.2,639.2 1250.2,604 
		1267.4,632 1279.1,632 1296.4,602.8 1296.6,639.2 1320.9,639.2 1320.7,559.3 	"/>
</g>
<text transform="matrix(1.0061 0 0 1 -4775.6279 3070.478)" style="font-family:'Montserrat-Black'; font-size:24.717px; letter-spacing:1;">Lorem ipsum</text>
<text transform="matrix(1.0061 0 0 1 -4775.6274 3130.2769)" style="font-family:'Montserrat-Black'; font-size:28.8365px; letter-spacing:1;">Lorem ipsum</text>
<text transform="matrix(1.0061 0 0 1 -4775.6274 3193.0005)" style="font-family:'Montserrat-Black'; font-size:37.0754px; letter-spacing:2;">Lorem ipsum</text>
<text transform="matrix(1.0061 0 0 1 -4775.6274 3262.8018)" style="font-family:'Montserrat-Black'; font-size:43.2547px; letter-spacing:2;">Lorem ipsum</text>
<text transform="matrix(1.0061 0 0 1 -4775.627 3333.6748)" style="font-family:'Montserrat-Black'; font-size:49.4339px; letter-spacing:3;">Lorem ipsum</text>
<text transform="matrix(1.0061 0 0 1 -4775.6279 3416.2485)" style="font-family:'Montserrat-Black'; font-size:74.1509px; letter-spacing:4;">Lorem ipsum</text>
<text transform="matrix(1.0061 0 0 1 -4775.6274 3511.9209)" style="font-family:'Montserrat-Black'; font-size:98.8679px; letter-spacing:6;">Lorem ipsum</text>
<text transform="matrix(1.0061 0 0 1 -4775.6279 3630.6299)" style="font-family:'Montserrat-Black'; font-size:123.5848px; letter-spacing:8;">Lorem ipsum</text>
<rect x="-3436.6" y="1429.7" class="st9" width="162.1" height="162.1"/>
</svg>
