<?xml version="1.0" encoding="utf-8"?>
<!-- Generator: Adobe Illustrator 25.2.0, SVG Export Plug-In . SVG Version: 6.00 Build 0)  -->
<svg version="1.1" id="Layer_1" xmlns="http://www.w3.org/2000/svg" xmlns:xlink="http://www.w3.org/1999/xlink" x="0px" y="0px"
	 viewBox="0 0 1664 286.8" style="enable-background:new 0 0 1664 286.8;" xml:space="preserve">
<style type="text/css">
	.st0{fill:#FDE4DF;stroke:#3F3E3D;stroke-width:5;stroke-linecap:round;stroke-miterlimit:10;}
	.st1{fill:#FFFFFF;stroke:#3F3E3D;stroke-width:6;stroke-miterlimit:10;}
	.st2{fill:#FEE4DE;stroke:#3F3E3D;stroke-width:5;stroke-linecap:round;stroke-miterlimit:10;}
	.st3{fill:#DC021C;stroke:#3F3E3D;stroke-width:5;stroke-linecap:round;stroke-miterlimit:10;}
	.st4{fill:#FDE4DF;stroke:#3F3E3D;stroke-width:5;stroke-miterlimit:10;}
	.st5{fill:#005F82;stroke:#005F82;stroke-miterlimit:10;}
</style>
<g>
	<g>
		<g>
			<path class="st0" d="M297.5,80.2c0,0-26.8,24.8,0,54.8l-22.2,22.2c0,0-24.9,20.6-7.3,43.5l2.4,2.4l70.5-70.5
				c0,0,16-13.9,18.7-30.7c2.7-16.8,7.6-42-18.5-65.1c-26-23.1-58-15.3-58-15.3s-17,4.2-29,15.5s-54.6,54.4-54.6,54.4l-92.3,92.3
				l76.4,77.3c0,0,13.4,15.6,28.1,0.9s122-122.5,122-122.5"/>
			<g>
				<line class="st0" x1="232.7" y1="95.1" x2="176.2" y2="151.6"/>
				<line class="st0" x1="244" y1="119.9" x2="191.2" y2="172.7"/>
				<line class="st0" x1="263.5" y1="137.1" x2="205.6" y2="195.1"/>
			</g>
		</g>
		<path class="st1" d="M302,137.1"/>
		<path class="st1" d="M281.2,119.9"/>
		<path class="st2" d="M97.1,82.2c0,0,25.5,23.6,1.9,52.6c-1,1.3-1,3.1,0.2,4.3l20,20c0.1,0.1,0.1,0.1,0.2,0.2
			c1.6,1.4,24.1,21.3,7.4,43.3c-0.1,0.1-0.2,0.2-0.3,0.4l0,0c-1.2,1.2-3.3,1.2-4.5,0l-68.1-68.1c0,0-0.1-0.1-0.1-0.1
			c-1.1-1-16-14.4-18.6-30.6c-2.7-16.8-7.6-42,18.5-65.1s58-15.3,58-15.3s17,4.2,29,15.5c12,11.3,54.6,54.4,54.6,54.4l69.7,69.7
			c12.5,12.5,12.5,32.7,0.1,45.3L211,263.1c0,0-0.1,0.1-0.1,0.1c-0.9,1-13.8,15-28,0.9c-14.7-14.7-122-122.5-122-122.5"/>
		<line class="st2" x1="161.9" y1="97.1" x2="221.7" y2="156.8"/>
		<line class="st2" x1="150.6" y1="121.9" x2="203.4" y2="174.7"/>
		<line class="st2" x1="131" y1="139.1" x2="189" y2="197"/>
		<path class="st3" d="M265.4,163.6l-3.2-3.2c-12.4-12.4-32.4-12.4-44.8,0l-16.6,16.8c-5.2,5.3-7.3,1.1-18-9.6l-5.5-5.5
			c-13.3-13.3-34.7-13.3-48,0l0,0c-13.3,13.3-13.3,34.7,0,48l55.5,55.5c6.4,6.4,16.8,6.4,23.3,0l22.9-22.9c0.1-0.1,0.2-0.2,0.2-0.3
			l34.1-34.1C277.8,196,277.8,175.9,265.4,163.6z"/>
	</g>
	<path class="st4" d="M297.7,134.8l-31.4,31.4c-11.1,11.1-10.9,29.2,0.4,40.5l0,0l51.4-51.4"/>
	<path class="st4" d="M102.3,142l31.4,31.4c11.1,11.1,10.9,29.2-0.4,40.5l0,0l-51.4-51.4"/>
</g>
<g>
	<path class="st5" d="M479.2,57.7c-3.9-3.7-8.6-6.6-14-8.6c-5.4-2-11.2-3-17.6-3c-6.3,0-12.2,1-17.6,3c-5.4,2-10.1,4.9-14,8.6
		c-3.9,3.7-7,8.1-9.2,13.1c-2.2,5-3.3,10.5-3.3,16.5c0,5.9,1.1,11.4,3.3,16.5c2.2,5,5.3,9.4,9.2,13.1c3.9,3.7,8.6,6.6,14,8.6
		c5.4,2,11.3,3,17.7,3c6.3,0,12.2-1,17.5-3c5.4-2,10-4.9,14-8.6c3.9-3.7,7-8.1,9.2-13.1c2.2-5,3.3-10.5,3.3-16.5
		c0-6-1.1-11.5-3.3-16.5C486.2,65.8,483.1,61.4,479.2,57.7z M463.8,95.6c-0.9,2.4-2.1,4.5-3.7,6.2c-1.6,1.7-3.5,3-5.6,3.9
		c-2.1,0.9-4.4,1.4-6.9,1.4c-2.5,0-4.7-0.5-6.9-1.4c-2.1-0.9-4-2.2-5.6-3.9c-1.6-1.7-2.8-3.8-3.7-6.2c-0.9-2.4-1.3-5.2-1.3-8.3
		c0-3.1,0.4-5.8,1.3-8.3c0.9-2.4,2.1-4.5,3.7-6.2c1.6-1.7,3.5-3,5.6-3.9c2.1-0.9,4.4-1.4,6.9-1.4c2.5,0,4.7,0.5,6.9,1.4
		c2.1,0.9,4,2.2,5.6,3.9c1.6,1.7,2.8,3.8,3.7,6.2c0.9,2.4,1.3,5.2,1.3,8.3C465.1,90.4,464.6,93.1,463.8,95.6z"/>
	<path class="st5" d="M534.9,106.9h7.2l13.3,19.8h28.2l-16.4-24.3c4.4-2.3,7.8-5.3,10.4-9.2c2.9-4.4,4.4-9.6,4.4-15.7
		s-1.5-11.4-4.4-15.8c-2.9-4.5-7-7.9-12.3-10.3c-5.3-2.4-11.6-3.6-18.9-3.6h-37.6v78.9h26.4V106.9z M552.6,70.8
		c1.7,1.7,2.6,3.9,2.6,6.8c0,2.9-0.9,5.1-2.6,6.8c-1.8,1.7-4.5,2.5-8.1,2.5h-9.6V68.4h9.6C548.2,68.4,550.9,69.2,552.6,70.8z"/>
	<path class="st5" d="M608.2,117.1c3.9,3.7,8.5,6.5,13.9,8.5c5.3,2,11.2,3,17.5,3c5.7,0,11.7-0.9,17.8-2.6
		c6.1-1.7,11.5-4.2,16.3-7.4V85.2h-22.9v20c-0.3,0.1-0.6,0.2-0.9,0.3c-2.8,1-5.7,1.5-8.7,1.5c-2.8,0-5.4-0.5-7.7-1.4
		c-2.3-0.9-4.2-2.3-5.9-4c-1.6-1.7-2.9-3.8-3.8-6.3c-0.9-2.4-1.3-5.1-1.3-8.1c0-3.1,0.4-5.8,1.3-8.2c0.9-2.4,2.2-4.5,3.8-6.2
		c1.6-1.7,3.6-3,6-3.9c2.3-0.9,5-1.4,7.9-1.4c3.5,0,6.7,0.7,9.6,2.2c2.9,1.5,5.5,3.6,8,6.5l16.9-15c-3.9-4.9-9-8.6-15-11.3
		c-6.1-2.6-13-3.9-20.7-3.9c-6.5,0-12.4,1-17.8,3c-5.4,2-10.1,4.8-14,8.5c-3.9,3.7-7,8-9.2,13.1c-2.2,5-3.2,10.6-3.2,16.7
		c0,6.1,1.1,11.6,3.2,16.7C601.3,109,604.3,113.4,608.2,117.1z"/>
	<path class="st5" d="M778,126.8l-34.2-78.9h-25.9l-34.2,78.9h26.8l5.2-13.8h29.7l5.2,13.8H778z M723,93.8l7.6-19.9l7.6,19.9H723z"
		/>
	<polygon class="st5" points="815.2,90.9 844.9,126.8 866.6,126.8 866.6,47.9 840.9,47.9 840.9,83.7 811.2,47.9 789.5,47.9 
		789.5,126.8 815.2,126.8 	"/>
	<path class="st5" d="M988.9,122c6.6-3.2,11.8-7.7,15.5-13.6c3.7-5.9,5.6-12.9,5.6-21.1c0-8.1-1.9-15.1-5.6-21
		c-3.7-5.9-8.9-10.4-15.5-13.6c-6.6-3.2-14.3-4.8-23-4.8h-38.5v78.9h38.5C974.6,126.8,982.2,125.2,988.9,122z M953.7,106V68.6h11.1
		c3.7,0,7,0.7,9.8,2.1c2.8,1.4,5,3.5,6.5,6.3c1.6,2.8,2.3,6.2,2.3,10.1c0,4.1-0.8,7.5-2.3,10.3c-1.6,2.8-3.7,4.9-6.5,6.4
		c-2.8,1.4-6.1,2.1-9.8,2.1H953.7z"/>
	<path class="st5" d="M1036.2,116.9c3.9,3.7,8.6,6.6,14,8.6c5.4,2,11.3,3,17.7,3c6.3,0,12.2-1,17.5-3c5.4-2,10-4.9,14-8.6
		c3.9-3.7,7-8.1,9.2-13.1c2.2-5,3.3-10.5,3.3-16.5c0-6-1.1-11.5-3.3-16.5c-2.2-5-5.3-9.4-9.2-13.1c-3.9-3.7-8.6-6.6-14-8.6
		c-5.4-2-11.2-3-17.6-3c-6.3,0-12.2,1-17.6,3c-5.4,2-10.1,4.9-14,8.6c-3.9,3.7-7,8.1-9.2,13.1c-2.2,5-3.3,10.5-3.3,16.5
		c0,5.9,1.1,11.4,3.3,16.5C1029.2,108.8,1032.3,113.2,1036.2,116.9z M1051.7,79c0.9-2.4,2.1-4.5,3.7-6.2c1.6-1.7,3.5-3,5.6-3.9
		c2.1-0.9,4.4-1.4,6.9-1.4c2.5,0,4.7,0.5,6.9,1.4c2.1,0.9,4,2.2,5.6,3.9c1.6,1.7,2.8,3.8,3.7,6.2c0.9,2.4,1.3,5.2,1.3,8.3
		c0,3.1-0.4,5.8-1.3,8.3c-0.9,2.4-2.1,4.5-3.7,6.2c-1.6,1.7-3.5,3-5.6,3.9c-2.1,0.9-4.4,1.4-6.9,1.4c-2.5,0-4.7-0.5-6.9-1.4
		c-2.1-0.9-4-2.2-5.6-3.9c-1.6-1.7-2.8-3.8-3.7-6.2c-0.9-2.4-1.3-5.2-1.3-8.3C1050.3,84.2,1050.8,81.5,1051.7,79z"/>
	<polygon class="st5" points="1180.2,83.7 1150.5,47.9 1128.8,47.9 1128.8,126.8 1154.5,126.8 1154.5,90.9 1184.2,126.8 
		1205.9,126.8 1205.9,47.9 1180.2,47.9 	"/>
	<path class="st5" d="M1251.6,47.9l-34.2,78.9h26.8l5.2-13.8h29.7l5.2,13.8h27.3l-34.2-78.9H1251.6z M1256.8,93.8l7.6-19.9l7.6,19.9
		H1256.8z"/>
	<polygon class="st5" points="1313.4,68.5 1336.3,68.5 1336.3,126.8 1362.6,126.8 1362.6,68.5 1385.5,68.5 1385.5,47.9 1313.4,47.9 
			"/>
	<rect x="1399.6" y="47.9" class="st5" width="26.4" height="78.9"/>
	<path class="st5" d="M1518.6,57.7c-3.9-3.7-8.6-6.6-14-8.6c-5.4-2-11.2-3-17.6-3c-6.3,0-12.2,1-17.6,3c-5.4,2-10.1,4.9-14,8.6
		c-3.9,3.7-7,8.1-9.2,13.1c-2.2,5-3.3,10.5-3.3,16.5c0,5.9,1.1,11.4,3.3,16.5c2.2,5,5.3,9.4,9.2,13.1c3.9,3.7,8.6,6.6,14,8.6
		c5.4,2,11.3,3,17.7,3c6.3,0,12.2-1,17.5-3c5.4-2,10-4.9,14-8.6c3.9-3.7,7-8.1,9.2-13.1c2.2-5,3.3-10.5,3.3-16.5
		c0-6-1.1-11.5-3.3-16.5C1525.6,65.8,1522.5,61.4,1518.6,57.7z M1503.2,95.6c-0.9,2.4-2.1,4.5-3.7,6.2c-1.6,1.7-3.5,3-5.6,3.9
		c-2.1,0.9-4.4,1.4-6.9,1.4c-2.5,0-4.7-0.5-6.9-1.4c-2.1-0.9-4-2.2-5.6-3.9c-1.6-1.7-2.8-3.8-3.7-6.2c-0.9-2.4-1.3-5.2-1.3-8.3
		c0-3.1,0.4-5.8,1.3-8.3c0.9-2.4,2.1-4.5,3.7-6.2c1.6-1.7,3.5-3,5.6-3.9c2.1-0.9,4.4-1.4,6.9-1.4c2.5,0,4.7,0.5,6.9,1.4
		c2.1,0.9,4,2.2,5.6,3.9c1.6,1.7,2.8,3.8,3.7,6.2c0.9,2.4,1.3,5.2,1.3,8.3C1504.5,90.4,1504.1,93.1,1503.2,95.6z"/>
	<polygon class="st5" points="1599.3,47.9 1599.3,83.7 1569.6,47.9 1548,47.9 1548,126.8 1573.7,126.8 1573.7,90.9 1603.4,126.8 
		1625,126.8 1625,47.9 	"/>
	<path class="st5" d="M464,175.4c-5.4-2.4-11.8-3.7-19.2-3.7h-38.1v79.9h26.7V232h11.4c7.4,0,13.8-1.2,19.2-3.7
		c5.4-2.5,9.6-6,12.5-10.4c2.9-4.5,4.4-9.8,4.4-16s-1.5-11.5-4.4-16C473.5,181.3,469.4,177.8,464,175.4z M451.3,208.7
		c-1.8,1.7-4.5,2.5-8.2,2.5h-9.7v-18.7h9.7c3.7,0,6.4,0.8,8.2,2.5c1.8,1.7,2.7,4,2.7,6.9C453.9,204.8,453.1,207.1,451.3,208.7z"/>
	<polygon class="st5" points="523.7,171.7 496.9,171.7 496.9,251.7 559.4,251.7 559.4,230.8 523.7,230.8 	"/>
	<path class="st5" d="M601.3,171.7l-34.6,79.9h27.2l5.3-13.9h30.1l5.3,13.9h27.6l-34.6-79.9H601.3z M606.5,218.3l7.7-20.1l7.7,20.1
		H606.5z"/>
	<polygon class="st5" points="663.9,192.6 687.1,192.6 687.1,251.7 713.8,251.7 713.8,192.6 737,192.6 737,171.7 663.9,171.7 	"/>
	<polygon class="st5" points="751.2,251.7 777.9,251.7 777.9,226.1 811,226.1 811,205.8 777.9,205.8 777.9,192.1 815.6,192.1 
		815.6,171.7 751.2,171.7 	"/>
	<path class="st5" d="M904.5,181.7c-4-3.8-8.7-6.7-14.1-8.7c-5.4-2.1-11.4-3.1-17.9-3.1c-6.4,0-12.4,1-17.8,3.1
		c-5.5,2.1-10.2,5-14.2,8.7c-4,3.8-7.1,8.2-9.3,13.2c-2.2,5.1-3.3,10.6-3.3,16.7c0,6,1.1,11.6,3.3,16.7c2.2,5.1,5.3,9.5,9.3,13.3
		c4,3.8,8.7,6.7,14.2,8.7c5.5,2.1,11.4,3.1,17.9,3.1c6.4,0,12.3-1,17.8-3.1c5.4-2.1,10.1-5,14.1-8.7c4-3.8,7.1-8.2,9.3-13.3
		c2.2-5.1,3.3-10.7,3.3-16.7c0-6.1-1.1-11.7-3.3-16.7C911.6,189.9,908.5,185.5,904.5,181.7z M888.8,220.1c-0.9,2.5-2.2,4.6-3.8,6.3
		c-1.6,1.7-3.5,3-5.7,3.9c-2.2,0.9-4.5,1.4-7,1.4s-4.8-0.5-7-1.4c-2.1-0.9-4-2.2-5.7-3.9c-1.6-1.7-2.9-3.8-3.8-6.3
		c-0.9-2.5-1.4-5.3-1.4-8.4c0-3.1,0.5-5.9,1.4-8.4c0.9-2.5,2.2-4.6,3.8-6.3c1.6-1.7,3.5-3,5.7-3.9c2.2-0.9,4.5-1.4,7-1.4
		s4.8,0.5,7,1.4c2.2,0.9,4,2.2,5.7,3.9c1.6,1.7,2.9,3.8,3.8,6.3c0.9,2.5,1.4,5.3,1.4,8.4C890.2,214.8,889.7,217.6,888.8,220.1z"/>
	<path class="st5" d="M1004,217.8c2.9-4.5,4.4-9.8,4.4-15.9s-1.5-11.5-4.4-16c-2.9-4.5-7.1-8-12.5-10.4c-5.4-2.4-11.8-3.7-19.2-3.7
		h-38.1v79.9h26.7v-20.1h7.3l13.4,20.1h28.5l-16.6-24.6C998,224.8,1001.5,221.7,1004,217.8z M978.9,195c1.8,1.7,2.7,4,2.7,6.9
		c0,2.9-0.9,5.2-2.7,6.9c-1.8,1.7-4.5,2.5-8.2,2.5h-9.7v-18.7h9.7C974.4,192.5,977.1,193.4,978.9,195z"/>
	<polygon class="st5" points="1098.8,171.7 1073.7,214.3 1047.8,171.7 1025.9,171.7 1025.9,251.7 1050.2,251.7 1050.2,216.5 
		1067.4,244.5 1079.2,244.5 1096.4,215.2 1096.6,251.7 1120.9,251.7 1120.7,171.7 	"/>
</g>
</svg>
