<svg xmlns="http://www.w3.org/2000/svg" viewBox="0 0 332.2 253.79"><defs><style>.cls-1{fill:#fde4df;}.cls-1,.cls-2,.cls-3{stroke:#3f3e3d;stroke-linecap:round;stroke-miterlimit:10;stroke-width:5px;}.cls-2{fill:#fee4de;}.cls-3{fill:#dc021c;}</style></defs><g id="Layer_2" data-name="Layer 2"><g id="Layer_1-2" data-name="Layer 1"><path class="cls-1" d="M265.75,62s-26.64,24.66,0,54.53l-22.09,22.1s-24.81,20.52-7.26,43.3l2.4,2.4,70.09-70.1s15.88-13.79,18.6-30.5S335,42,309.1,19,251.44,3.75,251.44,3.75s-16.92,4.18-28.83,15.46-54.32,54.11-54.32,54.11L76.46,165.15l76,76.92s13.3,15.53,27.92.9,121.39-121.8,121.39-121.8"/><line class="cls-1" x1="201.3" y1="76.88" x2="145.09" y2="133.08"/><line class="cls-1" x1="212.58" y1="101.53" x2="160.03" y2="154.07"/><line class="cls-1" x1="232.01" y1="118.66" x2="174.35" y2="176.32"/><path class="cls-2" d="M66.45,64s25.35,23.46,1.87,52.34a3.16,3.16,0,0,0,.2,4.25l19.94,19.95.18.16c1.62,1.39,24,21.15,7.31,43a3.38,3.38,0,0,1-.31.35h0a3.15,3.15,0,0,1-4.47,0L23.38,116.27l-.14-.13c-1.14-1-15.91-14.37-18.52-30.44C2,69-2.81,43.91,23.1,20.93S80.77,5.68,80.77,5.68,97.69,9.86,109.6,21.14s54.32,54.11,54.32,54.11l69.37,69.37a31.94,31.94,0,0,1,.13,45l-53.63,54.27-.11.12c-.9,1-13.78,15-27.88.85C137.18,230.28,30.41,123.1,30.41,123.1"/><line class="cls-2" x1="130.91" y1="78.8" x2="190.35" y2="138.25"/><line class="cls-2" x1="119.63" y1="103.46" x2="172.17" y2="156"/><line class="cls-2" x1="100.2" y1="120.59" x2="157.85" y2="178.25"/><path class="cls-3" d="M233.84,145l-3.14-3.15a31.54,31.54,0,0,0-44.59,0l-16.48,16.76c-5.15,5.29-7.22,1.12-17.91-9.57l-5.47-5.47a33.76,33.76,0,0,0-47.74,0h0a33.75,33.75,0,0,0,0,47.73l55.25,55.25a16.36,16.36,0,0,0,23.14,0l22.74-22.74c.09-.08.16-.18.25-.27l34-34A31.52,31.52,0,0,0,233.84,145Z"/></g></g></svg>