<?xml version="1.0" encoding="UTF-8"?>
<!-- Generator: visioncortex VTracer 0.6.2 -->
<svg version="1.1" xmlns="http://www.w3.org/2000/svg" width="1280" height="1280" >
<path d="M0 0 C2.8125 2.4375 2.8125 2.4375 5 5 C5.55042969 5.58394531 6.10085938 6.16789062 6.66796875 6.76953125 C16.90015457 17.83076411 20.47674691 29.75135626 20.38818359 44.67163086 C20.39344055 45.78227905 20.39869751 46.89292725 20.40411377 48.03723145 C20.417229 51.67991549 20.40859998 55.32215585 20.3984375 58.96484375 C20.40046194 61.5243793 20.40337646 64.08391429 20.40713501 66.64344788 C20.41154805 72.00202469 20.40545651 77.36044613 20.39111328 82.71899414 C20.37486541 88.85884274 20.38002494 94.99839112 20.3965925 101.13823217 C20.41202076 107.10067402 20.41016447 113.06302524 20.4014473 119.02548409 C20.3994672 121.53488776 20.40182609 124.04429925 20.40888596 126.55369377 C20.45252827 146.43902848 19.06769646 164.99248115 13 184 C12.6803125 185.09699219 12.360625 186.19398438 12.03125 187.32421875 C7.26546635 203.56247352 -0.17283711 217.99992235 -8.99707031 232.34228516 C-9.91423103 233.85823484 -10.78397623 235.40261151 -11.6484375 236.94921875 C-12.09445312 237.62597656 -12.54046875 238.30273438 -13 239 C-13.66 239 -14.32 239 -15 239 C-15.2475 239.53625 -15.495 240.0725 -15.75 240.625 C-17.30652537 243.5823982 -19.03435673 246.29724051 -21 249 C-21.66 249 -22.32 249 -23 249 C-23.268125 249.5775 -23.53625 250.155 -23.8125 250.75 C-25.02929189 253.05550043 -26.30333879 255.02056192 -28 257 C-28.66 257 -29.32 257 -30 257 C-30 257.66 -30 258.32 -30 259 C-31.375 260.625 -31.375 260.625 -33 262 C-33.66 262 -34.32 262 -35 262 C-35 262.66 -35 263.32 -35 264 C-36.64453125 265.69140625 -36.64453125 265.69140625 -38.8125 267.5625 C-39.52019531 268.18253906 -40.22789062 268.80257813 -40.95703125 269.44140625 C-43 271 -43 271 -46 272 C-46 272.66 -46 273.32 -46 274 C-48.23639227 275.80211266 -50.46782864 277.47564497 -52.8125 279.125 C-53.45509766 279.59292969 -54.09769531 280.06085938 -54.75976562 280.54296875 C-59.62279063 284 -59.62279063 284 -63 284 C-63 284.66 -63 285.32 -63 286 C-84.34438151 298.39450396 -84.34438151 298.39450396 -95.75 301.91015625 C-98.46770218 302.82150109 -101.06464903 303.83604439 -103.7109375 304.9296875 C-108.92184423 307.03911951 -114.20433488 308.59242196 -119.625 310.0625 C-125.8879001 311.77345169 -131.94813575 313.64432811 -138 316 C-139.49587956 316.53255206 -140.99508659 317.05603876 -142.5 317.5625 C-143.1703125 317.79066406 -143.840625 318.01882813 -144.53125 318.25390625 C-146.53548588 318.85961678 -148.56421838 319.38383643 -150.59765625 319.8828125 C-155.77289317 321.15646706 -160.84663601 322.74005209 -165.9375 324.3125 C-173.74675644 326.7111154 -181.5617422 329.07896603 -189.41967773 331.3137207 C-193.38163669 332.45821835 -197.21394688 333.80458137 -201.06079102 335.27734375 C-203.92242687 336.34374714 -206.82865303 337.23741372 -209.75 338.125 C-210.83796875 338.45757812 -211.9259375 338.79015625 -213.046875 339.1328125 C-215.34947279 339.80897217 -217.67183011 340.41795753 -220 341 C-220 423.5 -220 506 -220 591 C-215.212096 591.53198933 -210.63775034 592.03742366 -205.875 592.3125 C-199.96456883 592.83327925 -194.40185775 594.34830493 -188.7109375 595.9609375 C-185.38309163 596.89273434 -182.05177311 597.71298495 -178.6875 598.5 C-174.10612676 599.63309365 -169.85098497 601.12842195 -165.5078125 602.96484375 C-162.80631015 604.07994986 -160.07298488 605.04097596 -157.3125 606 C-152.84763616 607.60132247 -149.06645078 609.57576973 -145 612 C-143.28706704 612.7250941 -141.57403092 613.44994875 -139.85986328 614.17211914 C-126.98518892 619.90302236 -114.79641133 628.42370084 -104.05859375 637.43359375 C-101.9895758 639.18281365 -101.9895758 639.18281365 -99 640 C-99 639.34 -99 638.68 -99 638 C-97.42578125 636.44921875 -97.42578125 636.44921875 -95.3125 634.6875 C-92.05461686 631.91715219 -88.98569845 629.066393 -86 626 C124 416 124 416 126.6875 413.375 C129.11275676 411.02914245 129.11275676 411.02914245 131 408 C131.66 408 132.32 408 133 408 C132.55771383 403.12582592 130.11945966 400.33770692 127.0625 396.75 C118.2423985 385.9488976 111.26254927 374.31001905 107 361 C106.00353421 358.48280843 104.97213391 355.98280029 103.9296875 353.484375 C98.83788395 339.8777067 97.71948521 325.83743123 97.6875 311.4375 C97.68218262 310.24874268 97.67686523 309.05998535 97.67138672 307.83520508 C97.71830947 301.99496951 98.01567255 296.5780396 99.53076172 290.92358398 C100.04407834 288.81930631 100.26167951 286.7819 100.4375 284.625 C101.18942341 277.06619095 103.54864397 269.87333323 106.31640625 262.83203125 C106.97493532 261.06717335 107.49091386 259.25111937 108 257.4375 C108.85199192 254.50877779 109.90554452 251.85756922 111.15234375 249.08203125 C112.23158064 246.43118672 113.07131743 243.7276259 113.9375 241 C115.04613717 237.59821219 116.12557302 234.48803802 118 231.4375 C119.72195898 228.477883 120.77939545 225.95984969 121.875 222.75 C123.61514272 217.74279092 125.8850047 213.28641098 128.53515625 208.703125 C129.89570471 206.19245958 131.00322915 203.64856729 132.10473633 201.01708984 C133.9725959 196.8086754 136.16932135 192.76041659 138.3125 188.6875 C139.00375977 187.3581543 139.00375977 187.3581543 139.70898438 186.00195312 C142.52937154 180.62399651 145.51780928 175.38773007 148.67211914 170.19897461 C150.21115904 167.65032001 151.65447803 165.06060798 153.0625 162.4375 C155.67191506 157.6042299 158.32349204 152.79639702 161 148 C161.66 148 162.32 148 163 148 C163.33 146.35 163.66 144.7 164 143 C164.66 143 165.32 143 166 143 C166.08765625 142.47019531 166.1753125 141.94039062 166.265625 141.39453125 C167.26460634 138.13721442 168.94545294 135.5740969 170.75 132.6875 C171.10908447 132.11080566 171.46816895 131.53411133 171.83813477 130.93994141 C173.77927342 127.84719121 175.78437876 124.8237027 177.9375 121.875 C180.12073491 119.1312083 180.12073491 119.1312083 181 116 C181.66 116 182.32 116 183 116 C183.226875 115.319375 183.45375 114.63875 183.6875 113.9375 C185.08562547 110.80836205 186.81090901 108.36076623 188.87890625 105.6484375 C190.19132292 103.87939685 190.19132292 103.87939685 191 101 C191.66 101 192.32 101 193 101 C193.27166992 100.26426758 193.54333984 99.52853516 193.82324219 98.77050781 C194.94460574 96.13041785 196.19402165 94.01950496 197.828125 91.671875 C198.65763672 90.47111328 198.65763672 90.47111328 199.50390625 89.24609375 C200.08011719 88.42238281 200.65632813 87.59867187 201.25 86.75 C202.38074673 85.12016506 203.51095716 83.48995792 204.640625 81.859375 C205.19685547 81.06208984 205.75308594 80.26480469 206.32617188 79.44335938 C208.53524869 76.21867432 210.63990342 72.92915063 212.72949219 69.62597656 C213.14875977 69.0894043 213.56802734 68.55283203 214 68 C214.66 68 215.32 68 216 68 C216.32484375 67.00419922 216.32484375 67.00419922 216.65625 65.98828125 C218.45136558 61.99623643 220.90274929 58.69412402 223.5 55.1875 C223.99886719 54.49462891 224.49773437 53.80175781 225.01171875 53.08789062 C225.49253906 52.43369141 225.97335937 51.77949219 226.46875 51.10546875 C226.90638672 50.50887451 227.34402344 49.91228027 227.79492188 49.29760742 C228.19259766 48.86939697 228.59027344 48.44118652 229 48 C229.66 48 230.32 48 231 48 C231.37125 46.9171875 231.37125 46.9171875 231.75 45.8125 C233.10983674 42.75286734 234.82917754 40.5326262 237 38 C239.1875 38.0625 239.1875 38.0625 242 39 C244.38627358 41.56685645 247 44.38918448 247 48 C247.66 48 248.32 48 249 48 C250.42041016 49.62060547 250.42041016 49.62060547 252.0390625 51.8671875 C252.90917969 53.07181641 252.90917969 53.07181641 253.796875 54.30078125 C254.70179688 55.57501953 254.70179688 55.57501953 255.625 56.875 C256.23601562 57.71675781 256.84703125 58.55851562 257.4765625 59.42578125 C262 65.73638044 262 65.73638044 262 68 C262.66 68 263.32 68 264 68 C265.26953125 69.7734375 265.26953125 69.7734375 266.8125 72.375 C270.74440357 78.77790879 275.14702012 84.78739138 279.64379883 90.80419922 C280.19189209 91.54814941 280.73998535 92.29209961 281.3046875 93.05859375 C281.79952637 93.72173584 282.29436523 94.38487793 282.80419922 95.06811523 C284.03496135 97.05648206 284.56793598 98.71464222 285 101 C285.66 101 286.32 101 287 101 C287.5775 102.03125 288.155 103.0625 288.75 104.125 C290.15518443 106.5991283 291.63215318 108.97240014 293.25 111.3125 C295 114 295 114 295 116 C295.66 116 296.32 116 297 116 C297.53625 116.969375 298.0725 117.93875 298.625 118.9375 C300.3007574 121.87898906 302.10456627 124.69533536 304 127.5 C305.81242774 130.1822109 307.54179353 132.86390736 309.125 135.6875 C310.96342574 139.05174051 310.96342574 139.05174051 313.25 142.25 C315 145 315 145 315 148 C315.66 148 316.32 148 317 148 C317.61488281 149.13888672 317.61488281 149.13888672 318.2421875 150.30078125 C318.78101563 151.29464844 319.31984375 152.28851563 319.875 153.3125 C320.67550781 154.79169922 320.67550781 154.79169922 321.4921875 156.30078125 C323.00722126 159.09586458 323.00722126 159.09586458 325 162 C325 162.99 325 163.98 325 165 C325.66 165 326.32 165 327 165 C327.37511719 165.76183594 327.75023437 166.52367187 328.13671875 167.30859375 C330.82221785 172.72694333 333.56407635 178.08292723 336.53125 183.3515625 C352.77637935 212.6446415 352.77637935 212.6446415 358.00390625 226.4453125 C359.26255187 229.67336832 360.66772396 232.82850437 362.0625 236 C364.15813771 240.84780352 365.87689373 245.61223476 367.28515625 250.6953125 C368.28081001 253.90534374 369.68942953 256.8777675 371.09375 259.92578125 C372.38513418 262.88149246 373.19292865 265.87932412 374 269 C374.37125 270.2684375 374.37125 270.2684375 374.75 271.5625 C376.21369563 276.62913872 377.304818 281.45175585 377.73168945 286.70849609 C377.98456378 288.86816709 378.4442712 290.80352269 379.01171875 292.8984375 C380.45080672 299.22262817 380.29094334 305.54459984 380.25 312 C380.25773437 313.21945312 380.26546875 314.43890625 380.2734375 315.6953125 C380.2588495 322.44955826 379.69320841 328.47814296 378 335 C377.79687487 336.53728789 377.61938586 338.07895314 377.5 339.625 C376.81983303 346.29985889 374.59472319 352.19816895 372.046875 358.35546875 C371.37772849 360.04581273 370.75759301 361.75692772 370.203125 363.48828125 C365.73958857 377.36314212 357.01572354 389.7040351 348 401 C347.29617188 401.93328125 346.59234375 402.8665625 345.8671875 403.828125 C344.94292969 404.90320313 344.94292969 404.90320313 344 406 C343.34 406 342.68 406 342 406 C341.78730469 406.54398437 341.57460937 407.08796875 341.35546875 407.6484375 C339.51218005 410.84630435 337.00729527 413.15480419 334.3125 415.625 C333.74088135 416.14989014 333.1692627 416.67478027 332.58032227 417.21557617 C326.21390768 422.91102692 319.25369958 427.52270273 312 432 C310.94554687 432.66 309.89109375 433.32 308.8046875 434 C299.40259732 439.69526089 289.48540287 443.76427021 279 447 C277.906875 447.350625 276.81375 447.70125 275.6875 448.0625 C270.50983807 449.37885473 265.27438296 450.17305458 260 451 C259.08976074 451.17112305 258.17952148 451.34224609 257.24169922 451.51855469 C251.91908704 452.30904958 246.5966406 452.18595086 241.22436523 452.18530273 C239.20339688 452.18748285 237.18298102 452.20565832 235.16210938 452.22460938 C228.08242779 452.23516032 221.83926868 451.81449986 215 450 C213.52351901 449.82910452 212.04412473 449.68077738 210.5625 449.5625 C202.92627179 448.8028752 195.96621891 446.10991916 189 443 C187.39723598 442.37141174 185.7929466 441.74670483 184.1875 441.125 C179.67319374 439.36331951 175.51612555 437.18288255 171.32421875 434.7578125 C168.95973532 433.75105338 168.95973532 433.75105338 166.36328125 434.72265625 C163.31575672 436.36983066 161.3555483 438.46778558 159 441 C-61 661 -61 661 -63.6875 663.625 C-66.11275676 665.97085755 -66.11275676 665.97085755 -68 669 C-68.66 669 -69.32 669 -70 669 C-69.34 670.98 -68.68 672.96 -68 675 C-67.34 675 -66.68 675 -66 675 C-64.18156681 677.40346808 -62.48282471 679.80869448 -60.8125 682.3125 C-60.32072266 683.04001465 -59.82894531 683.7675293 -59.32226562 684.51708984 C-45 705.78931464 -45 705.78931464 -45 710 C-43.82205431 709.9971521 -43.82205431 709.9971521 -42.62031174 709.99424666 C3.95946911 709.88226997 50.53923526 709.79652363 97.11912382 709.74467335 C102.71646037 709.73842009 108.31379666 709.73194845 113.91113281 709.7253418 C115.02542577 709.72403024 116.13971873 709.72271869 117.28777814 709.7213674 C135.31215386 709.69963191 153.33644955 709.66022061 171.36077785 709.61423602 C189.86593319 709.56741971 208.37104672 709.53969366 226.87625885 709.52955753 C238.28794833 709.52270911 249.69941159 709.50110681 261.11103141 709.46041767 C268.94453917 709.43391541 276.77793058 709.42601591 284.61147988 709.43249311 C289.12591106 709.43568437 293.6399479 709.43091574 298.15430832 709.40397263 C302.29783343 709.37942502 306.44070355 709.37854968 310.58426046 709.39550553 C312.0731085 709.39759734 313.56199946 709.39143768 315.05076456 709.37558409 C333.64870913 709.1892608 349.04959073 714.85543471 362.6796875 727.65234375 C375.76779343 740.89468662 380.48958694 756.48345104 380.3984375 774.8125 C380.40130768 776.10260986 380.40417786 777.39271973 380.40713501 778.72192383 C380.41152302 781.4348445 380.40524279 784.14746606 380.39111328 786.86035156 C380.37402302 790.3062777 380.38388341 793.75150243 380.40183067 797.19740295 C380.4153895 800.52748878 380.40584617 803.85739437 380.3984375 807.1875 C380.40451019 808.40864502 380.41058289 809.62979004 380.4168396 810.88793945 C380.33423988 821.06309867 378.29274198 829.80126719 374 839 C373.34 839 372.68 839 372 839 C371.87625 839.5775 371.7525 840.155 371.625 840.75 C370.99351176 843.02335767 370.11141809 844.9253529 369 847 C368.34 847 367.68 847 367 847 C366.773125 847.556875 366.54625 848.11375 366.3125 848.6875 C362.0092689 856.26938336 353.15361071 862.71800176 345.31933594 866.12280273 C344.51010681 866.47632309 343.70087769 866.82984344 342.86712646 867.19407654 C342.25097473 867.46003128 341.634823 867.72598602 341 868 C340.99761165 869.01138881 340.99522329 870.02277761 340.99276257 871.06481457 C340.93377672 895.75735372 340.85777737 920.4497968 340.76428509 945.14223003 C340.71945906 957.08366191 340.68001449 969.02506484 340.65356445 980.96655273 C340.63047698 991.38360743 340.59696048 1001.8005695 340.55129844 1012.21755058 C340.52751022 1017.72520875 340.50868765 1023.232776 340.50238609 1028.74048424 C340.49626935 1033.9419124 340.4760368 1039.14310838 340.44572449 1044.34445 C340.43704846 1046.2368177 340.43319952 1048.12921589 340.43499184 1050.02160263 C340.44881306 1071.37952836 338.60658456 1094.46713955 328.95581055 1113.91479492 C328.01631307 1115.96441126 327.34247417 1117.96953957 326.6875 1120.125 C324.97924588 1125.32779636 322.66542734 1130.09476762 320.125 1134.9375 C319.65247803 1135.84048828 319.17995605 1136.74347656 318.69311523 1137.67382812 C313.63839661 1147.06832388 307.51938323 1155.57825468 301 1164 C300.25621094 1164.99 299.51242187 1165.98 298.74609375 1167 C298.16988281 1167.66 297.59367187 1168.32 297 1169 C296.34 1169 295.68 1169 295 1169 C294.73832031 1169.58910156 294.47664063 1170.17820312 294.20703125 1170.78515625 C292.9357725 1173.11785434 291.59769469 1174.60354368 289.6875 1176.4375 C289.06617188 1177.03820313 288.44484375 1177.63890625 287.8046875 1178.2578125 C287.20914062 1178.83273437 286.61359375 1179.40765625 286 1180 C284.6696875 1181.3921875 284.6696875 1181.3921875 283.3125 1182.8125 C281.24155355 1184.7715034 279.61637891 1185.93406785 277 1187 C277 1187.66 277 1188.32 277 1189 C275.18220313 1190.59402086 273.36849367 1192.05327587 271.4375 1193.5 C270.85178223 1193.94142334 270.26606445 1194.38284668 269.66259766 1194.83764648 C267.78458367 1196.23858233 265.89511964 1197.62230589 264 1199 C263.41202637 1199.42941895 262.82405273 1199.85883789 262.21826172 1200.30126953 C252.78311373 1207.10897447 242.86671231 1212.27250418 232.24853516 1216.99755859 C230.73774022 1217.67110083 229.23219983 1218.35654359 227.73193359 1219.05322266 C222.70413371 1221.36481738 217.70271299 1223.14182715 212.375 1224.625 C211.6634375 1224.82867188 210.951875 1225.03234375 210.21875 1225.2421875 C208.88412678 1225.62350842 207.54878541 1226.00233467 206.21240234 1226.37744141 C204.43949633 1226.876328 202.67443305 1227.40305085 200.91232681 1227.9388355 C182.58433833 1233.13377256 163.28890992 1232.43432321 144.42333978 1232.38540266 C140.15700713 1232.37771099 135.89070621 1232.3876042 131.6243782 1232.39513266 C124.16563626 1232.4059129 116.70695958 1232.40567301 109.24821472 1232.39799118 C98.15642004 1232.38659894 87.06467997 1232.39246811 75.97288561 1232.4016161 C56.15787105 1232.41738135 36.34288557 1232.41605692 16.52786827 1232.40737936 C-0.81292654 1232.39982293 -18.15371071 1232.39786714 -35.49450684 1232.4014473 C-36.6462289 1232.40167645 -37.79795096 1232.40190561 -38.98457369 1232.40214171 C-43.66017409 1232.40307577 -48.33577449 1232.40403098 -53.01137488 1232.405021 C-96.84274321 1232.41419124 -140.67409305 1232.40588833 -184.50545853 1232.38973031 C-223.41901351 1232.37549425 -262.33253903 1232.37676816 -301.24609375 1232.39111328 C-344.99897844 1232.40718859 -388.75184681 1232.4135408 -432.50473404 1232.40427649 C-437.17165374 1232.40331439 -441.83857345 1232.40237586 -446.50549316 1232.4014473 C-448.22907583 1232.40109145 -448.22907583 1232.40109145 -449.98747835 1232.40072841 C-467.31436994 1232.39732071 -484.6412497 1232.40129803 -501.96813965 1232.40888596 C-521.67605704 1232.41747375 -541.38394087 1232.41529788 -561.0918541 1232.39904372 C-572.11206786 1232.39025378 -583.13220891 1232.38963244 -594.15242074 1232.40098225 C-601.52425083 1232.40773515 -608.89602292 1232.40347642 -616.26784445 1232.39046794 C-620.46074039 1232.38336873 -624.65349244 1232.38081325 -628.84638357 1232.39168589 C-650.42050301 1232.44349372 -671.37250155 1231.94891146 -692.125 1225.4375 C-693.14980469 1225.13392578 -694.17460938 1224.83035156 -695.23046875 1224.51757812 C-702.53803119 1222.3079792 -702.53803119 1222.3079792 -706 1220 C-707.34272517 1219.52242662 -708.70032556 1219.0856564 -710.06640625 1218.6796875 C-715.30002411 1216.98692436 -720.073331 1214.67667268 -724.9375 1212.125 C-726.29198242 1211.41621704 -726.29198242 1211.41621704 -727.67382812 1210.69311523 C-737.06832388 1205.63839661 -745.57825468 1199.51938323 -754 1193 C-754.99 1192.25621094 -755.98 1191.51242187 -757 1190.74609375 C-757.99 1189.88177734 -757.99 1189.88177734 -759 1189 C-759 1188.34 -759 1187.68 -759 1187 C-759.556875 1186.773125 -760.11375 1186.54625 -760.6875 1186.3125 C-763.65855185 1184.62622733 -765.64522125 1182.469646 -768 1180 C-768.845625 1179.154375 -769.69125 1178.30875 -770.5625 1177.4375 C-771.366875 1176.633125 -772.17125 1175.82875 -773 1175 C-773.763125 1174.278125 -774.52625 1173.55625 -775.3125 1172.8125 C-777 1171 -777 1171 -777 1169 C-777.66 1169 -778.32 1169 -779 1169 C-780.59402086 1167.18220313 -782.05327587 1165.36849367 -783.5 1163.4375 C-783.94142334 1162.85178223 -784.38284668 1162.26606445 -784.83764648 1161.66259766 C-786.23858233 1159.78458367 -787.62230589 1157.89511964 -789 1156 C-789.42941895 1155.41202637 -789.85883789 1154.82405273 -790.30126953 1154.21826172 C-797.60107433 1144.10108725 -802.93490113 1133.37241755 -808 1122 C-808.34756348 1121.24501221 -808.69512695 1120.49002441 -809.05322266 1119.7121582 C-811.26541817 1114.86785488 -813.09203203 1110.03562704 -814.625 1104.9375 C-814.93050781 1103.95426758 -814.93050781 1103.95426758 -815.2421875 1102.95117188 C-817.31843161 1096.18341463 -819.03851928 1089.45047721 -820.0625 1082.4375 C-820.21847656 1081.38433594 -820.37445312 1080.33117188 -820.53515625 1079.24609375 C-820.68855469 1078.17488281 -820.84195313 1077.10367187 -821 1076 C-821.17132415 1074.95279502 -821.3426483 1073.90559004 -821.51916409 1072.82665157 C-822.03896425 1068.6899096 -822.15287343 1064.68981305 -822.15821838 1060.52748108 C-822.16562535 1059.28731858 -822.16562535 1059.28731858 -822.17318195 1058.0221023 C-822.18847648 1055.26612024 -822.19689564 1052.51016134 -822.20532227 1049.75415039 C-822.21490712 1047.77284544 -822.22491756 1045.79154252 -822.23532104 1043.8102417 C-822.26231033 1038.44100569 -822.2833522 1033.07176095 -822.30332303 1027.70249486 C-822.32521951 1022.08773416 -822.35259026 1016.47300021 -822.37937927 1010.85826111 C-822.42925668 1000.23017709 -822.47421386 989.60207819 -822.51740164 978.97396511 C-822.56681636 966.8724434 -822.62171877 954.77094852 -822.67708123 942.66945279 C-822.79082525 917.77966024 -822.89768076 892.88984194 -823 868 C-823.82890747 867.59193619 -824.65781494 867.18387238 -825.51184082 866.76344299 C-827.13889954 865.95736855 -827.13889954 865.95736855 -828.79882812 865.13500977 C-829.8752356 864.60319595 -830.95164307 864.07138214 -832.06066895 863.52345276 C-835.15101644 861.92172831 -837.82685026 860.16665056 -840.5 857.9375 C-841.2734375 857.30714844 -842.046875 856.67679688 -842.84375 856.02734375 C-845.17372185 853.8366637 -847.12733019 851.59194527 -849 849 C-849 848.34 -849 847.68 -849 847 C-849.66 847 -850.32 847 -851 847 C-853.04169485 844.09451118 -854 842.59857954 -854 839 C-854.66 839 -855.32 839 -856 839 C-860.86361582 828.57796609 -862.4668331 818.83575849 -862.46875 807.36328125 C-862.47636353 806.08502975 -862.48397705 804.80677826 -862.49182129 803.48979187 C-862.50517017 800.79787373 -862.50688 798.10624832 -862.50097656 795.41430664 C-862.49627077 792.68827128 -862.51008601 789.96339989 -862.54199219 787.23754883 C-862.82397393 762.88471084 -860.81523725 744.79406624 -843.50390625 726.4765625 C-831.55565981 714.65879613 -816.4111927 709.62538156 -799.79136068 709.61275607 C-798.35381014 709.62131161 -796.91626126 709.63014832 -795.47871399 709.63923645 C-793.92654344 709.63792614 -792.37437354 709.63529558 -790.82220715 709.63146895 C-786.58278516 709.62479628 -782.34359278 709.63671199 -778.10420001 709.65180314 C-773.52289216 709.66480597 -768.94159638 709.66037104 -764.36027527 709.65809631 C-756.43138393 709.65652626 -748.50256688 709.66590744 -740.57369423 709.68280983 C-729.1100064 709.70723161 -717.64635434 709.71500835 -706.18264332 709.7187738 C-687.58178419 709.7253333 -668.98096462 709.74528085 -650.38012695 709.77368164 C-632.31535031 709.8012352 -614.25058444 709.82246243 -596.18579102 709.83520508 C-595.07154463 709.83599325 -593.95729824 709.83678142 -592.80928681 709.83759347 C-587.21922121 709.8415087 -581.62915553 709.84529979 -576.0390898 709.84902918 C-529.69269914 709.88010947 -483.34635162 709.9329316 -437 710 C-436.69312256 709.22309814 -436.38624512 708.44619629 -436.07006836 707.64575195 C-431.94891815 697.45617751 -425.4369124 688.56337692 -419.14160156 679.63476562 C-418.07301549 678.10455768 -417.03528703 676.55293055 -416 675 C-415.34 675 -414.68 675 -414 675 C-413.34 673.02 -412.68 671.04 -412 669 C-412.66 669 -413.32 669 -414 669 C-415.55078125 667.42578125 -415.55078125 667.42578125 -417.3125 665.3125 C-420.08284781 662.05461686 -422.933607 658.98569845 -426 656 C-556 526 -556 526 -558.625 523.3125 C-560.97085755 520.88724324 -560.97085755 520.88724324 -564 519 C-564 518.34 -564 517.68 -564 517 C-564.66 517 -565.32 517 -566 517 C-566 517.66 -566 518.32 -566 519 C-568.31718039 520.36924296 -570.64618093 521.6954257 -573 523 C-573.88429688 523.49371094 -574.76859375 523.98742187 -575.6796875 524.49609375 C-591.18306779 532.74126019 -609.56182819 534.93025607 -626.625 530.3125 C-635.88959546 527.18433659 -644.30272353 522.93308758 -652.72949219 518.01708984 C-656.50552373 515.82078437 -660.32329718 513.79550549 -664.25 511.875 C-667.90667799 510.08525391 -671.4109364 508.20074121 -674.875 506.0625 C-678.80988887 503.63957004 -682.85219395 501.52947018 -687 499.5 C-691.99893004 497.05408538 -696.77427665 494.3903241 -701.5078125 491.46484375 C-705.25433751 489.26273266 -709.16156803 487.41066056 -713.0625 485.5 C-715.79279213 484.10580827 -718.39018431 482.60604042 -721 481 C-725.57908697 478.18492727 -730.3077138 475.80036302 -735.12890625 473.4296875 C-741.18376106 470.41461694 -746.99293024 467.00442453 -752.8125 463.5625 C-757.81714479 460.62457638 -762.9229167 458.01566286 -768.1328125 455.46484375 C-771.69426359 453.6453013 -775.06240425 451.57801069 -778.46484375 449.48046875 C-781.10769175 447.93711067 -783.79830946 446.62502041 -786.5625 445.3125 C-794.81146787 441.27349759 -802.40617437 436.14190662 -810 431 C-810.68239746 430.54383301 -811.36479492 430.08766602 -812.06787109 429.61767578 C-813.74956173 428.4648665 -815.38039562 427.238521 -817 426 C-817 425.34 -817 424.68 -817 424 C-817.66 424 -818.32 424 -819 424 C-819 423.34 -819 422.68 -819 422 C-819.56203125 421.7628125 -820.1240625 421.525625 -820.703125 421.28125 C-823.51894042 419.71052303 -825.47955416 417.78528536 -827.75 415.5 C-828.54921875 414.7059375 -829.3484375 413.911875 -830.171875 413.09375 C-832 411 -832 411 -832 409 C-832.66 409 -833.32 409 -834 409 C-835.69376811 406.69767449 -837.26775986 404.399632 -838.8125 402 C-839.26318848 401.3088208 -839.71387695 400.6176416 -840.17822266 399.90551758 C-841.06578226 398.54141267 -841.95031162 397.17533049 -842.83154297 395.80712891 C-843.74983628 394.38690176 -844.68608199 392.97828077 -845.62890625 391.57421875 C-848.87426255 386.66040341 -850.92995321 381.49518444 -853 376 C-854.01838361 373.5044006 -855.04297696 371.01145672 -856.0703125 368.51953125 C-864.91354604 344.55362521 -866.56758315 311.86520447 -855.9609375 288.1796875 C-855.00875767 286.01986495 -854.30791013 283.88262054 -853.625 281.625 C-849.01208418 267.53824632 -840.37886649 255.29010609 -831 244 C-830.48953125 243.35417969 -829.9790625 242.70835937 -829.453125 242.04296875 C-828.34914392 240.65649839 -827.18176561 239.32079686 -826 238 C-825.34 238 -824.68 238 -824 238 C-824 237.34 -824 236.68 -824 236 C-819.43523945 230.99772246 -813.54803739 227.0807396 -808.125 223.0625 C-807.12521118 222.31722046 -807.12521118 222.31722046 -806.10522461 221.55688477 C-801.24147535 218 -801.24147535 218 -799 218 C-799 217.01 -799 216.02 -799 215 C-799.54164795 214.83781982 -800.0832959 214.67563965 -800.64135742 214.50854492 C-806.53914847 212.65477275 -811.87209208 210.23286305 -817.3125 207.3125 C-818.13339111 206.87550781 -818.95428223 206.43851563 -819.80004883 205.98828125 C-826.41142695 202.4189801 -833.15864848 198.75702878 -839 194 C-839 193.34 -839 192.68 -839 192 C-839.99 191.67 -840.98 191.34 -842 191 C-842 190.34 -842 189.68 -842 189 C-842.66 189 -843.32 189 -844 189 C-844 188.34 -844 187.68 -844 187 C-844.66 187 -845.32 187 -846 187 C-851.55466571 180.67585679 -855.36039328 173.94444742 -858 166 C-858.28617188 165.18015625 -858.57234375 164.3603125 -858.8671875 163.515625 C-864.50692112 147.07982987 -863.68464168 128.60409683 -856.23242188 112.86474609 C-844.05609915 88.22191725 -844.05609915 88.22191725 -834.25390625 83.74609375 C-833.51011719 83.49988281 -832.76632812 83.25367187 -832 83 C-832 82.34 -832 81.68 -832 81 C-815.00477503 71.22542389 -798.35820711 66.90082694 -778.6875 71 C-771.31145808 73.16942409 -764.63064861 77.18647123 -758 81 C-758 81.66 -758 82.32 -758 83 C-757.33613281 83.2165625 -756.67226563 83.433125 -755.98828125 83.65625 C-751.99623643 85.45136558 -748.69412402 87.90274929 -745.1875 90.5 C-744.49462891 90.99886719 -743.80175781 91.49773437 -743.08789062 92.01171875 C-742.43369141 92.49253906 -741.77949219 92.97335938 -741.10546875 93.46875 C-740.50887451 93.90638672 -739.91228027 94.34402344 -739.29760742 94.79492188 C-738.86939697 95.19259766 -738.44118652 95.59027344 -738 96 C-738 96.66 -738 97.32 -738 98 C-737.29488281 98.24492188 -736.58976562 98.48984375 -735.86328125 98.7421875 C-732.60236963 100.17467528 -730.03865885 101.99521869 -727.1875 104.125 C-726.21167969 104.84945312 -725.23585938 105.57390625 -724.23046875 106.3203125 C-723.49441406 106.87460938 -722.75835938 107.42890625 -722 108 C-722.03927612 106.89881836 -722.03927612 106.89881836 -722.0793457 105.77539062 C-722.76733921 83.52271962 -721.30672268 66.57064838 -706.125 49.25 C-698.90217503 41.60736851 -691.80668416 36.83031154 -682 33 C-680.78957031 32.51660156 -680.78957031 32.51660156 -679.5546875 32.0234375 C-663.87303483 26.76344742 -646.77668001 29.43342721 -632.140625 36.3515625 C-616.84177924 44.85620036 -606.59882218 58.1877953 -601.44702148 74.71459961 C-599.48674927 82.01066527 -599.62305686 89.24424966 -599.70703125 96.73046875 C-599.71264026 98.21689929 -599.71690417 99.70333545 -599.71989441 101.18977356 C-599.73124073 105.0646652 -599.76061711 108.93920884 -599.79400635 112.81396484 C-599.82493018 116.78282974 -599.83844697 120.75175196 -599.85351562 124.72070312 C-599.88549896 132.48062583 -599.93656813 140.24026379 -600 148 C-599.01257813 147.278125 -598.02515625 146.55625 -597.0078125 145.8125 C-595.71372097 144.87475251 -594.41944031 143.93726598 -593.125 143 C-592.47402344 142.52304688 -591.82304688 142.04609375 -591.15234375 141.5546875 C-586.2265625 138 -586.2265625 138 -584 138 C-584 137.34 -584 136.68 -584 136 C-582.37939453 134.57958984 -582.37939453 134.57958984 -580.1328125 132.9609375 C-579.32972656 132.38085938 -578.52664063 131.80078125 -577.69921875 131.203125 C-576.84972656 130.59984375 -576.00023437 129.9965625 -575.125 129.375 C-574.28324219 128.76398438 -573.44148438 128.15296875 -572.57421875 127.5234375 C-566.26361956 123 -566.26361956 123 -564 123 C-564 122.34 -564 121.68 -564 121 C-546.97385024 111.20763791 -530.25883045 106.8511996 -510.5625 111.0625 C-494.84082649 115.80782882 -480.04887631 126.63339077 -471.86474609 140.99169922 C-469.41680313 145.58725637 -467.19454647 150.27935687 -465 155 C-464.63003906 155.70253906 -464.26007813 156.40507812 -463.87890625 157.12890625 C-457.81826915 170.03132924 -458.14571185 188.35126466 -461.828125 201.84765625 C-465.40068117 211.45783235 -470.69047318 221.71022866 -478 229 C-478.66 229 -479.32 229 -480 229 C-480.33 229.99 -480.66 230.98 -481 232 C-481.66 232 -482.32 232 -483 232 C-482.52502764 237.25689749 -480.50630891 240.85721278 -477.6875 245.1875 C-473.88352641 251.2626476 -471.16265855 257.14603597 -469 264 C-468.48780016 265.35745573 -467.96751596 266.71190095 -467.4375 268.0625 C-454.05741892 304.15255654 -457.83339568 344.03311769 -473.6875 378.625 C-477.84533227 387.31317528 -483.05961838 395.31933101 -488.30664062 403.37792969 C-491.36440763 408.11270731 -494.33300673 412.90323653 -497.3125 417.6875 C-498.58964965 419.73319411 -499.86699488 421.77876612 -501.14453125 423.82421875 C-501.78213379 424.84563965 -502.41973633 425.86706055 -503.07666016 426.91943359 C-506.83059035 432.9320118 -510.58849899 438.94210407 -514.34570312 444.95263672 C-517.28015847 449.64730145 -520.21405989 454.34230902 -523.14590454 459.03860474 C-524.19348279 460.71657978 -525.24127127 462.39442357 -526.2890625 464.07226562 C-527.6110447 466.1892236 -528.93267464 468.30640161 -530.25390625 470.42382812 C-531.14335938 471.84791992 -531.14335938 471.84791992 -532.05078125 473.30078125 C-532.57325439 474.13778564 -533.09572754 474.97479004 -533.6340332 475.8371582 C-534.73104098 477.57413621 -535.86042941 479.29064412 -537 481 C-536.9067052 484.54520242 -536.14123482 485.84307243 -533.75 488.5 C-532.8425 489.325 -531.935 490.15 -531 491 C-391 631 -391 631 -388.375 633.6875 C-386.02914245 636.11275676 -386.02914245 636.11275676 -383 638 C-383 638.66 -383 639.32 -383 640 C-381.02 639.34 -379.04 638.68 -377 638 C-377 637.34 -377 636.68 -377 636 C-375.1813437 634.57105576 -373.29059147 633.23361022 -371.375 631.9375 C-370.79395508 631.54336914 -370.21291016 631.14923828 -369.61425781 630.74316406 C-367.74954397 629.4850559 -365.87660376 628.24029519 -364 627 C-363.39124023 626.5973291 -362.78248047 626.1946582 -362.15527344 625.77978516 C-352.89272966 619.68181954 -343.79629671 613.94055329 -333.40234375 609.96875 C-331.18097488 609.07297849 -329.11339597 608.06010873 -327 606.9375 C-323.28057258 605.02165811 -319.51054497 603.84682578 -315.4921875 602.7109375 C-313.19713858 602.05623702 -310.9462044 601.33194875 -308.6875 600.5625 C-293.48419487 595.44988412 -278.17869394 591 -262 591 C-262 515.1 -262 439.2 -262 361 C-268.93 364.96 -268.93 364.96 -276 369 C-282.75 372.375 -282.75 372.375 -285.671875 373.7734375 C-288.10694191 374.90960657 -288.10694191 374.90960657 -290 377 C-290.99 377 -291.98 377 -293 377 C-293 377.66 -293 378.32 -293 379 C-294.5801967 379.91300254 -296.16212507 380.82307388 -297.75 381.72265625 C-299.36011681 382.63673298 -300.96357638 383.56257584 -302.5625 384.49609375 C-315.8921748 392.08870681 -329.74449335 394.47307557 -344.875 390.9375 C-359.49874833 386.16790824 -369.43885194 377.06763631 -377 364 C-380.1275884 357.50216547 -382.11451089 351.34617954 -382.14044189 344.09153748 C-382.14615204 343.12911133 -382.15186218 342.16668518 -382.15774536 341.1750946 C-382.15886322 340.13045547 -382.15998108 339.08581635 -382.16113281 338.00952148 C-382.16609772 336.89974945 -382.17106262 335.78997742 -382.17617798 334.64657593 C-382.19078971 330.97140886 -382.19760378 327.29628511 -382.203125 323.62109375 C-382.20888195 321.0529836 -382.21463961 318.48487345 -382.22039795 315.91676331 C-382.22956562 311.21153997 -382.23586382 306.50633378 -382.2388947 301.80110306 C-382.24334838 294.92793427 -382.26076874 288.05496705 -382.2898953 281.18185943 C-382.31438098 275.19060926 -382.32185208 269.199452 -382.32357025 263.20814705 C-382.32656891 260.68198622 -382.33450129 258.15582564 -382.34775543 255.6296978 C-382.53691124 216.77008772 -373.4192663 182.84116547 -353.00292969 149.65771484 C-352.08576897 148.14176516 -351.21602377 146.59738849 -350.3515625 145.05078125 C-349.90554688 144.37402344 -349.45953125 143.69726562 -349 143 C-348.34 143 -347.68 143 -347 143 C-346.7525 142.46375 -346.505 141.9275 -346.25 141.375 C-344.69347463 138.4176018 -342.96564327 135.70275949 -341 133 C-340.34 133 -339.68 133 -339 133 C-338.731875 132.4225 -338.46375 131.845 -338.1875 131.25 C-336.97070811 128.94449957 -335.69666121 126.97943808 -334 125 C-333.34 125 -332.68 125 -332 125 C-332 124.34 -332 123.68 -332 123 C-331.34 123 -330.68 123 -330 123 C-329.67 122.01 -329.34 121.02 -329 120 C-328.34 120 -327.68 120 -327 120 C-327 119.34 -327 118.68 -327 118 C-325.35546875 116.30859375 -325.35546875 116.30859375 -323.1875 114.4375 C-322.47980469 113.81746094 -321.77210938 113.19742188 -321.04296875 112.55859375 C-319 111 -319 111 -316 110 C-316 109.34 -316 108.68 -316 108 C-313.76360773 106.19788734 -311.53217136 104.52435503 -309.1875 102.875 C-308.22360352 102.17310547 -308.22360352 102.17310547 -307.24023438 101.45703125 C-302.37720937 98 -302.37720937 98 -299 98 C-299 97.34 -299 96.68 -299 96 C-281.48044489 85.82654077 -264.19526685 78.41105013 -244.68359375 72.74609375 C-243.93819336 72.52888672 -243.19279297 72.31167969 -242.42480469 72.08789062 C-240.9798233 71.66783056 -239.53391636 71.25093545 -238.08691406 70.83789062 C-233.90572567 69.62728376 -229.83899329 68.23880467 -225.7746582 66.68041992 C-223.69840418 65.88436545 -221.60742071 65.14672812 -219.5 64.4375 C-218.49453125 64.09525391 -218.49453125 64.09525391 -217.46875 63.74609375 C-215.42854596 63.1295131 -213.3628336 62.59804028 -211.29296875 62.08984375 C-206.73271498 60.96755649 -202.28140343 59.5635039 -197.8125 58.125 C-196.12511813 57.58686904 -194.43761781 57.04910933 -192.75 56.51171875 C-191.9353125 56.25181152 -191.120625 55.9919043 -190.28125 55.72412109 C-186.27574268 54.45268116 -182.25650454 53.2265789 -178.23828125 51.99609375 C-173.80360184 50.6319885 -169.37554138 49.24697045 -164.94946289 47.85522461 C-161.81082401 46.869983 -158.67018387 45.90238626 -155.515625 44.96875 C-148.10684436 42.77092991 -141.09005574 40.0626793 -134 37 C-132.04186 36.20785525 -130.08352506 35.41619224 -128.125 34.625 C-122.54685439 32.3025814 -117.18295282 29.64041145 -111.80078125 26.8984375 C-106.8840397 24.41333822 -101.8758936 22.11900832 -96.8605957 19.84057617 C-92.63021246 17.88650119 -88.82941733 15.68563821 -85 13 C-80.39285714 10 -80.39285714 10 -77 10 C-77 9.34 -77 8.68 -77 8 C-74.09451118 5.95830515 -72.59857954 5 -69 5 C-69 4.34 -69 3.68 -69 3 C-67.4198033 2.08699746 -65.83787493 1.17692612 -64.25 0.27734375 C-62.63988319 -0.63673298 -61.03642362 -1.56257584 -59.4375 -2.49609375 C-39.67078518 -13.75525944 -18.90207452 -12.80095243 0 0 Z " fill="#000000" transform="translate(881,29)"/>
<path d="M0 0 C41.60676618 -0.11435528 83.21351429 -0.20250302 124.8204064 -0.25532665 C129.7284971 -0.26158045 134.63658749 -0.26805203 139.54467773 -0.2746582 C140.52182183 -0.27596976 141.49896593 -0.27728131 142.50572046 -0.2786326 C158.34349835 -0.30041034 174.18118583 -0.33984486 190.01891003 -0.38576398 C206.2605871 -0.43246281 222.50221671 -0.46028145 238.74395818 -0.47044247 C248.77223675 -0.47731531 258.80025981 -0.49904989 268.82845976 -0.53958233 C275.69800765 -0.56593962 282.56742277 -0.57401698 289.4370176 -0.56750689 C293.40506183 -0.56429299 297.37265849 -0.56934183 301.34062386 -0.59602737 C304.96969923 -0.62025657 308.59802365 -0.62165618 312.2271327 -0.60449447 C314.16951633 -0.60136214 316.11189039 -0.62302019 318.05414754 -0.64540654 C319.19919104 -0.6354513 320.34423454 -0.62549606 321.52397633 -0.61523914 C322.51618555 -0.61713775 323.50839477 -0.61903635 324.53067094 -0.62099248 C327 0 327 0 328.77903432 2.39241058 C329.91509586 4.8186721 330.96800579 7.21986756 331.90234375 9.73046875 C332.23556641 10.61669922 332.56878906 11.50292969 332.91210938 12.41601562 C333.25048828 13.33060547 333.58886719 14.24519531 333.9375 15.1875 C339.28407597 29.49654437 344.69490186 43.20830409 353.54296875 55.8046875 C354.7383069 57.60570638 355.82691568 59.47712531 356.8828125 61.36328125 C361.9335352 70.29468425 369.00052003 78.2437383 375.94140625 85.75 C377.7456218 87.72196994 379.43267593 89.74553931 381.125 91.8125 C418.54073078 134.45102158 477.99008818 155.37632225 533 159 C588.91907182 162.11014134 644.03027717 139.76934521 685.515625 103.171875 C695.14395082 94.50094203 704.13986643 85.3181612 712 75 C712.6511377 74.14752686 712.6511377 74.14752686 713.31542969 73.27783203 C722.2578505 61.51000674 729.94946392 49.47940145 736.4375 36.1875 C736.85580078 35.34251953 737.27410156 34.49753906 737.70507812 33.62695312 C741.13400644 26.4319099 743.91134853 19.03424024 746.68774414 11.56762695 C747.10344917 10.45415138 747.51915421 9.34067581 747.94745636 8.19345856 C748.9666118 5.46291273 749.98407748 2.73174995 751 0 C792.49642838 -0.02286788 833.99285603 -0.040499 875.48928946 -0.05106533 C880.38364741 -0.0523161 885.27800535 -0.05361042 890.17236328 -0.05493164 C891.14677908 -0.05519395 892.12119487 -0.05545626 893.12513842 -0.05572652 C908.92151334 -0.06008282 924.71788464 -0.06797015 940.51425742 -0.0771528 C956.71186459 -0.08649045 972.90946987 -0.09205585 989.10707963 -0.09408849 C999.10915114 -0.09546349 1009.11121242 -0.09981281 1019.11328079 -0.10791647 C1025.96363807 -0.1131853 1032.81399002 -0.11480398 1039.66434918 -0.11350138 C1043.62197474 -0.11285822 1047.57958235 -0.11387308 1051.53720474 -0.11920547 C1055.15551256 -0.12404533 1058.77379024 -0.12433475 1062.3920994 -0.12089889 C1064.33120207 -0.12027137 1066.27030435 -0.12460786 1068.20940197 -0.12908131 C1069.34897102 -0.12709026 1070.48854007 -0.12509921 1071.66264153 -0.12304783 C1073.1469683 -0.12361741 1073.1469683 -0.12361741 1074.66128147 -0.1241985 C1077 0 1077 0 1079 1 C1079.07023133 26.14849002 1079.12305721 51.29696524 1079.15543652 76.44553375 C1079.17087362 88.12371611 1079.19190252 99.80183735 1079.22631836 111.47998047 C1079.25631764 121.66437336 1079.27559792 131.84872197 1079.28226548 142.03315783 C1079.28615996 147.4205324 1079.2952461 152.80778034 1079.31719017 158.19511414 C1079.337722 163.2774546 1079.34380043 168.35961762 1079.33932304 173.44199562 C1079.34014084 175.29617595 1079.34600615 177.15036291 1079.35761642 179.00450706 C1079.44312877 193.37939048 1077.91365963 206.80450933 1073.6875 220.625 C1073.47730225 221.32246338 1073.26710449 222.01992676 1073.05053711 222.73852539 C1069.714568 233.47095399 1065.27805149 243.65296188 1059 253 C1058.57895996 253.63389648 1058.15791992 254.26779297 1057.72412109 254.92089844 C1045.58904368 273.01379788 1031.37982747 287.28939845 1013 299 C1012.40509766 299.38623535 1011.81019531 299.7724707 1011.19726562 300.17041016 C990.19787919 313.64521599 965.19580442 319.3385225 940.48544693 319.25447559 C939.05993315 319.25687084 937.63442062 319.26013948 936.20891058 319.26419219 C932.31138205 319.27276184 928.41395059 319.26900684 924.51642071 319.26313647 C920.26861065 319.25894921 916.02081775 319.26637769 911.77301192 319.27228898 C904.33450911 319.28103788 896.89603384 319.28236775 889.45752716 319.27878571 C878.39590286 319.27347302 867.33430516 319.27957971 856.27268374 319.28786864 C835.36608885 319.30310429 814.45950607 319.30481415 793.55290678 319.30234561 C777.40776471 319.30051251 761.26262662 319.30227292 745.11748505 319.30657005 C742.79740407 319.30717246 740.47732309 319.30777365 738.1572421 319.30837366 C734.66103894 319.30928092 731.16483577 319.31018958 727.66863261 319.31110601 C695.16489271 319.31953494 662.66115432 319.32387165 630.15741348 319.31969929 C628.93222639 319.31954291 627.70703929 319.31938654 626.44472532 319.31922542 C620.23508552 319.31841965 614.02544573 319.31757387 607.81580594 319.31671212 C605.96594722 319.31645549 605.96594722 319.31645549 604.07871761 319.31619367 C601.58480887 319.31584702 599.09090014 319.31549849 596.5969914 319.31514808 C557.79219101 319.30979094 518.98741334 319.31772136 480.18261719 319.33618164 C436.57778945 319.35690115 392.97297578 319.36762445 349.36814284 319.36360615 C344.71802124 319.36321081 340.06789963 319.36284927 335.41777802 319.36250877 C333.70033171 319.36237268 333.70033171 319.36237268 331.94818952 319.36223383 C314.66967993 319.36106824 297.39118456 319.36771327 280.11267853 319.37832069 C260.46008378 319.39037334 240.80752035 319.39193089 221.15492514 319.37953053 C210.1605706 319.37290364 199.16629095 319.37452909 188.17194241 319.38811904 C180.82217469 319.39637027 173.472463 319.39365722 166.12269983 319.38214377 C161.93897993 319.37589408 157.75540604 319.3742691 153.57169464 319.38600711 C121.88281682 319.46900942 121.88281682 319.46900942 108 316 C107.15474015 315.80803443 106.30948029 315.61606886 105.4386065 315.41828614 C97.12465407 313.42511876 89.19279795 310.4222489 81.375 307 C80.64095947 306.6800708 79.90691895 306.3601416 79.15063477 306.03051758 C74.31508255 303.83001665 70.26466043 301.16444091 66 298 C64.9275 297.4225 63.855 296.845 62.75 296.25 C34.1809589 280.25133698 13.76334257 249.57097389 4.76879883 218.79833984 C3.76453247 215.21314322 2.83497132 211.62837817 2 208 C1.82578081 207.29024364 1.65156162 206.58048727 1.47206306 205.84922314 C-0.54389386 196.51214996 -0.26588855 187.1664415 -0.22705078 177.66723633 C-0.22648584 175.72475185 -0.22680484 173.78226695 -0.22793579 171.83978271 C-0.22850708 166.59469571 -0.21678915 161.34970111 -0.20278788 156.10463548 C-0.19024305 150.61270513 -0.18910707 145.12077242 -0.18673706 139.62882996 C-0.18053329 129.24167276 -0.16413744 118.85455792 -0.14403808 108.46741933 C-0.12164469 96.63668184 -0.11067701 84.80594227 -0.10064721 72.97518885 C-0.07977021 48.65010247 -0.04461576 24.32505361 0 0 Z " fill="#CA9C75" transform="translate(100,900)"/>
<path d="M0 0 C0.8770459 0.21962402 1.7540918 0.43924805 2.65771484 0.66552734 C33.17320118 8.38039265 58.30651365 22.20699343 81 44 C81.56895996 44.54172852 82.13791992 45.08345703 82.72412109 45.64160156 C90.97441388 53.53357789 98.44765455 61.62949725 105 71 C105.65863037 71.93271729 105.65863037 71.93271729 106.33056641 72.88427734 C133.44481817 111.7137326 144.25363375 160.37914835 135.96875 207.12890625 C135.65317599 208.75404721 135.33023077 210.37777383 135 212 C134.83371094 212.82612793 134.66742187 213.65225586 134.49609375 214.50341797 C127.28698457 249.0070155 109.75068007 277.39172484 86 303 C85.46246094 303.59167969 84.92492187 304.18335938 84.37109375 304.79296875 C78.56446472 310.91976279 71.71459875 315.92219549 65 321 C63.72962891 321.96292969 63.72962891 321.96292969 62.43359375 322.9453125 C25.2705793 349.98439239 -22.90847333 360.32171149 -68.1875 353.8125 C-115.94744547 346.17735966 -160.29015371 319.2626319 -188.90625 280.0625 C-204.0629806 257.89295376 -213.69967667 234.29239336 -219 208 C-219.28037109 206.70497559 -219.28037109 206.70497559 -219.56640625 205.38378906 C-221.42855964 195.8435782 -221.39823948 186.30777947 -221.375 176.625 C-221.37412384 175.73571808 -221.37324768 174.84643616 -221.37234497 173.9302063 C-221.32785961 160.2451854 -220.60948626 147.26653545 -217 134 C-216.75862305 133.07558105 -216.51724609 132.15116211 -216.26855469 131.19873047 C-203.54975314 83.33924014 -173.36939201 43.51084969 -130.58544922 18.61547852 C-115.50946636 10.09127075 -99.72282386 4.40513478 -83 0 C-81.74219727 -0.3410376 -81.74219727 -0.3410376 -80.45898438 -0.68896484 C-55.36813766 -7.21238442 -24.98571617 -6.58619297 0 0 Z " fill="#E6E8EB" transform="translate(681,664)"/>
<path d="M0 0 C1.31013392 0.05144511 1.31013392 0.05144511 2.64673519 0.10392952 C23.68254015 1.12066623 43.63563215 9.31754312 59.86499023 22.59423828 C60.82791992 23.36380859 61.79084961 24.13337891 62.78295898 24.92626953 C70.51372345 31.50123564 76.22477045 39.23835711 81.86499023 47.59423828 C82.46311523 48.47080078 83.06124023 49.34736328 83.67749023 50.25048828 C89.85952477 59.90991724 93.61959496 70.69601502 96.30249023 81.78173828 C96.4786084 82.50047119 96.65472656 83.2192041 96.83618164 83.9597168 C98.3242773 90.56500731 98.3242773 90.56500731 96.86499023 93.59423828 C81.48696705 109.63578024 55.52986684 118.33830341 33.86499023 119.59423828 C29.24499023 119.59423828 24.62499023 119.59423828 19.86499023 119.59423828 C19.86499023 132.46423828 19.86499023 145.33423828 19.86499023 158.59423828 C38.60753724 164.84175395 67.95609695 153.75068852 85.61499023 146.71923828 C88.86499023 145.59423828 88.86499023 145.59423828 91.86499023 146.59423828 C91.45120117 147.28259766 91.03741211 147.97095703 90.61108398 148.68017578 C89.41120651 150.68265586 88.21615298 152.68803188 87.02514648 154.69580078 C80.83007598 165.11797289 74.36771512 175.36203992 67.86499023 185.59423828 C61.1175485 196.21230551 54.44639766 206.87226173 47.86499023 217.59423828 C42.22243541 226.78670071 36.53642057 235.94721584 30.73999023 245.04345703 C28.69964987 248.25180818 26.70897754 251.48616334 24.73999023 254.73876953 C23.95543457 256.01989624 23.95543457 256.01989624 23.1550293 257.3269043 C22.16700402 258.94192152 21.18886125 260.5630506 20.22338867 262.19165039 C15.29940125 270.18569323 8.75687413 276.48838487 -0.38500977 279.28173828 C-12.6294233 280.67314891 -21.45715637 277.5455832 -31.81079102 271.02783203 C-33.84369624 269.77392242 -35.85967225 268.68978702 -38.01000977 267.65673828 C-41.49268263 265.97180141 -44.80331336 264.06069067 -48.13500977 262.09423828 C-51.38584761 260.17697356 -54.61113792 258.29782447 -58.01000977 256.65673828 C-65.16692124 253.19128641 -72.08318323 249.06585247 -78.86938477 244.92626953 C-81.20470432 243.48035786 -81.20470432 243.48035786 -84.19750977 242.34423828 C-88.70077281 240.48249966 -92.77055887 237.90686765 -96.95141602 235.42236328 C-100.0069403 233.66778001 -103.09549915 232.07937539 -106.26000977 230.53173828 C-110.95059104 228.23543544 -115.3932235 225.69154273 -119.84204102 222.96142578 C-122.50643182 221.37277709 -125.23466687 220.00224595 -128.02172852 218.64501953 C-134.56722115 215.39042153 -140.90546543 211.7471945 -147.19750977 208.03173828 C-150.71076195 205.96697163 -154.22223372 204.00461153 -157.88500977 202.21923828 C-181.03568652 190.8489381 -202.51774047 176.85865645 -213.51000977 152.65673828 C-213.99268311 151.60305054 -213.99268311 151.60305054 -214.48510742 150.52807617 C-219.11522583 139.7534405 -220.67822413 128.88053993 -220.57250977 117.21923828 C-220.56493652 116.03821533 -220.55736328 114.85719238 -220.54956055 113.64038086 C-220.38086303 104.68771443 -219.36915132 97.00500889 -216.13500977 88.59423828 C-215.68770508 87.38767578 -215.24040039 86.18111328 -214.77954102 84.93798828 C-211.40725139 76.47562075 -207.14986583 67.68151007 -200.13500977 61.59423828 C-199.47500977 61.59423828 -198.81500977 61.59423828 -198.13500977 61.59423828 C-197.84368164 62.46564453 -197.55235352 63.33705078 -197.25219727 64.23486328 C-193.31747692 75.6678243 -189.27933916 86.0534071 -180.67407227 94.85205078 C-179.13500977 96.59423828 -179.13500977 96.59423828 -179.13500977 98.59423828 C-178.56524414 98.84947266 -177.99547852 99.10470703 -177.40844727 99.36767578 C-174.87970166 100.73198183 -172.94163704 102.35033573 -170.76000977 104.21923828 C-166.58709142 107.61985532 -162.2982815 110.43654569 -157.63500977 113.09423828 C-157.02351074 113.44437988 -156.41201172 113.79452148 -155.78198242 114.15527344 C-152.64878374 116.00906375 -152.64878374 116.00906375 -149.13500977 116.59423828 C-146.79931002 112.12045739 -144.4847542 107.63660707 -142.18920898 103.14208984 C-141.40523322 101.61439214 -140.61554 100.08961455 -139.82006836 98.56787109 C-138.67813714 96.38095163 -137.55712452 94.18438263 -136.43969727 91.98486328 C-136.07939423 91.30554749 -135.71909119 90.62623169 -135.34786987 89.92633057 C-133.4346695 86.24305465 -133.4346695 86.24305465 -133.76757812 82.25073242 C-135.77610434 79.8176222 -138.14313618 78.43239378 -140.82250977 76.78173828 C-148.86040555 71.57395191 -154.5766752 66.61655578 -158.13500977 57.59423828 C-158.66868164 56.25232422 -158.66868164 56.25232422 -159.21313477 54.88330078 C-162.42616838 43.41985035 -160.68286085 30.98545142 -155.13500977 20.59423828 C-149.48821561 10.86739054 -140.20276056 4.1189212 -129.40882492 1.06615448 C-120.35242465 -0.81344509 -110.68129668 -0.15354977 -101.48266602 -0.14794922 C-98.97560839 -0.16364245 -96.46856265 -0.18134884 -93.96153259 -0.20095825 C-88.04887271 -0.24172829 -82.13647239 -0.25998536 -76.22368473 -0.26778138 C-70.23252746 -0.27718804 -64.24178633 -0.31470057 -58.25075626 -0.35580254 C-51.82809799 -0.39905779 -45.40539911 -0.43069562 -38.98266602 -0.46044922 C-37.78759996 -0.46661129 -36.59253391 -0.47277336 -35.36125374 -0.47912216 C-23.56592604 -0.53159748 -11.78671254 -0.4931958 0 0 Z " fill="#EB7383" transform="translate(280.135009765625,239.40576171875)"/>
<path d="M0 0 C3.28247427 0.02372578 6.56414055 0.02052811 9.84667969 0.01391602 C11.95345532 0.01949008 14.06022757 0.02659824 16.16699219 0.03540039 C17.13799866 0.03448898 18.10900513 0.03357758 19.10943604 0.03263855 C30.73888305 0.15291294 41.44805219 3.1636621 50.10839844 11.21899414 C60.40250919 22.58235061 63.03744471 34.81774556 63.34277344 49.64868164 C63.36355453 50.50300781 63.38433563 51.35733398 63.40574646 52.23754883 C63.47055318 54.93702006 63.52980284 57.63657929 63.58886719 60.33618164 C63.6321181 62.17863825 63.67573436 64.02108633 63.71972656 65.86352539 C63.82616276 70.35432318 63.92761912 74.84520848 64.02636719 79.33618164 C65.28707031 79.35600098 66.54777344 79.37582031 67.84667969 79.39624023 C72.55081211 79.47265686 77.25464968 79.56131734 81.95849609 79.65356445 C83.9893611 79.6917058 86.02029024 79.72658384 88.05126953 79.75805664 C90.980701 79.80403104 93.90969652 79.86197055 96.83886719 79.92211914 C97.73814941 79.93367035 98.63743164 79.94522156 99.56396484 79.9571228 C111.00361381 80.22133927 121.59847237 83.30357389 130.10839844 91.21899414 C140.54428443 102.738852 143.17504599 115.12753235 143.19433594 130.17211914 C143.19766434 131.09151276 143.20099274 132.01090637 143.204422 132.9581604 C143.20945814 134.89275618 143.21183135 136.82736056 143.21166992 138.76196289 C143.21385566 141.69570443 143.23204487 144.62906896 143.25097656 147.56274414 C143.25391147 149.45336787 143.25589562 151.34399337 143.25683594 153.23461914 C143.26761421 154.53041397 143.26761421 154.53041397 143.27861023 155.85238647 C143.23050125 168.89850229 139.86543252 179.9381645 130.83496094 189.59008789 C122.07631613 198.04605815 112.34581203 200.93108717 100.33105469 200.94555664 C99.25759796 200.9620929 98.18414124 200.97862915 97.07815552 200.9956665 C93.68583272 201.04383279 90.29395716 201.06544807 86.90136719 201.08618164 C84.5862409 201.11436748 82.27113516 201.14429852 79.95605469 201.17602539 C74.31290589 201.24958301 68.66988124 201.30140858 63.02636719 201.33618164 C63.03684082 202.55611816 63.04731445 203.77605469 63.05810547 205.03295898 C63.09455835 209.59900936 63.11735894 214.1650471 63.13623047 218.73120117 C63.14623079 220.69997325 63.15983542 222.66873069 63.17724609 224.63745117 C63.20175889 227.48237745 63.21291024 230.32710579 63.22167969 233.17211914 C63.23200226 234.03920502 63.24232483 234.90629089 63.25296021 235.7996521 C63.25530998 248.86769843 59.87834196 259.92436667 50.83496094 269.59008789 C41.54461319 278.5593869 31.47143242 280.9559421 18.78417969 280.90258789 C17.53941864 280.90878647 16.29465759 280.91498505 15.01217651 280.92137146 C12.39175189 280.9284427 9.77128208 280.92534312 7.15087891 280.91259766 C3.16972041 280.8987455 -0.80907891 280.93283431 -4.79003906 280.97094727 C-7.34863338 280.97189876 -9.90723061 280.97003803 -12.46582031 280.96508789 C-13.64119354 280.9783461 -14.81656677 280.99160431 -16.02755737 281.00526428 C-29.37483743 280.85696647 -39.09539896 275.63280091 -48.71972656 266.71899414 C-56.83742305 258.25715591 -58.08588324 246.61621384 -58.29003906 235.44165039 C-58.31082016 234.4942952 -58.33160126 233.54694 -58.35301208 232.57087708 C-58.4182106 229.55521654 -58.47725413 226.53947154 -58.53613281 223.52368164 C-58.57934629 221.47484491 -58.62296148 219.4260166 -58.66699219 217.37719727 C-58.77386148 212.36361117 -58.87521212 207.34994041 -58.97363281 202.33618164 C-65.49314158 201.60315374 -71.94523743 201.25413678 -78.50097656 201.19555664 C-80.05110772 201.17610125 -81.60123792 201.15656869 -83.15136719 201.13696289 C-85.53174757 201.10807418 -87.911181 201.08618163 -90.29174805 201.08569336 C-105.98555198 201.0630355 -116.98477477 197.58760721 -128.71972656 186.71899414 C-135.30256751 179.85708013 -138.0388015 169.81254352 -138.15063477 160.4609375 C-138.16988762 159.04807716 -138.16988762 159.04807716 -138.18952942 157.60667419 C-138.19691635 156.59831009 -138.20430328 155.58994598 -138.21191406 154.55102539 C-138.21998581 153.49895401 -138.22805756 152.44688263 -138.2363739 151.3629303 C-138.25018754 149.13633864 -138.26092182 146.90972604 -138.26879883 144.68310547 C-138.28029142 142.42262499 -138.30069971 140.16217106 -138.33032227 137.90185547 C-138.6453549 113.84497798 -138.6453549 113.84497798 -133.97363281 104.33618164 C-133.3753064 103.0652063 -133.3753064 103.0652063 -132.76489258 101.76855469 C-128.06180862 92.20322468 -120.54322356 86.18167015 -110.66088867 82.46679688 C-100.18921862 79.40472661 -89.52141906 80.00770217 -78.72363281 80.14868164 C-76.70671573 80.16375746 -74.68978774 80.17744073 -72.67285156 80.18969727 C-67.77283853 80.22246923 -62.87335845 80.27409128 -57.97363281 80.33618164 C-58.00505371 78.4311084 -58.00505371 78.4311084 -58.03710938 76.48754883 C-58.11013543 71.72399406 -58.15565793 66.96048758 -58.19335938 62.1965332 C-58.21333338 60.1443649 -58.24052228 58.09225247 -58.27539062 56.0402832 C-58.63792048 34.13921503 -58.63792048 34.13921503 -53.97363281 24.33618164 C-53.57466797 23.48604492 -53.17570313 22.6359082 -52.76464844 21.76000977 C-48.04477389 12.19495427 -40.57544121 6.26848509 -30.73120117 2.47119141 C-20.67540169 -0.51899688 -10.39871178 -0.08053138 0 0 Z " fill="#000000" transform="translate(636.9736328125,698.663818359375)"/>
<path d="M0 0 C3.78967522 1.72076221 5.11652111 3.32819227 7.25 6.9375 C9.71408002 10.9826099 12.28893654 14.83109624 15.125 18.625 C17.94029989 22.4396239 20.30980093 26.24237057 22.52734375 30.421875 C24.50780475 33.88899506 26.71299808 37.18569623 28.9375 40.5 C29.59613037 41.48129883 29.59613037 41.48129883 30.26806641 42.48242188 C32.09072202 45.18880995 33.92306689 47.88791203 35.76953125 50.578125 C38.95853772 55.25645638 41.70526002 60.05444093 44.3671875 65.05078125 C46.14002377 68.25291374 48.05258688 71.33866962 50 74.4375 C53.24074804 79.63259228 56.03006239 84.92547792 58.703125 90.4296875 C60.23583728 93.46741244 62.08617818 96.1890742 64 99 C87.3740428 139.89583366 108.8436003 186.87257101 97.15625 234.43359375 C90.2679962 259.16598777 72.08664717 279.17035985 50.421875 292.11328125 C27.45076163 304.77886088 0.34858972 307.52650443 -25 301 C-49.37997992 293.89756783 -73.20397756 276.99279787 -86.0703125 254.73046875 C-89.79513269 247.7890994 -92.55346133 240.4740796 -95 233 C-95.36222656 231.8965625 -95.72445312 230.793125 -96.09765625 229.65625 C-101.10590668 210.83454607 -98.75479716 190.32110362 -93 172 C-92.60651367 170.74413086 -92.60651367 170.74413086 -92.20507812 169.46289062 C-83.35784742 141.86037947 -70.55758633 115.54272133 -56.32470703 90.35546875 C-54.99142527 87.98475322 -53.67834335 85.60390717 -52.37109375 83.21875 C-47.85113553 74.98085837 -43.19839962 66.87207648 -38.19580078 58.91455078 C-36.77310845 56.63673264 -35.36876931 54.34802579 -33.96484375 52.05859375 C-27.96604922 42.28854401 -21.86121347 32.62244748 -15.43505859 23.12841797 C-12.39516127 18.61977134 -9.38893864 14.08852018 -6.375 9.5625 C-5.15375413 7.73039655 -3.9324091 5.89835921 -2.7109375 4.06640625 C-1.92662354 2.8899353 -1.92662354 2.8899353 -1.12646484 1.68969727 C-0.75473145 1.13209717 -0.38299805 0.57449707 0 0 Z " fill="#EB7383" transform="translate(1118,135)"/>
<path d="M0 0 C44.97833382 -0.09152892 89.9566578 -0.16202521 134.93506638 -0.20426132 C140.2435763 -0.20926422 145.55208605 -0.21444151 150.8605957 -0.21972656 C152.44585789 -0.22130043 152.44585789 -0.22130043 154.06314557 -0.22290608 C171.18180717 -0.24031761 188.30041511 -0.27185944 205.41904486 -0.30861118 C222.98059803 -0.34599976 240.54212307 -0.36823145 258.10371441 -0.37635398 C268.94266598 -0.38184607 279.7814659 -0.39920065 290.6203708 -0.43166587 C298.05012958 -0.45278803 305.47980981 -0.45920525 312.90959645 -0.45400551 C317.198057 -0.45144015 321.48625229 -0.45540933 325.77466583 -0.4768219 C329.70115383 -0.4962843 333.62719812 -0.49727224 337.55370652 -0.48359558 C338.97374984 -0.4819052 340.39382083 -0.48698231 341.8138097 -0.49953273 C355.0294646 -0.60954102 355.0294646 -0.60954102 361 4 C362.7421875 6.03515625 362.7421875 6.03515625 363.875 8.0625 C364.26429688 8.73410156 364.65359375 9.40570312 365.0546875 10.09765625 C366.71420332 13.4372604 367.13481948 16.12927653 367.17700195 19.8034668 C367.18983719 20.77845627 367.20267242 21.75344574 367.21589661 22.75798035 C367.22697701 24.33764336 367.22697701 24.33764336 367.23828125 25.94921875 C367.246353 27.03580276 367.25442474 28.12238678 367.26274109 29.24189758 C367.27657888 31.54430548 367.28730239 33.84673387 367.29516602 36.14916992 C367.31234807 39.6564875 367.35623469 43.16285494 367.40039062 46.66992188 C367.41052051 48.90884725 367.41903569 51.14778062 367.42578125 53.38671875 C367.44328934 54.42970627 367.46079742 55.47269379 367.47883606 56.54728699 C367.46002594 62.91737878 366.93754803 67.8542068 363 73 C356.04798574 79.65614966 348.98562728 79.84697539 339.7822113 79.7215271 C338.34725593 79.72414681 336.91230338 79.72940629 335.47736603 79.7370621 C331.55238387 79.75042639 327.62839114 79.72655245 323.70353496 79.69639373 C319.46439112 79.67041428 315.22530033 79.67925602 310.98609924 79.68380737 C303.64747907 79.68694918 296.30917967 79.66816967 288.97064018 79.63438034 C278.3604809 79.58555914 267.75047627 79.56998565 257.14021683 79.56245239 C239.92468886 79.54932984 222.70933173 79.50942522 205.49389648 79.45263672 C188.77352756 79.39753874 172.05320509 79.35507985 155.33276367 79.32958984 C154.30162771 79.3280135 153.27049175 79.32643716 152.20810925 79.32481305 C147.0350566 79.31698267 141.86200362 79.30940046 136.68895042 79.30194163 C93.79251529 79.23976999 50.89626647 79.13411614 8 79 C8 78.34 8 77.68 8 77 C7.34 77 6.68 77 6 77 C6.10699219 75.84371094 6.21398437 74.68742188 6.32421875 73.49609375 C7.88404668 53.34608413 6.4206348 32.03334031 1.27075195 12.4387207 C0.15039938 8.17505063 -0.06446661 4.39551038 0 0 Z " fill="#AA7745" transform="translate(852,780)"/>
<path d="M0 0 C1.45415284 -0.00289998 2.90830267 -0.00799531 4.36244112 -0.01508391 C8.34044194 -0.02815535 12.31778002 -0.01019278 16.29571211 0.01301455 C20.59216333 0.03259967 24.88856496 0.02320786 29.18504333 0.01742554 C37.59276196 0.01061591 46.00022072 0.03024551 54.40788614 0.05858882 C64.19530054 0.09045125 73.9826693 0.09483998 83.77012808 0.09778075 C101.22624939 0.10384223 118.68225444 0.13294842 136.13832092 0.1758728 C153.087542 0.21751483 170.03670851 0.2458176 186.98597717 0.25790405 C188.0309173 0.25865227 189.07585743 0.25940048 190.15246242 0.26017137 C194.35231708 0.26314551 198.55217176 0.2660828 202.75202649 0.26895765 C220.84280663 0.28167963 238.93357454 0.30544122 257.02434102 0.33059591 C259.95700546 0.33457957 262.88967013 0.33829758 265.822335 0.34194994 C276.08159255 0.35495728 286.34082847 0.37125576 296.60006296 0.39693435 C300.84330709 0.40754166 305.08653897 0.41664123 309.32979393 0.42150497 C313.20866252 0.426037 317.08749085 0.43518851 320.96634013 0.44816642 C322.37457278 0.45208258 323.7828113 0.4543049 325.19104933 0.45472462 C327.09510618 0.45556249 328.99915669 0.46307469 330.90319729 0.47098732 C332.49412218 0.47448328 332.49412218 0.47448328 334.11718696 0.47804987 C336.60585022 0.60800171 336.60585022 0.60800171 338.60585022 1.60800171 C338.35724651 3.12906391 338.10677345 4.64982043 337.85585022 6.17050171 C337.67538147 7.26491577 337.49491272 8.35932983 337.30897522 9.48690796 C336.78534733 12.60437523 336.22382015 15.71373744 335.65272522 18.82284546 C333.91832484 28.34977585 332.3226807 37.84399484 331.35585022 47.48300171 C331.27592834 48.27190796 331.19600647 49.06081421 331.11366272 49.87362671 C330.39922961 57.62654896 330.54109641 65.14316309 331.11268616 72.90829468 C331.20451172 74.16431488 331.29633728 75.42033508 331.39094543 76.7144165 C331.46186401 77.66929962 331.53278259 78.62418274 331.60585022 79.60800171 C287.69776273 79.7453529 243.78969799 79.85106885 199.88143799 79.91439369 C194.69696437 79.92189787 189.51249118 79.92966381 184.32801819 79.93759155 C183.29588858 79.93916542 182.26375897 79.94073928 181.20035271 79.94236083 C164.49107167 79.96846443 147.78191455 80.01576955 131.07270701 80.07091849 C113.92585829 80.12703961 96.77907445 80.16035695 79.63213766 80.17253268 C69.05260317 80.18076293 58.473419 80.20675153 47.89399235 80.25550051 C40.63799477 80.28723107 33.38217814 80.29679893 26.12611623 80.28900997 C21.94043638 80.28516918 17.7553684 80.29103125 13.56979752 80.32323456 C9.73364014 80.35253333 5.89850334 80.35384415 2.06229798 80.33339508 C0.02565664 80.32967803 -2.01097351 80.35546782 -4.04743898 80.38248956 C-12.26133343 80.30239787 -17.9703498 78.89576054 -24.39414978 73.60800171 C-29.34204573 68.1797082 -28.99306722 61.8996517 -28.96055603 54.86581421 C-28.96675461 53.74286957 -28.97295319 52.61992493 -28.9793396 51.46295166 C-28.98642344 49.09448104 -28.98328899 46.72596047 -28.9705658 44.35751343 C-28.9567199 40.75126546 -28.9907733 37.14762387 -29.02891541 33.54159546 C-29.02986689 31.23300108 -29.02800618 28.92440348 -29.02305603 26.61581421 C-29.03631424 25.54678864 -29.04957245 24.47776306 -29.06323242 23.37634277 C-28.9763704 16.32233729 -27.91726955 11.14361333 -23.39414978 5.60800171 C-16.38008932 -0.25343243 -8.73163883 -0.09339912 0 0 Z " fill="#AA7745" transform="translate(88.39414978027344,779.3919982910156)"/>
<path d="M0 0 C1.54688803 0.51987091 3.08840983 1.05590621 4.625 1.60546875 C5.47457275 1.9089624 6.32414551 2.21245605 7.19946289 2.52514648 C32.54965338 11.89761626 54.84887757 25.64220997 75.625 42.79296875 C76.63691406 43.61667969 77.64882813 44.44039062 78.69140625 45.2890625 C81.48862615 47.67656976 84.05188224 50.16774736 86.625 52.79296875 C87.60444275 53.74199195 88.58633798 54.68848879 89.5703125 55.6328125 C96.82040819 62.66127962 103.23902135 69.99221111 109.30761719 78.05664062 C110.62494129 79.79289137 111.96760516 81.50605754 113.3203125 83.21484375 C118.2642142 89.48143998 122.6836187 95.84141163 126.625 102.79296875 C127.17671875 103.70304687 127.7284375 104.613125 128.296875 105.55078125 C131.69292502 111.18582 134.75520583 116.90997717 137.5625 122.85546875 C137.86921631 123.49895264 138.17593262 124.14243652 138.49194336 124.80541992 C139.8099204 127.65806415 140.625 129.61133534 140.625 132.79296875 C127.8443277 136.91002138 115.05195903 140.98719382 102.23391724 144.98641968 C100.22730639 145.61254992 98.22093297 146.23943628 96.21459961 146.86645508 C89.79214534 148.87278152 83.36806842 150.87357081 76.93965149 152.86071777 C50.44481043 161.05648012 24.07310873 169.32801465 -0.6953125 181.97509766 C-4.22487068 183.76653764 -7.71128614 185.3771672 -11.4375 186.73046875 C-17.9354017 189.18645533 -23.69604541 193.05565521 -29.57739258 196.69897461 C-31.34471272 197.77453641 -33.12999951 198.80779616 -34.9296875 199.828125 C-38.2677438 201.7318011 -41.54397062 203.71014153 -44.8125 205.73046875 C-45.93785156 206.42011719 -47.06320312 207.10976563 -48.22265625 207.8203125 C-50.0858815 208.9862713 -51.93443974 210.17729556 -53.74609375 211.421875 C-58.08508203 214.39065645 -60.94501757 215.68151133 -66.375 214.79296875 C-72.74094663 212.06107548 -72.74094663 212.06107548 -74.375 208.79296875 C-74.47536217 207.34073614 -74.51438923 205.88403562 -74.52217102 204.42835999 C-74.53290398 203.05184517 -74.53290398 203.05184517 -74.54385376 201.64752197 C-74.54654266 200.63727966 -74.54923157 199.62703735 -74.55200195 198.58618164 C-74.55857315 197.52400925 -74.56514435 196.46183685 -74.57191467 195.36747742 C-74.5917031 191.83352591 -74.60333091 188.29961728 -74.61328125 184.765625 C-74.61735678 183.55552702 -74.6214323 182.34542904 -74.62563133 181.09866142 C-74.64652898 174.67718551 -74.66080709 168.25573112 -74.67016602 161.83422852 C-74.68115716 155.2422642 -74.71546128 148.65064433 -74.75533772 142.0588007 C-74.78168295 136.95990944 -74.7898743 131.86109739 -74.79344749 126.76214409 C-74.79827795 124.33562365 -74.80978891 121.90910588 -74.82848549 119.48265266 C-74.93279627 105.03098295 -74.07361797 91.78932468 -70.375 77.79296875 C-70.12242432 76.7859642 -69.86984863 75.77895966 -69.60961914 74.74143982 C-63.70592826 51.65548202 -50.76541122 31.78578406 -34.375 14.79296875 C-33.77042969 14.13683594 -33.16585937 13.48070312 -32.54296875 12.8046875 C-22.7284257 2.41703245 -14.26990981 -4.3291821 0 0 Z " fill="#DFB58E" transform="translate(614.375,164.20703125)"/>
<path d="M0 0 C2.63016161 2.1727422 4.47336894 3.94673788 6 7 C6.09588504 8.39574608 6.1306537 9.79594439 6.13371277 11.19497681 C6.14011024 12.51488869 6.14011024 12.51488869 6.14663696 13.86146545 C6.14618378 14.82966721 6.14573059 15.79786896 6.14526367 16.79541016 C6.14862228 17.81363358 6.1519809 18.83185699 6.15544128 19.88093567 C6.16498247 23.2669902 6.16689686 26.65299533 6.16796875 30.0390625 C6.17118229 32.39684062 6.17454644 34.75461854 6.17805481 37.11239624 C6.18405618 42.07070374 6.18589399 47.02899381 6.18530273 51.98730469 C6.18520177 58.3036899 6.19878054 64.61996102 6.21607494 70.93631935 C6.22727091 75.81634012 6.22921952 80.69633413 6.22869301 85.57636642 C6.22986453 87.90207686 6.23423922 90.22778818 6.24202538 92.55348587 C6.29130443 108.81266668 6.07733273 124.66403153 1.375 140.375 C1.11775146 141.25003174 0.86050293 142.12506348 0.59545898 143.02661133 C-3.38496692 156.05741737 -8.62076244 168.1922666 -17 179 C-17.60328125 179.86496094 -18.2065625 180.72992188 -18.828125 181.62109375 C-28.33297285 195.24084525 -43.3821058 214.54154058 -60 219 C-62.89124151 215.58283012 -65.05088162 212.247614 -67.03125 208.23828125 C-67.86716675 206.57261108 -67.86716675 206.57261108 -68.7199707 204.87329102 C-69.30738037 203.69822998 -69.89479004 202.52316895 -70.5 201.3125 C-76.24412231 189.98445154 -82.55068796 179.30189323 -90 169 C-90.41088867 168.42765625 -90.82177734 167.8553125 -91.24511719 167.265625 C-104.43570786 148.99671129 -119.56622854 131.29291921 -137.23046875 117.2109375 C-139.04519001 115.76223196 -140.84055226 114.28886012 -142.61328125 112.7890625 C-159.07312185 98.88964155 -177.96812182 88.88377709 -197 79 C-193.11337813 76.80667433 -188.89784502 75.6376382 -184.65234375 74.34765625 C-183.40446579 73.96378502 -183.40446579 73.96378502 -182.13137817 73.57215881 C-180.33707239 73.02052647 -178.5422954 72.47042493 -176.74710083 71.92169189 C-172.95029441 70.76060692 -169.15624447 69.59063807 -165.36198425 68.42126465 C-162.45218792 67.52464768 -159.54204276 66.62917035 -156.63183594 65.73388672 C-127.62010114 56.97027923 -127.62010114 56.97027923 -99.08300781 46.80615234 C-96.87246892 45.95064374 -94.65232518 45.12431023 -92.4296875 44.30078125 C-82.95589502 40.7564777 -73.94007943 36.67428095 -64.96777344 32.01171875 C-62.99154136 30.99565104 -61.00325095 30.0090051 -59.0078125 29.03125 C-44.95492949 22.14271622 -31.51386855 14.50543872 -18.3815918 5.98535156 C-12.31395155 2.07639721 -7.48591176 -0.93573897 0 0 Z " fill="#DEB48E" transform="translate(853,60)"/>
<path d="M0 0 C0.79385605 -0.00095673 1.5877121 -0.00191345 2.40562439 -0.00289917 C4.08430053 -0.00358001 5.7629793 -0.0017324 7.44165039 0.00244141 C10.02040472 0.00779809 12.59898543 0.00248958 15.17773438 -0.00390625 C16.80598997 -0.00324559 18.43424546 -0.00196468 20.0625 0 C20.83852066 -0.00202423 21.61454132 -0.00404846 22.41407776 -0.00613403 C27.84988792 0.01785667 27.84988792 0.01785667 28.96484375 1.1328125 C29.08976764 3.56581037 29.15085882 5.97186173 29.17016602 8.40649414 C29.18006561 9.16741867 29.18996521 9.9283432 29.20016479 10.71232605 C29.23186999 13.2391748 29.25657265 15.76604238 29.28125 18.29296875 C29.30181176 20.04032391 29.32280801 21.78767401 29.34422302 23.53501892 C29.39952416 28.14307568 29.44889783 32.75117791 29.49707031 37.35931396 C29.54722678 42.05794339 29.60294333 46.75650644 29.65820312 51.45507812 C29.76588299 60.68093294 29.86730598 69.90684528 29.96484375 79.1328125 C30.93981308 79.14311996 31.91478241 79.15342743 32.91929626 79.16404724 C42.08720689 79.26161195 51.25504708 79.36432952 60.42284298 79.47215176 C65.13660734 79.52742298 69.85037785 79.58084955 74.56420898 79.63012695 C79.10945279 79.67770874 83.65461871 79.73004904 88.19976997 79.78575325 C89.93777094 79.80620493 91.67579329 79.82491326 93.41383171 79.84188652 C95.83968752 79.86586854 98.26539476 79.8959311 100.69116211 79.92749023 C101.7798056 79.93612343 101.7798056 79.93612343 102.89044189 79.94493103 C107.85079159 80.01876034 107.85079159 80.01876034 108.96484375 81.1328125 C109.05349583 84.0171507 109.08005671 86.87743408 109.0625 89.76171875 C109.06037758 91.05806496 109.06037758 91.05806496 109.05821228 92.38059998 C109.05259614 95.15220542 109.04004094 97.9237313 109.02734375 100.6953125 C109.02233083 102.5696603 109.01776756 104.44400935 109.01367188 106.31835938 C109.00262147 110.92320794 108.98534605 115.52799671 108.96484375 120.1328125 C107.98987442 120.14311996 107.01490509 120.15342743 106.01039124 120.16404724 C96.84248061 120.26161195 87.67464042 120.36432952 78.50684452 120.47215176 C73.79308016 120.52742298 69.07930965 120.58084955 64.36547852 120.63012695 C59.82023471 120.67770874 55.27506879 120.73004904 50.72991753 120.78575325 C48.99191656 120.80620493 47.25389421 120.82491326 45.51585579 120.84188652 C43.08999998 120.86586854 40.66429274 120.8959311 38.23852539 120.92749023 C37.1498819 120.93612343 37.1498819 120.93612343 36.03924561 120.94493103 C32.71743359 120.7092112 32.71743359 120.7092112 29.96484375 122.1328125 C29.83991986 124.56581037 29.77882868 126.97186173 29.75952148 129.40649414 C29.74962189 130.16741867 29.73972229 130.9283432 29.72952271 131.71232605 C29.69781751 134.2391748 29.67311485 136.76604238 29.6484375 139.29296875 C29.62787574 141.04032391 29.60687949 142.78767401 29.58546448 144.53501892 C29.53016334 149.14307568 29.48078967 153.75117791 29.43261719 158.35931396 C29.38246072 163.05794339 29.32674417 167.75650644 29.27148438 172.45507812 C29.16380451 181.68093294 29.06238152 190.90684528 28.96484375 200.1328125 C23.57137387 200.15746099 18.1779365 200.17564781 12.78442383 200.18774414 C10.948155 200.19278481 9.11189021 200.19961727 7.27563477 200.20825195 C4.64207974 200.22032922 2.00857759 200.22604331 -0.625 200.23046875 C-1.86406349 200.23821068 -1.86406349 200.23821068 -3.12815857 200.24610901 C-5.09751993 200.24630455 -7.06677239 200.19485402 -9.03515625 200.1328125 C-10.93513112 198.23283763 -10.20898667 194.76946251 -10.22460938 192.18212891 C-10.23704933 191.0918615 -10.23704933 191.0918615 -10.2497406 189.97956848 C-10.26717897 188.39609616 -10.28233532 186.81259749 -10.29551697 185.22908401 C-10.31648858 182.72454228 -10.34351705 180.22013232 -10.37219238 177.71566772 C-10.43199271 172.396433 -10.48407676 167.07713717 -10.53515625 161.7578125 C-10.59434829 155.60253334 -10.65666651 149.44731859 -10.72703552 143.29215622 C-10.75363438 140.82212117 -10.77443724 138.3520798 -10.79504395 135.88198853 C-10.81164806 134.36875095 -10.82852 132.85551627 -10.84570312 131.34228516 C-10.84988754 130.65333664 -10.85407196 129.96438812 -10.85838318 129.25456238 C-10.89765869 126.2714009 -11.08329489 123.98839657 -12.03515625 121.1328125 C-12.9975975 121.12250504 -13.96003876 121.11219757 -14.9516449 121.10157776 C-24.00182713 121.00401231 -33.05193802 120.90129467 -42.10200405 120.79347324 C-46.75523394 120.73820243 -51.40847006 120.68477592 -56.06176758 120.63549805 C-60.54865742 120.58791565 -65.03546837 120.53557533 -69.52226448 120.47987175 C-71.2379365 120.45942034 -72.95363018 120.44071197 -74.66934013 120.42373848 C-77.06406394 120.39975585 -79.45863727 120.36969338 -81.85327148 120.33813477 C-82.56968307 120.3323793 -83.28609467 120.32662384 -84.0242157 120.32069397 C-88.92110409 120.24686466 -88.92110409 120.24686466 -90.03515625 119.1328125 C-90.12377617 116.3211787 -90.1503798 113.53422995 -90.1328125 110.72265625 C-90.13139755 109.88062149 -90.1299826 109.03858673 -90.12852478 108.17103577 C-90.12290888 105.47075915 -90.11035373 102.77056422 -90.09765625 100.0703125 C-90.0926433 98.24414182 -90.08808004 96.41796984 -90.08398438 94.59179688 C-90.07293429 90.10543708 -90.05565904 85.61913866 -90.03515625 81.1328125 C-87.03011103 79.63028989 -83.94255527 80.0029032 -80.64794922 80.01928711 C-79.87455767 80.01916657 -79.10116611 80.01904604 -78.30433846 80.01892185 C-75.79531119 80.01966957 -73.28635776 80.02729143 -70.77734375 80.03515625 C-69.23055049 80.0366261 -67.68375674 80.03764655 -66.13696289 80.03820801 C-60.39468644 80.04345585 -54.65242062 80.057417 -48.91015625 80.0703125 C-29.66703125 80.10125 -29.66703125 80.10125 -10.03515625 80.1328125 C-10.03515625 54.0628125 -10.03515625 27.9928125 -10.03515625 1.1328125 C-6.87201472 -0.44875827 -3.47226082 -0.009081 0 0 Z " fill="#F8D678" transform="translate(630.03515625,738.8671875)"/>
<path d="M0 0 C4.27629632 0.63141954 7.64968142 2.13140998 11.5078125 4.0546875 C12.41876175 4.50800949 12.41876175 4.50800949 13.34811401 4.9704895 C14.62531659 5.60807425 15.90102231 6.2486654 17.17529297 6.89208984 C19.12160356 7.87328774 21.07399518 8.84149711 23.02734375 9.80859375 C24.27121889 10.43152238 25.51472164 11.05519528 26.7578125 11.6796875 C28.44608154 12.52635986 28.44608154 12.52635986 30.16845703 13.39013672 C32.57999902 14.76121 34.21137869 15.91707848 36 18 C34.62972156 22.68819982 32.64402449 26.87874352 30.47021484 31.22924805 C19.94960166 52.40985822 15.33259297 74.63840387 23.07592773 97.78173828 C23.67081374 99.47708683 24.27479324 101.16926029 24.88574219 102.85888672 C27.10116783 109.10421238 29.12210042 115.41546134 31.17001343 121.71728516 C31.92903892 124.03664541 32.70302182 126.35057416 33.47973633 128.6640625 C33.95424681 130.10015868 34.42846247 131.53635232 34.90234375 132.97265625 C35.12910797 133.63737442 35.35587219 134.30209259 35.58950806 134.98695374 C37.11344233 139.65967302 37.11344233 139.65967302 36 143 C33.63961503 144.11184157 31.39080492 145.02019888 28.9375 145.875 C28.2273877 146.12967041 27.51727539 146.38434082 26.78564453 146.64672852 C24.52892391 147.44688369 22.26551989 148.22514477 20 149 C18.89760986 149.38502686 18.89760986 149.38502686 17.77294922 149.77783203 C15.64587496 150.5157189 13.51265222 151.23090887 11.375 151.9375 C10.72523193 152.16099121 10.07546387 152.38448242 9.40600586 152.61474609 C5.17706705 153.96278547 2.30220297 153.84978522 -2 153 C-3.91254954 147.38820249 -5.81417678 141.77285042 -7.70678711 136.15429688 C-8.34882646 134.25295255 -8.99357952 132.3525219 -9.64135742 130.453125 C-13.05389044 120.44090693 -16.3009559 110.43123641 -18.89453125 100.171875 C-19.09648605 99.37944397 -19.29844086 98.58701294 -19.5065155 97.77056885 C-28.11750506 62.36787579 -15.60878497 31.16898769 0 0 Z " fill="#000000" transform="translate(221,291)"/>
<path d="M0 0 C0.90105469 -0.03738281 1.80210938 -0.07476562 2.73046875 -0.11328125 C10.4134394 0.94811774 16.2574918 5.94711727 22.125 10.6875 C28.53668241 15.77390007 35.01724608 20.73334759 41.625 25.5625 C65.70882353 43.20882353 65.70882353 43.20882353 72.8125 50.3125 C72.88429964 51.83178038 72.89642007 53.35417482 72.875 54.875 C72.86597656 55.70128906 72.85695313 56.52757812 72.84765625 57.37890625 C72.83605469 58.01699219 72.82445312 58.65507812 72.8125 59.3125 C71.61496094 59.53164062 70.41742188 59.75078125 69.18359375 59.9765625 C55.84949064 62.52916944 43.28120944 65.87636915 31.83984375 73.52734375 C27.75379217 75.10980303 24.03201628 73.40571058 20.16894531 71.76538086 C18.82180384 71.11162719 17.47921651 70.44843002 16.140625 69.77734375 C15.41816589 69.42039932 14.69570679 69.0634549 13.95135498 68.69569397 C12.42647868 67.93898063 10.90366183 67.17810463 9.3828125 66.41333008 C7.09035833 65.26396727 4.78814676 64.136235 2.484375 63.00976562 C-19.77751436 51.97748776 -19.77751436 51.97748776 -25.41015625 40.91015625 C-28.74535438 29.76489616 -25.29381194 19.93260236 -20.0234375 10.15234375 C-15.69075912 3.21121614 -7.97222528 0.21364214 0 0 Z " fill="#DFB58F" transform="translate(86.1875,139.6875)"/>
<path d="M0 0 C4.59763521 4.3787002 9.51790031 9.41187048 9.74525452 15.96743774 C9.74816636 17.48821908 9.74546727 19.00901688 9.73852539 20.52978516 C9.73867142 21.35913071 9.73881744 22.18847626 9.7389679 23.04295349 C9.73826971 25.79168285 9.73048171 28.54034494 9.72265625 31.2890625 C9.72079174 33.19192467 9.71936799 35.09478732 9.71836853 36.99765015 C9.71454599 42.01181356 9.70471793 47.02594811 9.69366455 52.0401001 C9.68164871 58.05313521 9.67704694 64.06617996 9.67121124 70.07922363 C9.66150605 79.21950251 9.64234765 88.35971803 9.625 97.5 C-2.915 97.5 -15.455 97.5 -28.375 97.5 C-29.91681811 94.41636379 -29.53996755 91.16587805 -29.55200195 87.78076172 C-29.55857315 86.98377365 -29.56514435 86.18678558 -29.57191467 85.36564636 C-29.59167045 82.72032581 -29.60331779 80.07506221 -29.61328125 77.4296875 C-29.61735678 76.52580418 -29.6214323 75.62192085 -29.62563133 74.69064713 C-29.6465058 69.90281654 -29.66079927 65.11501471 -29.67016602 60.32714844 C-29.68120909 55.39089294 -29.71558063 50.4550909 -29.75533772 45.51899529 C-29.78154262 41.71673775 -29.78986149 37.91458736 -29.79344749 34.11224747 C-29.79830661 32.29345781 -29.80990131 30.47467273 -29.82848549 28.65597153 C-29.85295067 26.10215672 -29.85189831 23.54950268 -29.8449707 20.99560547 C-29.85778076 20.25139847 -29.87059082 19.50719147 -29.88378906 18.74043274 C-29.82993942 13.26163224 -28.37048391 9.09836802 -25.375 4.5 C-18.55581946 -2.14432976 -8.74903111 -3.88845827 0 0 Z " fill="#DFB58F" transform="translate(229.375,101.5)"/>
<path d="M0 0 C0.80103149 0.00202423 1.60206299 0.00404846 2.42736816 0.00613403 C3.24483521 0.00517731 4.06230225 0.00422058 4.90454102 0.00323486 C6.63627194 0.00255308 8.3680054 0.00440724 10.09973145 0.00857544 C12.75978298 0.01392374 15.41966566 0.00863041 18.07971191 0.00222778 C19.75809771 0.00288857 21.43648339 0.00416973 23.11486816 0.00613403 C23.91589966 0.0041098 24.71693115 0.00208557 25.54223633 0 C31.15616738 0.02399575 31.15616738 0.02399575 32.27111816 1.13894653 C33.66200196 14.13836043 28.73990065 27.11762293 20.82189941 37.28347778 C10.88439614 48.85974661 -1.30968181 57.74970947 -16.72888184 60.13894653 C-18.4771679 60.22687808 -20.22839372 60.26918752 -21.97888184 60.26394653 C-23.28599121 60.26781372 -23.28599121 60.26781372 -24.61950684 60.27175903 C-26.72888184 60.13894653 -26.72888184 60.13894653 -27.72888184 59.13894653 C-27.82990296 56.42338426 -27.8685846 53.73380115 -27.86169434 51.01785278 C-27.86265106 50.20275742 -27.86360779 49.38766205 -27.86459351 48.54786682 C-27.86527537 46.82033206 -27.86342067 45.09279476 -27.85925293 43.36526489 C-27.85391158 40.71619925 -27.85919415 38.06730369 -27.86560059 35.41824341 C-27.86493967 33.74311282 -27.86365823 32.06798235 -27.86169434 30.39285278 C-27.86371857 29.59698257 -27.8657428 28.80111237 -27.86782837 27.98112488 C-27.84383728 22.36885742 -27.84383728 22.36885742 -26.72888184 20.13894653 C-24.58435059 19.35769653 -24.58435059 19.35769653 -21.91638184 18.63894653 C-15.92522676 17.27924236 -15.92522676 17.27924236 -11.60778809 13.33816528 C-11.31774902 12.6124231 -11.02770996 11.88668091 -10.72888184 11.13894653 C-10.38728027 10.29976685 -10.04567871 9.46058716 -9.69372559 8.59597778 C-9.00585124 6.82528983 -8.31835444 5.05445516 -7.63122559 3.28347778 C-5.94862499 -0.71543013 -4.12483616 0.01763088 0 0 Z " fill="#000000" transform="translate(1146.7288818359375,338.8610534667969)"/>
<path d="M0 0 C3.99548646 2.42862902 6.43056824 5.21083352 9.1875 8.9375 C9.909375 9.88625 10.63125 10.835 11.375 11.8125 C16.04231261 19.85959071 17.23179235 27.66793869 16.1875 36.9375 C14.48805124 42.83276294 10.89314213 47.11416577 6.1875 50.9375 C2.45711873 50.69657954 0.07002416 48.53444571 -2.8125 46.3125 C-12.58758557 39.09358004 -22.30210328 34.09850048 -33.60717773 29.77734375 C-38.85161326 27.77097537 -43.82820802 25.52726461 -48.8125 22.9375 C-42.12145091 15.93157801 -33.78237989 10.55484621 -25.875 5 C-24.31458984 3.90365234 -24.31458984 3.90365234 -22.72265625 2.78515625 C-15.4140805 -1.85505359 -8.30210386 -2.31370108 0 0 Z " fill="#DFB58F" transform="translate(362.8125,181.0625)"/>
<path d="M0 0 C80.10254051 -0.04033135 80.10254051 -0.04033135 113.50585938 -0.04882812 C121.15193687 -0.05078606 128.79801435 -0.05280656 136.4440918 -0.05493164 C137.88160247 -0.05532726 137.88160247 -0.05532726 139.34815377 -0.05573088 C154.82942667 -0.0600828 170.31069587 -0.06796806 185.79196658 -0.0771528 C201.67431478 -0.08649705 217.55666104 -0.09205725 233.43901187 -0.09408849 C243.24299873 -0.09546211 253.04697511 -0.09980403 262.85095874 -0.10791647 C269.56958243 -0.11319343 276.28820069 -0.11480212 283.0068263 -0.11350138 C286.88583832 -0.11285949 290.76483201 -0.11385872 294.64384079 -0.11920547 C298.84600257 -0.12495548 303.04812511 -0.1229932 307.25028992 -0.12025452 C309.09609879 -0.12462378 309.09609879 -0.12462378 310.97919673 -0.12908131 C312.66615947 -0.12609474 312.66615947 -0.12609474 314.38720226 -0.12304783 C315.84248043 -0.12361741 315.84248043 -0.12361741 317.32715815 -0.1241985 C319.98051306 -0.0009055 322.41432921 0.40770974 325 1 C325 1.33 325 1.66 325 2 C218.41 2 111.82 2 2 2 C2 65.69 2 129.38 2 195 C1.34 195 0.68 195 0 195 C0 130.65 0 66.3 0 0 Z " fill="#E7C07F" transform="translate(100,900)"/>
<path d="M0 0 C41.49642838 -0.02286788 82.99285603 -0.040499 124.48928946 -0.05106533 C129.38364741 -0.0523161 134.27800535 -0.05361042 139.17236328 -0.05493164 C140.14677908 -0.05519395 141.12119487 -0.05545626 142.12513842 -0.05572652 C157.92151334 -0.06008282 173.71788464 -0.06797015 189.51425742 -0.0771528 C205.71186459 -0.08649045 221.90946987 -0.09205585 238.10707963 -0.09408849 C248.10915114 -0.09546349 258.11121242 -0.09981281 268.11328079 -0.10791647 C274.96363807 -0.1131853 281.81399002 -0.11480398 288.66434918 -0.11350138 C292.62197474 -0.11285822 296.57958235 -0.11387308 300.53720474 -0.11920547 C304.15551256 -0.12404533 307.77379024 -0.12433475 311.3920994 -0.12089889 C313.33120207 -0.12027137 315.27030435 -0.12460786 317.20940197 -0.12908131 C318.34897102 -0.12709026 319.48854007 -0.12509921 320.66264153 -0.12304783 C322.1469683 -0.12361741 322.1469683 -0.12361741 323.66128147 -0.1241985 C326 0 326 0 328 1 C328 4.3 328 7.6 328 11 C327.67 11 327.34 11 327 11 C326.67 8.36 326.34 5.72 326 3 C218.42 3 110.84 3 0 3 C0 2.01 0 1.02 0 0 Z " fill="#ECC682" transform="translate(851,900)"/>
<path d="M0 0 C0.33 0 0.66 0 1 0 C1.7540106 10.66775099 2.18573577 21.3055029 2.31640625 32 C2.33706145 33.45687329 2.35805953 34.91374175 2.37937927 36.37060547 C2.4337184 40.14493822 2.48350373 43.91931672 2.53222656 47.69372559 C2.59209508 52.25459625 2.65782145 56.81538607 2.72252655 61.37619019 C2.8194211 68.25074274 2.90903482 75.12535495 3 82 C14.55 82 26.1 82 38 82 C38 82.66 38 83.32 38 84 C25.46 84 12.92 84 0 84 C-1.4134447 81.1731106 -1.12726684 78.80667771 -1.12939453 75.64526367 C-1.13114685 74.99285706 -1.13289917 74.34045044 -1.13470459 73.66827393 C-1.13912023 71.50147877 -1.1361824 69.33476481 -1.1328125 67.16796875 C-1.13348651 65.65497319 -1.13445736 64.14197773 -1.13571167 62.62898254 C-1.13718898 59.44706193 -1.13503633 56.26516932 -1.13037109 53.08325195 C-1.12472717 49.0399888 -1.12791827 44.99679281 -1.13394356 40.95353222 C-1.13759424 37.82104507 -1.13638921 34.68857325 -1.13381577 31.55608559 C-1.13315609 30.0680166 -1.13394073 28.57994616 -1.13629532 27.09187889 C-1.14748261 18.01878624 -0.85199523 9.03789005 0 0 Z " fill="#E7E9EC" transform="translate(201,115)"/>
<path d="M0 0 C0.33 0 0.66 0 1 0 C1 27.06 1 54.12 1 82 C0.34 82 -0.32 82 -1 82 C-2.17616812 78.47149565 -2.13428106 75.67080731 -2.14526367 71.94580078 C-2.14862228 71.23162994 -2.1519809 70.51745911 -2.15544128 69.78164673 C-2.16494403 67.41951765 -2.1668941 65.05745951 -2.16796875 62.6953125 C-2.17118197 61.05247976 -2.17454609 59.40964732 -2.17805481 57.76681519 C-2.1840445 54.32191301 -2.18589489 50.87703592 -2.18530273 47.43212891 C-2.18520116 43.02149486 -2.19884934 38.61102197 -2.21607494 34.2004261 C-2.22720316 30.80662296 -2.22922168 27.41285867 -2.22869301 24.01903915 C-2.22987204 22.39317139 -2.23428951 20.76730258 -2.24202538 19.14145279 C-2.25184122 16.86518378 -2.24894097 14.58926311 -2.24291992 12.31298828 C-2.24434494 11.0185379 -2.24576996 9.72408752 -2.24723816 8.39041138 C-2.01038144 5.14236212 -1.40422565 2.91297247 0 0 Z " fill="#E7E9EC" transform="translate(238,114)"/>
</svg>
