<svg width="418" height="400" viewBox="0 0 418 400" fill="none" xmlns="http://www.w3.org/2000/svg">
<circle cx="47.1701" cy="24.382" r="23.9479" fill="#005F82"/>
<path d="M93.6146 98.7657C93.6146 92.6188 92.4039 86.5322 90.0516 80.8533C87.6993 75.1744 84.2515 70.0144 79.905 65.6679C75.5586 61.3215 70.3986 57.8737 64.7197 55.5214C59.0407 53.1691 52.9541 51.9584 46.8073 51.9584C40.6605 51.9584 34.5738 53.1691 28.8949 55.5214C23.216 57.8737 18.056 61.3215 13.7095 65.6679C9.36308 70.0144 5.91528 75.1744 3.56299 80.8533C1.21071 86.5322 -5.37372e-07 92.6189 0 98.7657L46.8073 98.7657H93.6146Z" fill="#005F82"/>
<circle cx="47.1701" cy="151.379" r="23.9479" fill="#005F82"/>
<path d="M93.6146 225.762C93.6146 219.615 92.4039 213.529 90.0516 207.85C87.6993 202.171 84.2515 197.011 79.905 192.664C75.5586 188.318 70.3986 184.87 64.7197 182.518C59.0407 180.166 52.9541 178.955 46.8073 178.955C40.6605 178.955 34.5738 180.166 28.8949 182.518C23.216 184.87 18.056 188.318 13.7095 192.664C9.36308 197.011 5.91528 202.171 3.56299 207.85C1.21071 213.529 -5.37372e-07 219.615 0 225.762L46.8073 225.762H93.6146Z" fill="#005F82"/>
<circle cx="47.1701" cy="278.375" r="23.9479" fill="#005F82"/>
<path d="M93.6146 352.759C93.6146 346.612 92.4039 340.525 90.0516 334.846C87.6993 329.167 84.2515 324.007 79.905 319.661C75.5586 315.315 70.3986 311.867 64.7197 309.514C59.0407 307.162 52.9541 305.951 46.8073 305.951C40.6605 305.951 34.5738 307.162 28.8949 309.514C23.216 311.867 18.056 315.315 13.7095 319.661C9.36308 324.007 5.91528 329.167 3.56299 334.846C1.21071 340.525 -5.37372e-07 346.612 0 352.759L46.8073 352.759H93.6146Z" fill="#005F82"/>
<circle cx="155.299" cy="24.382" r="23.9479" fill="#005F82"/>
<path d="M201.743 98.7657C201.743 92.6188 200.532 86.5322 198.18 80.8533C195.828 75.1744 192.38 70.0144 188.033 65.6679C183.687 61.3215 178.527 57.8737 172.848 55.5214C167.169 53.1691 161.083 51.9584 154.936 51.9584C148.789 51.9584 142.702 53.1691 137.023 55.5214C131.344 57.8737 126.184 61.3215 121.838 65.6679C117.491 70.0144 114.044 75.1744 111.691 80.8533C109.339 86.5322 108.128 92.6189 108.128 98.7657L154.936 98.7657H201.743Z" fill="#005F82"/>
<circle cx="155.299" cy="151.379" r="23.9479" fill="#005F82"/>
<path d="M201.743 225.762C201.743 219.615 200.532 213.529 198.18 207.85C195.828 202.171 192.38 197.011 188.033 192.664C183.687 188.318 178.527 184.87 172.848 182.518C167.169 180.166 161.083 178.955 154.936 178.955C148.789 178.955 142.702 180.166 137.023 182.518C131.344 184.87 126.184 188.318 121.838 192.664C117.491 197.011 114.044 202.171 111.691 207.85C109.339 213.529 108.128 219.615 108.128 225.762L154.936 225.762H201.743Z" fill="#005F82"/>
<circle cx="155.299" cy="278.375" r="23.9479" fill="#005F82"/>
<path d="M201.743 352.759C201.743 346.612 200.532 340.525 198.18 334.846C195.828 329.167 192.38 324.007 188.033 319.661C183.687 315.315 178.527 311.867 172.848 309.514C167.169 307.162 161.083 305.951 154.936 305.951C148.789 305.951 142.702 307.162 137.023 309.514C131.344 311.867 126.184 315.315 121.838 319.661C117.491 324.007 114.044 329.167 111.691 334.846C109.339 340.525 108.128 346.612 108.128 352.759L154.936 352.759H201.743Z" fill="#005F82"/>
<circle cx="263.427" cy="24.382" r="23.9479" fill="#005F82"/>
<path d="M309.871 98.7657C309.871 92.6188 308.661 86.5322 306.308 80.8533C303.956 75.1744 300.508 70.0144 296.162 65.6679C291.815 61.3215 286.655 57.8737 280.976 55.5214C275.298 53.1691 269.211 51.9584 263.064 51.9584C256.917 51.9584 250.831 53.1691 245.152 55.5214C239.473 57.8737 234.313 61.3215 229.966 65.6679C225.62 70.0144 222.172 75.1744 219.82 80.8533C217.468 86.5322 216.257 92.6189 216.257 98.7657L263.064 98.7657H309.871Z" fill="#005F82"/>
<circle cx="263.427" cy="151.379" r="23.9479" fill="#005F82"/>
<path d="M309.871 225.762C309.871 219.615 308.661 213.529 306.308 207.85C303.956 202.171 300.508 197.011 296.162 192.664C291.815 188.318 286.655 184.87 280.976 182.518C275.298 180.166 269.211 178.955 263.064 178.955C256.917 178.955 250.831 180.166 245.152 182.518C239.473 184.87 234.313 188.318 229.966 192.664C225.62 197.011 222.172 202.171 219.82 207.85C217.468 213.529 216.257 219.615 216.257 225.762L263.064 225.762H309.871Z" fill="#005F82"/>
<circle cx="263.427" cy="278.375" r="23.9479" fill="#005F82"/>
<path d="M309.871 352.759C309.871 346.612 308.661 340.525 306.308 334.846C303.956 329.167 300.508 324.007 296.162 319.661C291.815 315.315 286.655 311.867 280.976 309.514C275.298 307.162 269.211 305.951 263.064 305.951C256.917 305.951 250.831 307.162 245.152 309.514C239.473 311.867 234.313 315.315 229.966 319.661C225.62 324.007 222.172 329.167 219.82 334.846C217.468 340.525 216.257 346.612 216.257 352.759L263.064 352.759H309.871Z" fill="#005F82"/>
<circle cx="371.556" cy="24.382" r="23.9479" fill="#005F82"/>
<path d="M418 98.7657C418 92.6188 416.789 86.5322 414.437 80.8533C412.085 75.1744 408.637 70.0144 404.291 65.6679C399.944 61.3215 394.784 57.8737 389.105 55.5214C383.426 53.1691 377.34 51.9584 371.193 51.9584C365.046 51.9584 358.959 53.1691 353.28 55.5214C347.601 57.8737 342.441 61.3215 338.095 65.6679C333.749 70.0144 330.301 75.1744 327.948 80.8533C325.596 86.5322 324.385 92.6189 324.385 98.7657L371.193 98.7657H418Z" fill="#005F82"/>
<circle cx="371.556" cy="151.379" r="23.9479" fill="#005F82"/>
<path d="M418 225.762C418 219.615 416.789 213.529 414.437 207.85C412.085 202.171 408.637 197.011 404.291 192.664C399.944 188.318 394.784 184.87 389.105 182.518C383.426 180.166 377.34 178.955 371.193 178.955C365.046 178.955 358.959 180.166 353.28 182.518C347.601 184.87 342.441 188.318 338.095 192.664C333.749 197.011 330.301 202.171 327.948 207.85C325.596 213.529 324.385 219.615 324.385 225.762L371.193 225.762H418Z" fill="#005F82"/>
<circle cx="371.556" cy="278.375" r="23.9479" fill="#005F82"/>
<path d="M418 352.759C418 346.612 416.789 340.525 414.437 334.846C412.085 329.167 408.637 324.007 404.291 319.661C399.944 315.315 394.784 311.867 389.105 309.514C383.426 307.162 377.34 305.951 371.193 305.951C365.046 305.951 358.959 307.162 353.28 309.514C347.601 311.867 342.441 315.315 338.095 319.661C333.749 324.007 330.301 329.167 327.948 334.846C325.596 340.525 324.385 346.612 324.385 352.759L371.193 352.759H418Z" fill="#005F82"/>
</svg>
