<svg width="405" height="403" viewBox="0 0 405 403" fill="none" xmlns="http://www.w3.org/2000/svg">
<path d="M58.9602 55.262L78.7231 75.097" stroke="#005F82" stroke-width="14" stroke-linejoin="round"/>
<path d="M36.6551 176.397L8.65509 176.397" stroke="#005F82" stroke-width="14" stroke-linejoin="round"/>
<path d="M300.026 54.9402L280.316 74.8279" stroke="#005F82" stroke-width="14" stroke-linejoin="round"/>
<path d="M78.994 277.967L59.2841 297.854" stroke="#005F82" stroke-width="14" stroke-linejoin="round"/>
<path d="M178.887 5.39897L179.013 33.3987" stroke="#005F82" stroke-width="14" stroke-linejoin="round"/>
<path d="M180.297 319.396L180.423 347.396" stroke="#005F82" stroke-width="14" stroke-linejoin="round"/>
<circle cx="179.655" cy="176.397" r="13" fill="#005F82"/>
<path d="M179.655 178.397L126.655 125.397" stroke="#005F82" stroke-width="14" stroke-linecap="round" stroke-linejoin="round"/>
<path d="M179.852 178.593L255.458 102.201" stroke="#005F82" stroke-width="14" stroke-linecap="round" stroke-linejoin="round"/>
<path d="M328.437 115.943C329.901 119.522 333.988 121.237 337.566 119.774C341.144 118.31 342.859 114.223 341.396 110.645L328.437 115.943ZM255.882 336.39C259.349 334.68 260.773 330.483 259.062 327.016C257.352 323.549 253.155 322.125 249.688 323.835L255.882 336.39ZM341.396 110.645C327.948 77.7549 304.914 49.675 275.291 30.0595L267.561 41.7324C294.841 59.7959 316.053 85.6545 328.437 115.943L341.396 110.645ZM275.291 30.0595C245.668 10.444 210.828 0.20132 175.304 0.664481L175.487 14.6633C208.199 14.2368 240.282 23.6689 267.561 41.7324L275.291 30.0595ZM175.304 0.664481C139.781 1.12764 105.219 12.2752 76.1163 32.6563L84.1472 44.1238C110.947 25.3552 142.774 15.0898 175.487 14.6633L175.304 0.664481ZM76.1163 32.6563C47.0139 53.0374 24.7184 81.7083 12.1309 114.938L25.2231 119.897C36.8151 89.2955 57.3472 62.8925 84.1472 44.1238L76.1163 32.6563ZM12.1309 114.938C-0.456557 148.167 -2.75331 184.417 5.53952 218.969L19.1529 215.702C11.5159 183.882 13.631 150.499 25.2231 119.897L12.1309 114.938ZM5.53952 218.969C13.8324 253.522 32.3308 284.778 58.6281 308.67L68.0424 298.308C43.8255 276.306 26.79 247.522 19.1529 215.702L5.53952 218.969ZM58.6281 308.67C84.9254 332.562 117.804 347.984 152.985 352.928L154.933 339.064C122.536 334.511 92.2592 320.31 68.0424 298.308L58.6281 308.67ZM152.985 352.928C188.166 357.872 224.02 352.109 255.882 336.39L249.688 323.835C220.347 338.31 187.33 343.617 154.933 339.064L152.985 352.928Z" fill="#005F82"/>
<path d="M303.661 261.397C303.661 257.531 300.527 254.397 296.661 254.397C292.795 254.397 289.661 257.531 289.661 261.397H303.661ZM296.661 378.897L303.658 379.097C303.66 379.031 303.661 378.964 303.661 378.897L296.661 378.897ZM332.661 382.397H325.661C325.661 382.484 325.662 382.57 325.666 382.656L332.661 382.397ZM339.661 330.897V323.897H325.661V330.897H339.661ZM368.161 382.397H361.161C361.161 382.57 361.167 382.742 361.18 382.914L368.161 382.397ZM375.161 261.397C375.161 257.531 372.027 254.397 368.161 254.397C364.295 254.397 361.161 257.531 361.161 261.397H375.161ZM289.661 261.397V378.897H303.661V261.397H289.661ZM289.664 378.697C289.545 382.842 290.66 388.879 294.599 394.002C298.819 399.49 305.693 403.149 315.345 402.895L314.977 388.9C309.428 389.046 306.969 387.121 305.697 385.468C304.145 383.449 303.61 380.786 303.658 379.097L289.664 378.697ZM315.345 402.895C324.285 402.66 330.814 399.898 334.971 395.338C339.019 390.899 340.07 385.545 339.615 381.595L325.707 383.2C325.751 383.582 325.653 384.779 324.625 385.906C323.707 386.913 321.237 388.735 314.977 388.9L315.345 402.895ZM339.661 382.397V330.897H325.661V382.397H339.661ZM325.666 382.656C325.809 386.52 327.466 391.615 331.616 395.777C335.934 400.107 342.404 402.897 351.161 402.897V388.897C345.517 388.897 342.821 387.187 341.53 385.892C340.072 384.43 339.68 382.774 339.656 382.138L325.666 382.656ZM351.161 402.897C359.894 402.897 366.322 400.108 370.425 395.477C374.35 391.046 375.426 385.725 375.142 381.88L361.18 382.914C361.228 383.57 361.005 384.998 359.946 386.193C359.066 387.186 356.828 388.897 351.161 388.897V402.897ZM375.161 382.397V261.397H361.161V382.397H375.161Z" fill="#005F82"/>
<path d="M296.655 297.897C297.322 303.397 295.355 314.297 282.155 313.897C268.955 313.497 266.655 304.731 267.155 300.397V235.397C267.489 228.064 273.855 213.397 296.655 213.397C319.455 213.397 329.155 213.397 331.155 213.397" stroke="#005F82" stroke-width="14" stroke-linecap="round" stroke-linejoin="round"/>
<path d="M368.155 297.897C367.489 303.397 369.455 314.297 382.655 313.897C395.855 313.497 398.155 304.731 397.655 300.397V235.397C397.322 228.064 390.955 213.397 368.155 213.397C345.355 213.397 335.655 213.397 333.655 213.397" stroke="#005F82" stroke-width="14" stroke-linecap="round" stroke-linejoin="round"/>
<circle cx="332.655" cy="173.397" r="33" stroke="#005F82" stroke-width="14" stroke-linejoin="round"/>
</svg>
